{
copyright = "~";
customParameters = (
{
name = glyphOrder;
value = (
    tlA,
    tlAA,
    tlI,
    tlII,
    tlU,
    tlUU,
    tlvR,
    tlvRR,
    tlvL,
    tlvLL,
    tlE,
    tlEE,
    tlAI,
    tlO,
    tlOO,
    tlAU,
    tlmAA,
    tlmI,
    tlmII,
    tlmU,
    tlmUU,
    tlmvR,
    tlmvRR,
    tlmvL,
    tlmvLL,
    tlmE,
    tlmEE,
    tlmAI,
    tlmO,
    tlmOO,
    tlmAU,
    tlLengthmark,
    tlAIlengthmark,
    tlKA,
    tlKHA,
    tlGA,
    tlGHA,
    tlNGA,
    tlCA,
    tlCHA,
    tlJA,
    tlJHA,
    tlNYA,
    tlTTA,
    tlTTHA,
    tlDDA,
    tlDDHA,
    tlNNA,
    tlTA,
    tlTHA,
    tlDA,
    tlDHA,
    tlNA,
    tlPA,
    tlPHA,
    tlBA,
    tlBHA,
    tlMA,
    tlYA,
    tlRA,
    tlLA,
    tlVA,
    tlSHA,
    tlSSA,
    tlSA,
    tlHA,
    tlRRA,
    tlRRRA,
    tlLLA,
    tlLLLA,
    tlTSA,
    tlDZA,
    tlKSSA,
    tlAnusvara,
    tlArasunna,
    tlCandrabindu,
    tlVisarga,
    tlVirama,
    tlAvagraha,
    tlZero,
    tlOne,
    tlTwo,
    tlThree,
    tlFour,
    tlFive,
    tlSix,
    tlSeven,
    tlEight,
    tlNine,
    tlZeroforodd,
    tlOneforodd,
    tlTwoforodd,
    tlThreeforodd,
    tlOneforeven,
    tlTwoforeven,
    tlThreeforeven,
    tlTuumu,
    ".notdef",
    NULL,
    CR,
    space,
    indianrupee,
    zerowidthnonjoiner,
    zerowidthjoiner,
    dottedcircle,
    ITF,
    tlTick,
    tlTeardrop,
    "tlTAc2.above",
    tlKAc2,
    tlKHAc2,
    tlGAc2,
    tlGHAc2,
    tlNGAc2,
    tlCAc2,
    tlCHAc2,
    tlJAc2,
    tlJHAc2,
    tlNYAc2,
    tlTTAc2,
    tlTTHAc2,
    tlDDAc2,
    tlDDHAc2,
    tlNNAc2,
    tlTAc2,
    tlTHAc2,
    tlDAc2,
    tlDHAc2,
    tlNAc2,
    tlPAc2,
    tlPHAc2,
    tlBAc2,
    tlBHAc2,
    tlMAc2,
    tlYAc2,
    tlRAc2,
    tlLAc2,
    tlVAc2,
    tlSHAc2,
    tlSSAc2,
    tlSAc2,
    tlHAc2,
    tlRRAc2,
    tlRRRAc2,
    tlLLAc2,
    tlLLLAc2,
    tlTSAc2,
    tlDZAc2,
    tlKSSAc2,
    "tlTAc2_RAc2",
    "tlKAc2.spacing",
    "tlKHAc2.spacing",
    "tlGAc2.spacing",

glyphs = (
{
glyphname = tlA;
lastChange = "2015-09-08 12:47:02 +0000";
layers = (
{
background = {
paths = (
{
closed = 1;
nodes = (
"660 -11 OFFCURVE",
"858 125 OFFCURVE",
"858 352 CURVE SMOOTH",
"858 470 OFFCURVE",
"788 586 OFFCURVE",
"638 586 CURVE SMOOTH",
"524 586 OFFCURVE",
"466 517 OFFCURVE",
"466 444 CURVE SMOOTH",
"466 379 OFFCURVE",
"516 335 OFFCURVE",
"584 330 CURVE",
"660 357 LINE",
"619 362 OFFCURVE",
"594 390 OFFCURVE",
"594 425 CURVE SMOOTH",
"594 459 OFFCURVE",
"613 483 OFFCURVE",
"647 483 CURVE SMOOTH",
"694 483 OFFCURVE",
"719 428 OFFCURVE",
"719 362 CURVE SMOOTH",
"719 224 OFFCURVE",
"632 104 OFFCURVE",
"443 104 CURVE SMOOTH",
"311 104 OFFCURVE",
"175 178 OFFCURVE",
"175 311 CURVE SMOOTH",
"175 321 OFFCURVE",
"178 333 OFFCURVE",
"184 345 CURVE",
"162 341 LINE",
"169 284 OFFCURVE",
"224 262 OFFCURVE",
"273 262 CURVE SMOOTH",
"365 262 OFFCURVE",
"423 330 OFFCURVE",
"423 421 CURVE SMOOTH",
"423 502 OFFCURVE",
"364 586 OFFCURVE",
"255 586 CURVE SMOOTH",
"103 586 OFFCURVE",
"35 462 OFFCURVE",
"35 335 CURVE SMOOTH",
"35 111 OFFCURVE",
"220 -11 OFFCURVE",
"443 -11 CURVE SMOOTH"
);
},
{
closed = 1;
nodes = (
"205 360 OFFCURVE",
"186 384 OFFCURVE",
"186 416 CURVE SMOOTH",
"186 445 OFFCURVE",
"205 474 OFFCURVE",
"236 474 CURVE SMOOTH",
"272 474 OFFCURVE",
"289 449 OFFCURVE",
"289 418 CURVE SMOOTH",
"289 387 OFFCURVE",
"274 360 OFFCURVE",
"239 360 CURVE SMOOTH"
);
},
{
closed = 1;
nodes = (
"660 245 LINE",
"660 357 LINE",
"448 357 LINE",
"448 245 LINE"
);
}
);
};
layerId = "62C1AEDA-2B35-4B7D-84F0-C5D6ED04B717";
name = Bold;
paths = (
{
closed = 1;
nodes = (
"643 -11 OFFCURVE",
"858 117 OFFCURVE",
"858 348 CURVE SMOOTH",
"858 460 OFFCURVE",
"790 586 OFFCURVE",
"638 586 CURVE SMOOTH",
"524 586 OFFCURVE",
"466 517 OFFCURVE",
"466 444 CURVE SMOOTH",
"466 379 OFFCURVE",
"516 335 OFFCURVE",
"584 330 CURVE",
"660 357 LINE",
"619 362 OFFCURVE",
"594 390 OFFCURVE",
"594 425 CURVE SMOOTH",
"594 458 OFFCURVE",
"613 483 OFFCURVE",
"647 483 CURVE SMOOTH",
"694 483 OFFCURVE",
"719 432 OFFCURVE",
"719 369 CURVE SMOOTH",
"719 228 OFFCURVE",
"626 104 OFFCURVE",
"446 104 CURVE SMOOTH",
"309 104 OFFCURVE",
"168 178 OFFCURVE",
"168 311 CURVE SMOOTH",
"168 321 OFFCURVE",
"171 333 OFFCURVE",
"177 345 CURVE",
"155 341 LINE",
"162 284 OFFCURVE",
"224 262 OFFCURVE",
"273 262 CURVE SMOOTH",
"365 262 OFFCURVE",
"423 330 OFFCURVE",
"423 421 CURVE SMOOTH",
"423 502 OFFCURVE",
"364 586 OFFCURVE",
"255 586 CURVE SMOOTH",
"103 586 OFFCURVE",
"35 450 OFFCURVE",
"35 330 CURVE SMOOTH",
"35 111 OFFCURVE",
"240 -11 OFFCURVE",
"446 -11 CURVE SMOOTH"
);
},
{
closed = 1;
nodes = (
"205 360 OFFCURVE",
"186 384 OFFCURVE",
"186 416 CURVE SMOOTH",
"186 445 OFFCURVE",
"205 474 OFFCURVE",
"236 474 CURVE SMOOTH",
"272 474 OFFCURVE",
"289 449 OFFCURVE",
"289 418 CURVE SMOOTH",
"289 387 OFFCURVE",
"274 360 OFFCURVE",
"239 360 CURVE SMOOTH"
);
},
{
closed = 1;
nodes = (
"660 245 LINE",
"660 357 LINE",
"433 357 LINE",
"433 245 LINE"
);
}
);
width = 893;
},
{
layerId = "D4CB3B6C-5708-466F-BC9B-F67484F28429";
name = Light;
paths = (
{
closed = 1;
nodes = (
"596 -9 OFFCURVE",
"753 124 OFFCURVE",
"753 339 CURVE SMOOTH",
"753 466 OFFCURVE",
"683 556 OFFCURVE",
"578 556 CURVE SMOOTH",
"506 556 OFFCURVE",
"444 494 OFFCURVE",
"444 421 CURVE SMOOTH",
"444 334 OFFCURVE",
"509 291 OFFCURVE",
"572 285 CURVE",
"595 306 LINE",
"532 316 OFFCURVE",
"502 371 OFFCURVE",
"502 414 CURVE SMOOTH",
"502 465 OFFCURVE",
"531 504 OFFCURVE",
"583 504 CURVE SMOOTH",
"647 504 OFFCURVE",
"690 438 OFFCURVE",
"690 343 CURVE SMOOTH",
"690 157 OFFCURVE",
"568 43 OFFCURVE",
"390 43 CURVE",
"230 43 OFFCURVE",
"91 156 OFFCURVE",
"91 340 CURVE SMOOTH",
"91 363 OFFCURVE",
"95 389 OFFCURVE",
"103 416 CURVE",
"87 411 LINE",
"87 333 OFFCURVE",
"141 277 OFFCURVE",
"216 277 CURVE SMOOTH",
"305 277 OFFCURVE",
"358 342 OFFCURVE",
"358 419 CURVE SMOOTH",
"358 490 OFFCURVE",
"306 556 OFFCURVE",
"217 556 CURVE SMOOTH",
"114 556 OFFCURVE",
"40 451 OFFCURVE",
"40 325 CURVE SMOOTH",
"40 121 OFFCURVE",
"202 -9 OFFCURVE",
"391 -9 CURVE"
);
},
{
closed = 1;
nodes = (
"159 329 OFFCURVE",
"126 368 OFFCURVE",
"126 416 CURVE SMOOTH",
"126 457 OFFCURVE",
"159 503 OFFCURVE",
"212 503 CURVE SMOOTH",
"266 503 OFFCURVE",
"296 465 OFFCURVE",
"296 419 CURVE SMOOTH",
"296 372 OFFCURVE",
"267 329 OFFCURVE",
"213 329 CURVE SMOOTH"
);
},
{
closed = 1;
nodes = (
"595 252 LINE",
"595 306 LINE",
"339 306 LINE",
"339 252 LINE"
);
}
);
width = 793;
}
);
unicode = 0C05;
},
{
glyphname = tlAA;
lastChange = "2015-09-08 12:47:02 +0000";
layers = (
{
background = {
paths = (
{
closed = 1;
nodes = (
"598 -11 OFFCURVE",
"749 79 OFFCURVE",
"749 224 CURVE SMOOTH",
"749 342 OFFCURVE",
"608 366 OFFCURVE",
"608 440 CURVE SMOOTH",
"608 467 OFFCURVE",
"625 483 OFFCURVE",
"648 483 CURVE SMOOTH",
"676 483 OFFCURVE",
"692 461 OFFCURVE",
"692 435 CURVE SMOOTH",
"692 390 OFFCURVE",
"661 350 OFFCURVE",
"584 350 CURVE SMOOTH",
"433 350 LINE",
"433 245 LINE",
"577 245 LINE SMOOTH",
"722 245 OFFCURVE",
"820 321 OFFCURVE",
"820 433 CURVE SMOOTH",
"820 512 OFFCURVE",
"760 586 OFFCURVE",
"643 586 CURVE SMOOTH",
"541 586 OFFCURVE",
"482 520 OFFCURVE",
"482 442 CURVE SMOOTH",
"482 323 OFFCURVE",
"614 299 OFFCURVE",
"614 224 CURVE SMOOTH",
"614 154 OFFCURVE",
"542 104 OFFCURVE",
"425 104 CURVE SMOOTH",
"295 104 OFFCURVE",
"168 182 OFFCURVE",
"168 298 CURVE SMOOTH",
"168 313 OFFCURVE",
"173 342 OFFCURVE",
"178 358 CURVE",
"153 341 LINE",
"160 284 OFFCURVE",
"224 262 OFFCURVE",
"273 262 CURVE SMOOTH",
"365 262 OFFCURVE",
"423 330 OFFCURVE",
"423 421 CURVE SMOOTH",
"423 502 OFFCURVE",
"364 586 OFFCURVE",
"255 586 CURVE SMOOTH",
"106 586 OFFCURVE",
"35 456 OFFCURVE",
"35 335 CURVE SMOOTH",
"35 125 OFFCURVE",
"202 -11 OFFCURVE",
"424 -11 CURVE SMOOTH"
);
},
{
closed = 1;
nodes = (
"205 360 OFFCURVE",
"186 384 OFFCURVE",
"186 416 CURVE SMOOTH",
"186 445 OFFCURVE",
"205 474 OFFCURVE",
"236 474 CURVE SMOOTH",
"272 474 OFFCURVE",
"289 449 OFFCURVE",
"289 418 CURVE SMOOTH",
"289 387 OFFCURVE",
"274 360 OFFCURVE",
"239 360 CURVE SMOOTH"
);
}
);
};
layerId = "62C1AEDA-2B35-4B7D-84F0-C5D6ED04B717";
name = Bold;
paths = (
{
closed = 1;
nodes = (
"598 -11 OFFCURVE",
"749 79 OFFCURVE",
"749 224 CURVE SMOOTH",
"749 342 OFFCURVE",
"603 356 OFFCURVE",
"603 440 CURVE SMOOTH",
"603 464 OFFCURVE",
"622 483 OFFCURVE",
"647 483 CURVE SMOOTH",
"677 483 OFFCURVE",
"694 461 OFFCURVE",
"694 429 CURVE SMOOTH",
"694 387 OFFCURVE",
"658 340 OFFCURVE",
"581 340 CURVE SMOOTH",
"433 340 LINE",
"433 235 LINE",
"577 235 LINE SMOOTH",
"722 235 OFFCURVE",
"822 321 OFFCURVE",
"822 429 CURVE SMOOTH",
"822 514 OFFCURVE",
"759 586 OFFCURVE",
"647 586 CURVE SMOOTH",
"537 586 OFFCURVE",
"477 520 OFFCURVE",
"477 442 CURVE SMOOTH",
"477 313 OFFCURVE",
"614 299 OFFCURVE",
"614 224 CURVE SMOOTH",
"614 154 OFFCURVE",
"542 104 OFFCURVE",
"425 104 CURVE SMOOTH",
"295 104 OFFCURVE",
"168 182 OFFCURVE",
"168 298 CURVE SMOOTH",
"168 313 OFFCURVE",
"173 342 OFFCURVE",
"178 358 CURVE",
"153 341 LINE",
"160 284 OFFCURVE",
"224 262 OFFCURVE",
"273 262 CURVE SMOOTH",
"365 262 OFFCURVE",
"423 330 OFFCURVE",
"423 421 CURVE SMOOTH",
"423 502 OFFCURVE",
"364 586 OFFCURVE",
"255 586 CURVE SMOOTH",
"106 586 OFFCURVE",
"35 456 OFFCURVE",
"35 335 CURVE SMOOTH",
"35 125 OFFCURVE",
"202 -11 OFFCURVE",
"424 -11 CURVE SMOOTH"
);
},
{
closed = 1;
nodes = (
"205 360 OFFCURVE",
"186 384 OFFCURVE",
"186 416 CURVE SMOOTH",
"186 445 OFFCURVE",
"205 474 OFFCURVE",
"236 474 CURVE SMOOTH",
"272 474 OFFCURVE",
"289 449 OFFCURVE",
"289 418 CURVE SMOOTH",
"289 387 OFFCURVE",
"274 360 OFFCURVE",
"239 360 CURVE SMOOTH"
);
}
);
width = 852;
},
{
layerId = "D4CB3B6C-5708-466F-BC9B-F67484F28429";
name = Light;
paths = (
{
closed = 1;
nodes = (
"527 -9 OFFCURVE",
"646 80 OFFCURVE",
"646 203 CURVE SMOOTH",
"646 302 OFFCURVE",
"512 341 OFFCURVE",
"512 430 CURVE SMOOTH",
"512 470 OFFCURVE",
"538 504 OFFCURVE",
"584 504 CURVE SMOOTH",
"633 504 OFFCURVE",
"664 467 OFFCURVE",
"664 418 CURVE SMOOTH",
"664 349 OFFCURVE",
"612 305 OFFCURVE",
"527 305 CURVE SMOOTH",
"337 305 LINE",
"337 251 LINE",
"527 251 LINE SMOOTH",
"653 251 OFFCURVE",
"722 326 OFFCURVE",
"722 418 CURVE SMOOTH",
"722 496 OFFCURVE",
"666 556 OFFCURVE",
"585 556 CURVE SMOOTH",
"509 556 OFFCURVE",
"454 503 OFFCURVE",
"454 430 CURVE SMOOTH",
"454 312 OFFCURVE",
"584 289 OFFCURVE",
"584 203 CURVE SMOOTH",
"584 107 OFFCURVE",
"499 43 OFFCURVE",
"370 43 CURVE SMOOTH",
"210 43 OFFCURVE",
"89 156 OFFCURVE",
"89 340 CURVE SMOOTH",
"89 362 OFFCURVE",
"93 390 OFFCURVE",
"101 417 CURVE",
"85 411 LINE",
"85 333 OFFCURVE",
"139 277 OFFCURVE",
"214 277 CURVE SMOOTH",
"303 277 OFFCURVE",
"356 342 OFFCURVE",
"356 419 CURVE SMOOTH",
"356 490 OFFCURVE",
"304 556 OFFCURVE",
"215 556 CURVE SMOOTH",
"112 556 OFFCURVE",
"38 451 OFFCURVE",
"38 326 CURVE SMOOTH",
"38 122 OFFCURVE",
"181 -9 OFFCURVE",
"368 -9 CURVE SMOOTH"
);
},
{
closed = 1;
nodes = (
"157 329 OFFCURVE",
"124 368 OFFCURVE",
"124 416 CURVE SMOOTH",
"124 457 OFFCURVE",
"157 503 OFFCURVE",
"210 503 CURVE SMOOTH",
"264 503 OFFCURVE",
"294 465 OFFCURVE",
"294 419 CURVE SMOOTH",
"294 372 OFFCURVE",
"265 329 OFFCURVE",
"211 329 CURVE SMOOTH"
);
}
);
width = 755;
}
);
unicode = 0C06;
},
{
glyphname = tlI;
lastChange = "2015-09-08 12:47:02 +0000";
layers = (
{
background = {
paths = (
{
closed = 1;
nodes = (
"698 -70 LINE",
"680 123 OFFCURVE",
"540 308 OFFCURVE",
"333 308 CURVE SMOOTH",
"201 308 OFFCURVE",
"119 237 OFFCURVE",
"119 146 CURVE SMOOTH",
"119 44 OFFCURVE",
"204 -11 OFFCURVE",
"339 -11 CURVE SMOOTH",
"528 -11 OFFCURVE",
"697 155 OFFCURVE",
"697 355 CURVE SMOOTH",
"697 475 OFFCURVE",
"639 587 OFFCURVE",
"503 587 CURVE SMOOTH",
"425 587 OFFCURVE",
"372 531 OFFCURVE",
"364 463 CURVE",
"356 531 OFFCURVE",
"298 587 OFFCURVE",
"205 587 CURVE SMOOTH",
"91 587 OFFCURVE",
"25 507 OFFCURVE",
"25 420 CURVE SMOOTH",
"25 383 OFFCURVE",
"32 353 OFFCURVE",
"46 322 CURVE",
"184 322 LINE",
"171 347 OFFCURVE",
"164 372 OFFCURVE",
"164 400 CURVE SMOOTH",
"164 439 OFFCURVE",
"185 471 OFFCURVE",
"224 471 CURVE SMOOTH",
"275 471 OFFCURVE",
"293 427 OFFCURVE",
"293 377 CURVE SMOOTH",
"293 349 LINE",
"435 349 LINE",
"435 377 LINE SMOOTH",
"435 427 OFFCURVE",
"449 471 OFFCURVE",
"495 471 CURVE SMOOTH",
"544 471 OFFCURVE",
"559 414 OFFCURVE",
"559 357 CURVE SMOOTH",
"559 229 OFFCURVE",
"481 102 OFFCURVE",
"339 102 CURVE SMOOTH",
"288 102 OFFCURVE",
"261 118 OFFCURVE",
"261 149 CURVE SMOOTH",
"261 178 OFFCURVE",
"287 197 OFFCURVE",
"337 197 CURVE SMOOTH",
"473 197 OFFCURVE",
"543 53 OFFCURVE",
"553 -70 CURVE"
);
}
);
};
layerId = "62C1AEDA-2B35-4B7D-84F0-C5D6ED04B717";
name = Bold;
paths = (
{
closed = 1;
nodes = (
"608 -70 LINE",
"608 143 OFFCURVE",
"500 308 OFFCURVE",
"323 308 CURVE SMOOTH",
"201 308 OFFCURVE",
"119 237 OFFCURVE",
"119 146 CURVE SMOOTH",
"119 44 OFFCURVE",
"214 -11 OFFCURVE",
"339 -11 CURVE SMOOTH",
"510 -11 OFFCURVE",
"697 159 OFFCURVE",
"697 363 CURVE SMOOTH",
"697 480 OFFCURVE",
"636 587 OFFCURVE",
"503 587 CURVE SMOOTH",
"425 587 OFFCURVE",
"372 531 OFFCURVE",
"364 463 CURVE",
"356 531 OFFCURVE",
"298 587 OFFCURVE",
"205 587 CURVE SMOOTH",
"91 587 OFFCURVE",
"25 507 OFFCURVE",
"25 420 CURVE SMOOTH",
"25 383 OFFCURVE",
"32 353 OFFCURVE",
"46 322 CURVE",
"184 322 LINE",
"171 347 OFFCURVE",
"164 372 OFFCURVE",
"164 400 CURVE SMOOTH",
"164 439 OFFCURVE",
"185 471 OFFCURVE",
"224 471 CURVE SMOOTH",
"275 471 OFFCURVE",
"293 427 OFFCURVE",
"293 377 CURVE SMOOTH",
"293 349 LINE",
"435 349 LINE",
"435 377 LINE SMOOTH",
"435 427 OFFCURVE",
"449 471 OFFCURVE",
"495 471 CURVE SMOOTH",
"541 471 OFFCURVE",
"559 420 OFFCURVE",
"559 366 CURVE SMOOTH",
"559 235 OFFCURVE",
"464 102 OFFCURVE",
"339 102 CURVE SMOOTH",
"290 102 OFFCURVE",
"261 118 OFFCURVE",
"261 149 CURVE SMOOTH",
"261 178 OFFCURVE",
"282 197 OFFCURVE",
"317 197 CURVE SMOOTH",
"423 197 OFFCURVE",
"463 84 OFFCURVE",
"463 -70 CURVE"
);
}
);
width = 732;
},
{
background = {
paths = (
{
closed = 1;
nodes = (
"572 -48 LINE",
"557 113 OFFCURVE",
"444 261 OFFCURVE",
"270 261 CURVE SMOOTH",
"162 261 OFFCURVE",
"91 198 OFFCURVE",
"91 126 CURVE SMOOTH",
"91 35 OFFCURVE",
"173 -9 OFFCURVE",
"270 -9 CURVE SMOOTH",
"466 -9 OFFCURVE",
"569 194 OFFCURVE",
"569 347 CURVE SMOOTH",
"569 454 OFFCURVE",
"520 556 OFFCURVE",
"412 556 CURVE SMOOTH",
"342 556 OFFCURVE",
"290 509 OFFCURVE",
"283 445 CURVE",
"275 508 OFFCURVE",
"231 556 OFFCURVE",
"155 556 CURVE SMOOTH",
"64 556 OFFCURVE",
"10 483 OFFCURVE",
"10 399 CURVE SMOOTH",
"10 374 OFFCURVE",
"13 349 OFFCURVE",
"21 326 CURVE",
"83 326 LINE",
"75 350 OFFCURVE",
"71 375 OFFCURVE",
"71 398 CURVE SMOOTH",
"71 454 OFFCURVE",
"99 503 OFFCURVE",
"159 503 CURVE SMOOTH",
"218 503 OFFCURVE",
"252 450 OFFCURVE",
"252 389 CURVE SMOOTH",
"252 352 LINE",
"314 352 LINE",
"314 387 LINE SMOOTH",
"314 452 OFFCURVE",
"346 503 OFFCURVE",
"407 503 CURVE SMOOTH",
"480 503 OFFCURVE",
"509 424 OFFCURVE",
"509 341 CURVE SMOOTH",
"509 205 OFFCURVE",
"427 43 OFFCURVE",
"270 43 CURVE SMOOTH",
"198 43 OFFCURVE",
"154 72 OFFCURVE",
"154 123 CURVE SMOOTH",
"154 169 OFFCURVE",
"191 208 OFFCURVE",
"271 208 CURVE SMOOTH",
"407 208 OFFCURVE",
"495 99 OFFCURVE",
"512 -48 CURVE"
);
}
);
};
layerId = "D4CB3B6C-5708-466F-BC9B-F67484F28429";
name = Light;
paths = (
{
closed = 1;
nodes = (
"482 -48 LINE",
"482 123 OFFCURVE",
"394 251 OFFCURVE",
"254 251 CURVE SMOOTH",
"165 251 OFFCURVE",
"91 196 OFFCURVE",
"91 119 CURVE SMOOTH",
"91 33 OFFCURVE",
"165 -9 OFFCURVE",
"260 -9 CURVE SMOOTH",
"450 -9 OFFCURVE",
"559 193 OFFCURVE",
"559 347 CURVE SMOOTH",
"559 459 OFFCURVE",
"511 556 OFFCURVE",
"408 556 CURVE SMOOTH",
"337 556 OFFCURVE",
"290 509 OFFCURVE",
"283 445 CURVE",
"275 508 OFFCURVE",
"231 556 OFFCURVE",
"155 556 CURVE SMOOTH",
"64 556 OFFCURVE",
"10 483 OFFCURVE",
"10 399 CURVE SMOOTH",
"10 374 OFFCURVE",
"13 349 OFFCURVE",
"21 326 CURVE",
"83 326 LINE",
"75 350 OFFCURVE",
"71 375 OFFCURVE",
"71 398 CURVE SMOOTH",
"71 454 OFFCURVE",
"99 503 OFFCURVE",
"159 503 CURVE SMOOTH",
"218 503 OFFCURVE",
"252 450 OFFCURVE",
"252 389 CURVE SMOOTH",
"252 352 LINE",
"314 352 LINE",
"314 387 LINE SMOOTH",
"314 452 OFFCURVE",
"341 503 OFFCURVE",
"403 503 CURVE SMOOTH",
"471 503 OFFCURVE",
"499 431 OFFCURVE",
"499 348 CURVE SMOOTH",
"499 214 OFFCURVE",
"411 43 OFFCURVE",
"260 43 CURVE SMOOTH",
"191 43 OFFCURVE",
"154 70 OFFCURVE",
"154 116 CURVE SMOOTH",
"154 165 OFFCURVE",
"196 198 OFFCURVE",
"255 198 CURVE SMOOTH",
"357 198 OFFCURVE",
"422 109 OFFCURVE",
"422 -48 CURVE"
);
}
);
width = 599;
}
);
unicode = 0C07;
},
{
glyphname = tlII;
lastChange = "2015-09-08 12:47:02 +0000";
layers = (
{
background = {
paths = (
{
closed = 1;
nodes = (
"920 8 OFFCURVE",
"986 81 OFFCURVE",
"986 163 CURVE SMOOTH",
"986 293 OFFCURVE",
"863 336 OFFCURVE",
"726 336 CURVE SMOOTH",
"20 336 LINE",
"20 234 LINE",
"731 234 LINE SMOOTH",
"823 234 OFFCURVE",
"864 217 OFFCURVE",
"864 166 CURVE SMOOTH",
"864 142 OFFCURVE",
"849 118 OFFCURVE",
"818 118 CURVE SMOOTH",
"793 118 OFFCURVE",
"775 138 OFFCURVE",
"775 162 CURVE SMOOTH",
"775 249 OFFCURVE",
"971 283 OFFCURVE",
"971 411 CURVE SMOOTH",
"971 496 OFFCURVE",
"904 549 OFFCURVE",
"801 549 CURVE SMOOTH",
"760 549 OFFCURVE",
"717 542 OFFCURVE",
"680 526 CURVE",
"680 403 LINE",
"710 418 OFFCURVE",
"749 431 OFFCURVE",
"778 431 CURVE SMOOTH",
"817 431 OFFCURVE",
"836 418 OFFCURVE",
"836 395 CURVE SMOOTH",
"836 323 OFFCURVE",
"657 299 OFFCURVE",
"657 152 CURVE SMOOTH",
"657 73 OFFCURVE",
"720 8 OFFCURVE",
"817 8 CURVE SMOOTH"
);
},
{
closed = 1;
nodes = (
"529 -8 OFFCURVE",
"611 115 OFFCURVE",
"611 283 CURVE SMOOTH",
"611 442 OFFCURVE",
"534 576 OFFCURVE",
"353 576 CURVE SMOOTH",
"182 576 OFFCURVE",
"94 442 OFFCURVE",
"94 274 CURVE SMOOTH",
"94 112 OFFCURVE",
"173 -8 OFFCURVE",
"353 -8 CURVE SMOOTH"
);
},
{
closed = 1;
nodes = (
"271 105 OFFCURVE",
"246 179 OFFCURVE",
"246 280 CURVE SMOOTH",
"246 371 OFFCURVE",
"270 464 OFFCURVE",
"352 464 CURVE SMOOTH",
"440 464 OFFCURVE",
"459 369 OFFCURVE",
"459 278 CURVE SMOOTH",
"459 177 OFFCURVE",
"437 105 OFFCURVE",
"354 105 CURVE SMOOTH"
);
},
{
closed = 1;
nodes = (
"439 494 LINE",
"673 799 LINE",
"524 799 LINE",
"354 576 LINE",
"274 677 LINE",
"112 677 LINE",
"270 494 LINE"
);
}
);
};
layerId = "62C1AEDA-2B35-4B7D-84F0-C5D6ED04B717";
name = Bold;
paths = (
{
closed = 1;
nodes = (
"980 8 OFFCURVE",
"1046 81 OFFCURVE",
"1046 163 CURVE SMOOTH",
"1046 293 OFFCURVE",
"923 336 OFFCURVE",
"786 336 CURVE SMOOTH",
"20 336 LINE",
"20 234 LINE",
"791 234 LINE SMOOTH",
"883 234 OFFCURVE",
"924 217 OFFCURVE",
"924 166 CURVE SMOOTH",
"924 142 OFFCURVE",
"909 118 OFFCURVE",
"878 118 CURVE SMOOTH",
"853 118 OFFCURVE",
"835 138 OFFCURVE",
"835 162 CURVE SMOOTH",
"835 249 OFFCURVE",
"1031 283 OFFCURVE",
"1031 411 CURVE SMOOTH",
"1031 496 OFFCURVE",
"964 549 OFFCURVE",
"861 549 CURVE SMOOTH",
"820 549 OFFCURVE",
"777 542 OFFCURVE",
"740 526 CURVE",
"740 403 LINE",
"770 418 OFFCURVE",
"809 431 OFFCURVE",
"838 431 CURVE SMOOTH",
"877 431 OFFCURVE",
"896 418 OFFCURVE",
"896 395 CURVE SMOOTH",
"896 323 OFFCURVE",
"717 299 OFFCURVE",
"717 152 CURVE SMOOTH",
"717 73 OFFCURVE",
"780 8 OFFCURVE",
"877 8 CURVE SMOOTH"
);
},
{
closed = 1;
nodes = (
"560 -8 OFFCURVE",
"660 115 OFFCURVE",
"660 283 CURVE SMOOTH",
"660 432 OFFCURVE",
"573 576 OFFCURVE",
"382 576 CURVE SMOOTH",
"201 576 OFFCURVE",
"103 432 OFFCURVE",
"103 274 CURVE SMOOTH",
"103 112 OFFCURVE",
"200 -8 OFFCURVE",
"382 -8 CURVE SMOOTH"
);
},
{
closed = 1;
nodes = (
"298 105 OFFCURVE",
"255 179 OFFCURVE",
"255 280 CURVE SMOOTH",
"255 371 OFFCURVE",
"294 468 OFFCURVE",
"381 468 CURVE SMOOTH",
"474 468 OFFCURVE",
"508 369 OFFCURVE",
"508 278 CURVE SMOOTH",
"508 177 OFFCURVE",
"468 105 OFFCURVE",
"383 105 CURVE SMOOTH"
);
},
{
closed = 1;
nodes = (
"472 494 LINE",
"706 799 LINE",
"557 799 LINE",
"387 576 LINE",
"307 677 LINE",
"145 677 LINE",
"303 494 LINE"
);
}
);
width = 1076;
},
{
layerId = "D4CB3B6C-5708-466F-BC9B-F67484F28429";
name = Light;
paths = (
{
closed = 1;
nodes = (
"825 25 OFFCURVE",
"882 75 OFFCURVE",
"882 149 CURVE SMOOTH",
"882 239 OFFCURVE",
"802 296 OFFCURVE",
"662 296 CURVE SMOOTH",
"30 296 LINE",
"30 245 LINE",
"667 245 LINE SMOOTH",
"775 245 OFFCURVE",
"821 206 OFFCURVE",
"821 144 CURVE SMOOTH",
"821 105 OFFCURVE",
"793 77 OFFCURVE",
"750 77 CURVE SMOOTH",
"710 77 OFFCURVE",
"683 99 OFFCURVE",
"683 139 CURVE SMOOTH",
"683 242 OFFCURVE",
"862 283 OFFCURVE",
"862 398 CURVE SMOOTH",
"862 459 OFFCURVE",
"815 511 OFFCURVE",
"736 511 CURVE SMOOTH",
"697 511 OFFCURVE",
"667 505 OFFCURVE",
"633 490 CURVE",
"633 435 LINE",
"661 449 OFFCURVE",
"693 459 OFFCURVE",
"720 459 CURVE SMOOTH",
"770 459 OFFCURVE",
"800 435 OFFCURVE",
"800 392 CURVE SMOOTH",
"800 311 OFFCURVE",
"622 260 OFFCURVE",
"622 139 CURVE SMOOTH",
"622 68 OFFCURVE",
"673 25 OFFCURVE",
"749 25 CURVE SMOOTH"
);
},
{
closed = 1;
nodes = (
"466 -9 OFFCURVE",
"564 98 OFFCURVE",
"564 272 CURVE SMOOTH",
"564 440 OFFCURVE",
"466 546 OFFCURVE",
"328 546 CURVE SMOOTH",
"189 546 OFFCURVE",
"91 440 OFFCURVE",
"91 271 CURVE SMOOTH",
"91 98 OFFCURVE",
"188 -9 OFFCURVE",
"328 -9 CURVE SMOOTH"
);
},
{
closed = 1;
nodes = (
"229 43 OFFCURVE",
"153 132 OFFCURVE",
"153 271 CURVE SMOOTH",
"153 407 OFFCURVE",
"228 494 OFFCURVE",
"328 494 CURVE SMOOTH",
"426 494 OFFCURVE",
"501 407 OFFCURVE",
"501 270 CURVE SMOOTH",
"501 131 OFFCURVE",
"426 43 OFFCURVE",
"328 43 CURVE SMOOTH"
);
},
{
closed = 1;
nodes = (
"362 495 LINE",
"563 757 LINE",
"490 757 LINE",
"329 546 LINE",
"253 642 LINE",
"176 642 LINE",
"296 495 LINE"
);
}
);
width = 911;
}
);
unicode = 0C08;
},
{
glyphname = tlU;
lastChange = "2015-09-08 12:47:02 +0000";
layers = (
{
background = {
paths = (
{
closed = 1;
nodes = (
"369 -10 OFFCURVE",
"427 36 OFFCURVE",
"436 114 CURVE",
"446 36 OFFCURVE",
"522 -10 OFFCURVE",
"639 -10 CURVE SMOOTH",
"774 -10 OFFCURVE",
"853 68 OFFCURVE",
"853 167 CURVE SMOOTH",
"853 250 OFFCURVE",
"790 322 OFFCURVE",
"688 322 CURVE SMOOTH",
"595 322 OFFCURVE",
"537 253 OFFCURVE",
"537 180 CURVE SMOOTH",
"537 124 OFFCURVE",
"565 76 OFFCURVE",
"629 56 CURVE",
"623 76 LINE",
"541 76 OFFCURVE",
"507 121 OFFCURVE",
"507 190 CURVE SMOOTH",
"507 206 LINE",
"365 206 LINE",
"365 190 LINE SMOOTH",
"365 135 OFFCURVE",
"346 106 OFFCURVE",
"296 106 CURVE SMOOTH",
"243 106 OFFCURVE",
"221 158 OFFCURVE",
"221 216 CURVE SMOOTH",
"221 331 OFFCURVE",
"299 464 OFFCURVE",
"475 464 CURVE SMOOTH",
"555 464 OFFCURVE",
"630 441 OFFCURVE",
"697 404 CURVE",
"697 530 LINE",
"630 561 OFFCURVE",
"558 576 OFFCURVE",
"469 576 CURVE SMOOTH",
"263 576 OFFCURVE",
"79 440 OFFCURVE",
"79 225 CURVE SMOOTH",
"79 96 OFFCURVE",
"148 -10 OFFCURVE",
"283 -10 CURVE SMOOTH"
);
},
{
closed = 1;
nodes = (
"877 270 LINE",
"877 372 LINE",
"20 372 LINE",
"20 270 LINE"
);
},
{
closed = 1;
nodes = (
"655 109 OFFCURVE",
"635 135 OFFCURVE",
"635 166 CURVE SMOOTH",
"635 193 OFFCURVE",
"654 223 OFFCURVE",
"691 223 CURVE SMOOTH",
"726 223 OFFCURVE",
"746 195 OFFCURVE",
"746 166 CURVE SMOOTH",
"746 137 OFFCURVE",
"726 109 OFFCURVE",
"691 109 CURVE SMOOTH"
);
},
{
closed = 1;
nodes = (
"529 545 LINE",
"529 681 LINE",
"403 681 LINE",
"403 545 LINE"
);
}
);
};
layerId = "62C1AEDA-2B35-4B7D-84F0-C5D6ED04B717";
name = Bold;
paths = (
{
closed = 1;
nodes = (
"371 -10 OFFCURVE",
"429 36 OFFCURVE",
"438 114 CURVE",
"458 34 OFFCURVE",
"544 -10 OFFCURVE",
"641 -10 CURVE SMOOTH",
"787 -10 OFFCURVE",
"865 86 OFFCURVE",
"865 210 CURVE SMOOTH",
"865 306 OFFCURVE",
"802 382 OFFCURVE",
"703 382 CURVE SMOOTH",
"607 382 OFFCURVE",
"549 311 OFFCURVE",
"549 230 CURVE SMOOTH",
"549 150 OFFCURVE",
"606 96 OFFCURVE",
"683 96 CURVE SMOOTH",
"724 96 OFFCURVE",
"745 109 OFFCURVE",
"768 137 CURVE",
"755 146 LINE",
"745 112 OFFCURVE",
"717 81 OFFCURVE",
"646 81 CURVE SMOOTH",
"564 81 OFFCURVE",
"509 135 OFFCURVE",
"509 231 CURVE SMOOTH",
"509 246 LINE",
"367 246 LINE",
"367 210 LINE SMOOTH",
"367 150 OFFCURVE",
"348 106 OFFCURVE",
"298 106 CURVE SMOOTH",
"245 106 OFFCURVE",
"223 158 OFFCURVE",
"223 216 CURVE SMOOTH",
"223 331 OFFCURVE",
"301 460 OFFCURVE",
"477 460 CURVE SMOOTH",
"546 460 OFFCURVE",
"624 442 OFFCURVE",
"699 408 CURVE",
"699 534 LINE",
"614 562 OFFCURVE",
"546 572 OFFCURVE",
"471 572 CURVE SMOOTH",
"265 572 OFFCURVE",
"81 440 OFFCURVE",
"81 216 CURVE SMOOTH",
"81 93 OFFCURVE",
"154 -10 OFFCURVE",
"285 -10 CURVE SMOOTH"
);
},
{
closed = 1;
nodes = (
"897 290 LINE",
"897 387 LINE",
"20 387 LINE",
"20 290 LINE"
);
},
{
closed = 1;
nodes = (
"668 176 OFFCURVE",
"647 200 OFFCURVE",
"647 233 CURVE SMOOTH",
"647 260 OFFCURVE",
"666 290 OFFCURVE",
"703 290 CURVE SMOOTH",
"738 290 OFFCURVE",
"758 262 OFFCURVE",
"758 233 CURVE SMOOTH",
"758 203 OFFCURVE",
"738 176 OFFCURVE",
"703 176 CURVE SMOOTH"
);
},
{
closed = 1;
nodes = (
"524 545 LINE",
"529 681 LINE",
"403 681 LINE",
"408 545 LINE"
);
}
);
width = 917;
},
{
layerId = "D4CB3B6C-5708-466F-BC9B-F67484F28429";
name = Light;
paths = (
{
closed = 1;
nodes = (
"343 -9 OFFCURVE",
"390 40 OFFCURVE",
"398 101 CURVE",
"409 40 OFFCURVE",
"469 -9 OFFCURVE",
"557 -9 CURVE SMOOTH",
"672 -9 OFFCURVE",
"738 85 OFFCURVE",
"738 200 CURVE SMOOTH",
"738 279 OFFCURVE",
"691 350 OFFCURVE",
"611 350 CURVE SMOOTH",
"537 350 OFFCURVE",
"488 289 OFFCURVE",
"488 224 CURVE SMOOTH",
"488 159 OFFCURVE",
"538 109 OFFCURVE",
"605 109 CURVE SMOOTH",
"652 109 OFFCURVE",
"693 138 OFFCURVE",
"700 184 CURVE",
"684 182 LINE",
"683 106 OFFCURVE",
"632 38 OFFCURVE",
"558 38 CURVE SMOOTH",
"476 38 OFFCURVE",
"427 99 OFFCURVE",
"427 175 CURVE SMOOTH",
"427 209 LINE",
"366 209 LINE",
"366 165 LINE SMOOTH",
"366 93 OFFCURVE",
"329 43 OFFCURVE",
"267 43 CURVE SMOOTH",
"196 43 OFFCURVE",
"147 99 OFFCURVE",
"147 204 CURVE SMOOTH",
"147 335 OFFCURVE",
"243 493 OFFCURVE",
"417 493 CURVE SMOOTH",
"491 493 OFFCURVE",
"561 470 OFFCURVE",
"633 426 CURVE",
"633 490 LINE",
"567 524 OFFCURVE",
"500 545 OFFCURVE",
"419 545 CURVE SMOOTH",
"206 545 OFFCURVE",
"84 370 OFFCURVE",
"84 206 CURVE SMOOTH",
"84 68 OFFCURVE",
"158 -9 OFFCURVE",
"265 -9 CURVE SMOOTH"
);
},
{
closed = 1;
nodes = (
"755 300 LINE",
"755 350 LINE",
"14 350 LINE",
"14 300 LINE"
);
},
{
closed = 1;
nodes = (
"569 158 OFFCURVE",
"545 189 OFFCURVE",
"545 226 CURVE SMOOTH",
"545 265 OFFCURVE",
"568 300 OFFCURVE",
"613 300 CURVE SMOOTH",
"656 300 OFFCURVE",
"680 266 OFFCURVE",
"680 229 CURVE SMOOTH",
"680 193 OFFCURVE",
"654 158 OFFCURVE",
"613 158 CURVE SMOOTH"
);
},
{
closed = 1;
nodes = (
"429 534 LINE",
"432 646 LINE",
"369 646 LINE",
"371 534 LINE"
);
}
);
width = 770;
}
);
leftMetricsKey = tlII;
unicode = 0C09;
},
{
glyphname = tlUU;
lastChange = "2015-09-08 12:47:02 +0000";
layers = (
{
background = {
paths = (
{
closed = 1;
nodes = (
"1162 44 OFFCURVE",
"1228 117 OFFCURVE",
"1228 199 CURVE SMOOTH",
"1228 329 OFFCURVE",
"1105 372 OFFCURVE",
"968 372 CURVE SMOOTH",
"22 372 LINE",
"22 270 LINE",
"973 270 LINE SMOOTH",
"1065 270 OFFCURVE",
"1106 253 OFFCURVE",
"1106 202 CURVE SMOOTH",
"1106 178 OFFCURVE",
"1091 154 OFFCURVE",
"1060 154 CURVE SMOOTH",
"1035 154 OFFCURVE",
"1017 174 OFFCURVE",
"1017 198 CURVE SMOOTH",
"1017 285 OFFCURVE",
"1213 319 OFFCURVE",
"1213 447 CURVE SMOOTH",
"1213 532 OFFCURVE",
"1146 585 OFFCURVE",
"1043 585 CURVE SMOOTH",
"1002 585 OFFCURVE",
"959 578 OFFCURVE",
"922 562 CURVE",
"922 439 LINE",
"952 454 OFFCURVE",
"991 467 OFFCURVE",
"1020 467 CURVE SMOOTH",
"1059 467 OFFCURVE",
"1078 454 OFFCURVE",
"1078 431 CURVE SMOOTH",
"1078 359 OFFCURVE",
"899 335 OFFCURVE",
"899 188 CURVE SMOOTH",
"899 109 OFFCURVE",
"962 44 OFFCURVE",
"1059 44 CURVE SMOOTH"
);
},
{
closed = 1;
nodes = (
"371 -10 OFFCURVE",
"429 36 OFFCURVE",
"438 114 CURVE",
"448 36 OFFCURVE",
"524 -10 OFFCURVE",
"641 -10 CURVE SMOOTH",
"776 -10 OFFCURVE",
"855 68 OFFCURVE",
"855 167 CURVE SMOOTH",
"855 250 OFFCURVE",
"792 322 OFFCURVE",
"690 322 CURVE SMOOTH",
"597 322 OFFCURVE",
"539 253 OFFCURVE",
"539 180 CURVE SMOOTH",
"539 124 OFFCURVE",
"567 76 OFFCURVE",
"631 56 CURVE",
"625 76 LINE",
"543 76 OFFCURVE",
"509 121 OFFCURVE",
"509 190 CURVE SMOOTH",
"509 206 LINE",
"367 206 LINE",
"367 190 LINE SMOOTH",
"367 135 OFFCURVE",
"348 106 OFFCURVE",
"298 106 CURVE SMOOTH",
"245 106 OFFCURVE",
"223 158 OFFCURVE",
"223 216 CURVE SMOOTH",
"223 331 OFFCURVE",
"301 464 OFFCURVE",
"477 464 CURVE SMOOTH",
"557 464 OFFCURVE",
"642 441 OFFCURVE",
"709 404 CURVE",
"709 530 LINE",
"642 561 OFFCURVE",
"560 576 OFFCURVE",
"471 576 CURVE SMOOTH",
"265 576 OFFCURVE",
"81 440 OFFCURVE",
"81 225 CURVE SMOOTH",
"81 96 OFFCURVE",
"150 -10 OFFCURVE",
"285 -10 CURVE SMOOTH"
);
},
{
closed = 1;
nodes = (
"657 109 OFFCURVE",
"637 135 OFFCURVE",
"637 166 CURVE SMOOTH",
"637 193 OFFCURVE",
"656 223 OFFCURVE",
"693 223 CURVE SMOOTH",
"728 223 OFFCURVE",
"748 195 OFFCURVE",
"748 166 CURVE SMOOTH",
"748 137 OFFCURVE",
"728 109 OFFCURVE",
"693 109 CURVE SMOOTH"
);
},
{
closed = 1;
nodes = (
"451 545 LINE",
"451 681 LINE",
"325 681 LINE",
"325 545 LINE"
);
},
{
closed = 1;
nodes = (
"641 545 LINE",
"641 681 LINE",
"515 681 LINE",
"515 545 LINE"
);
}
);
};
layerId = "62C1AEDA-2B35-4B7D-84F0-C5D6ED04B717";
name = Bold;
paths = (
{
closed = 1;
nodes = (
"1162 64 OFFCURVE",
"1228 137 OFFCURVE",
"1228 219 CURVE SMOOTH",
"1228 349 OFFCURVE",
"1105 387 OFFCURVE",
"968 387 CURVE",
"20 387 LINE",
"20 290 LINE",
"973 290 LINE",
"1065 290 OFFCURVE",
"1106 273 OFFCURVE",
"1106 222 CURVE SMOOTH",
"1106 198 OFFCURVE",
"1091 174 OFFCURVE",
"1060 174 CURVE SMOOTH",
"1035 174 OFFCURVE",
"1017 194 OFFCURVE",
"1017 218 CURVE SMOOTH",
"1017 305 OFFCURVE",
"1213 329 OFFCURVE",
"1213 457 CURVE SMOOTH",
"1213 542 OFFCURVE",
"1146 595 OFFCURVE",
"1043 595 CURVE SMOOTH",
"1002 595 OFFCURVE",
"959 588 OFFCURVE",
"922 572 CURVE",
"922 449 LINE",
"952 464 OFFCURVE",
"991 477 OFFCURVE",
"1020 477 CURVE SMOOTH",
"1059 477 OFFCURVE",
"1078 464 OFFCURVE",
"1078 441 CURVE SMOOTH",
"1078 369 OFFCURVE",
"899 355 OFFCURVE",
"899 208 CURVE SMOOTH",
"899 129 OFFCURVE",
"962 64 OFFCURVE",
"1059 64 CURVE SMOOTH"
);
},
{
closed = 1;
nodes = (
"371 -10 OFFCURVE",
"429 36 OFFCURVE",
"438 114 CURVE",
"458 34 OFFCURVE",
"544 -10 OFFCURVE",
"641 -10 CURVE SMOOTH",
"787 -10 OFFCURVE",
"865 86 OFFCURVE",
"865 210 CURVE SMOOTH",
"865 306 OFFCURVE",
"802 382 OFFCURVE",
"703 382 CURVE SMOOTH",
"607 382 OFFCURVE",
"549 311 OFFCURVE",
"549 230 CURVE SMOOTH",
"549 150 OFFCURVE",
"606 96 OFFCURVE",
"683 96 CURVE SMOOTH",
"724 96 OFFCURVE",
"745 109 OFFCURVE",
"768 137 CURVE",
"755 146 LINE",
"745 112 OFFCURVE",
"717 81 OFFCURVE",
"646 81 CURVE SMOOTH",
"564 81 OFFCURVE",
"509 135 OFFCURVE",
"509 231 CURVE SMOOTH",
"509 246 LINE",
"367 246 LINE",
"367 210 LINE SMOOTH",
"367 150 OFFCURVE",
"348 106 OFFCURVE",
"298 106 CURVE SMOOTH",
"245 106 OFFCURVE",
"223 158 OFFCURVE",
"223 216 CURVE SMOOTH",
"223 331 OFFCURVE",
"301 460 OFFCURVE",
"477 460 CURVE SMOOTH",
"546 460 OFFCURVE",
"624 442 OFFCURVE",
"699 408 CURVE",
"699 534 LINE",
"614 562 OFFCURVE",
"546 572 OFFCURVE",
"471 572 CURVE SMOOTH",
"265 572 OFFCURVE",
"81 440 OFFCURVE",
"81 216 CURVE SMOOTH",
"81 93 OFFCURVE",
"154 -10 OFFCURVE",
"285 -10 CURVE SMOOTH"
);
},
{
closed = 1;
nodes = (
"668 176 OFFCURVE",
"647 200 OFFCURVE",
"647 233 CURVE SMOOTH",
"647 260 OFFCURVE",
"666 290 OFFCURVE",
"703 290 CURVE SMOOTH",
"738 290 OFFCURVE",
"758 262 OFFCURVE",
"758 233 CURVE SMOOTH",
"758 203 OFFCURVE",
"738 176 OFFCURVE",
"703 176 CURVE SMOOTH"
);
},
{
closed = 1;
nodes = (
"446 545 LINE",
"451 681 LINE",
"325 681 LINE",
"330 545 LINE"
);
},
{
closed = 1;
nodes = (
"636 545 LINE",
"641 681 LINE",
"515 681 LINE",
"520 545 LINE"
);
}
);
width = 1258;
},
{
layerId = "D4CB3B6C-5708-466F-BC9B-F67484F28429";
name = Light;
paths = (
{
closed = 1;
nodes = (
"975 81 OFFCURVE",
"1031 131 OFFCURVE",
"1031 206 CURVE SMOOTH",
"1031 296 OFFCURVE",
"951 350 OFFCURVE",
"811 350 CURVE",
"14 350 LINE",
"14 300 LINE",
"816 300 LINE",
"924 300 OFFCURVE",
"970 263 OFFCURVE",
"970 200 CURVE SMOOTH",
"970 162 OFFCURVE",
"943 133 OFFCURVE",
"899 133 CURVE SMOOTH",
"859 133 OFFCURVE",
"832 156 OFFCURVE",
"832 196 CURVE SMOOTH",
"832 299 OFFCURVE",
"1012 331 OFFCURVE",
"1012 445 CURVE SMOOTH",
"1012 507 OFFCURVE",
"964 549 OFFCURVE",
"885 549 CURVE SMOOTH",
"846 549 OFFCURVE",
"814 540 OFFCURVE",
"781 525 CURVE",
"781 470 LINE",
"810 486 OFFCURVE",
"842 497 OFFCURVE",
"877 497 CURVE SMOOTH",
"924 497 OFFCURVE",
"949 480 OFFCURVE",
"949 439 CURVE SMOOTH",
"949 358 OFFCURVE",
"772 317 OFFCURVE",
"772 196 CURVE SMOOTH",
"772 125 OFFCURVE",
"823 81 OFFCURVE",
"898 81 CURVE SMOOTH"
);
},
{
closed = 1;
nodes = (
"343 -9 OFFCURVE",
"390 40 OFFCURVE",
"398 101 CURVE",
"409 40 OFFCURVE",
"469 -9 OFFCURVE",
"557 -9 CURVE SMOOTH",
"672 -9 OFFCURVE",
"738 85 OFFCURVE",
"738 200 CURVE SMOOTH",
"738 279 OFFCURVE",
"691 350 OFFCURVE",
"611 350 CURVE SMOOTH",
"537 350 OFFCURVE",
"488 289 OFFCURVE",
"488 224 CURVE SMOOTH",
"488 159 OFFCURVE",
"538 109 OFFCURVE",
"605 109 CURVE SMOOTH",
"652 109 OFFCURVE",
"693 138 OFFCURVE",
"700 184 CURVE",
"684 182 LINE",
"683 106 OFFCURVE",
"632 38 OFFCURVE",
"558 38 CURVE SMOOTH",
"476 38 OFFCURVE",
"427 99 OFFCURVE",
"427 175 CURVE SMOOTH",
"427 209 LINE",
"366 209 LINE",
"366 165 LINE SMOOTH",
"366 93 OFFCURVE",
"329 43 OFFCURVE",
"267 43 CURVE SMOOTH",
"196 43 OFFCURVE",
"147 99 OFFCURVE",
"147 204 CURVE SMOOTH",
"147 335 OFFCURVE",
"243 493 OFFCURVE",
"417 493 CURVE SMOOTH",
"491 493 OFFCURVE",
"561 470 OFFCURVE",
"633 426 CURVE",
"633 490 LINE",
"567 524 OFFCURVE",
"500 545 OFFCURVE",
"419 545 CURVE SMOOTH",
"206 545 OFFCURVE",
"84 370 OFFCURVE",
"84 206 CURVE SMOOTH",
"84 68 OFFCURVE",
"158 -9 OFFCURVE",
"265 -9 CURVE SMOOTH"
);
},
{
closed = 1;
nodes = (
"569 158 OFFCURVE",
"545 189 OFFCURVE",
"545 226 CURVE SMOOTH",
"545 265 OFFCURVE",
"568 300 OFFCURVE",
"613 300 CURVE SMOOTH",
"656 300 OFFCURVE",
"680 266 OFFCURVE",
"680 229 CURVE SMOOTH",
"680 193 OFFCURVE",
"654 158 OFFCURVE",
"613 158 CURVE SMOOTH"
);
},
{
closed = 1;
nodes = (
"372 525 LINE",
"374 646 LINE",
"311 646 LINE",
"314 525 LINE"
);
},
{
closed = 1;
nodes = (
"497 525 LINE",
"500 646 LINE",
"437 646 LINE",
"440 525 LINE"
);
}
);
width = 1060;
}
);
leftMetricsKey = tlII;
rightMetricsKey = tlII;
unicode = 0C0A;
},
{
glyphname = tlvR;
lastChange = "2015-09-08 12:47:02 +0000";
layers = (
{
background = {
paths = (
{
closed = 1;
nodes = (
"320 -10 OFFCURVE",
"391 32 OFFCURVE",
"410 114 CURVE",
"421 39 OFFCURVE",
"483 -10 OFFCURVE",
"568 -10 CURVE SMOOTH",
"714 -10 OFFCURVE",
"781 115 OFFCURVE",
"781 258 CURVE SMOOTH",
"781 437 OFFCURVE",
"684 583 OFFCURVE",
"518 583 CURVE SMOOTH",
"498 583 OFFCURVE",
"477 580 OFFCURVE",
"456 576 CURVE",
"456 461 LINE",
"468 463 OFFCURVE",
"480 465 OFFCURVE",
"492 465 CURVE SMOOTH",
"593 465 OFFCURVE",
"640 379 OFFCURVE",
"640 256 CURVE SMOOTH",
"640 181 OFFCURVE",
"623 106 OFFCURVE",
"557 106 CURVE SMOOTH",
"509 106 OFFCURVE",
"481 147 OFFCURVE",
"481 210 CURVE SMOOTH",
"481 251 LINE",
"339 251 LINE",
"339 210 LINE SMOOTH",
"339 144 OFFCURVE",
"303 106 OFFCURVE",
"240 106 CURVE SMOOTH",
"206 106 OFFCURVE",
"171 120 OFFCURVE",
"171 160 CURVE SMOOTH",
"171 250 OFFCURVE",
"396 276 OFFCURVE",
"396 427 CURVE SMOOTH",
"396 527 OFFCURVE",
"319 587 OFFCURVE",
"222 587 CURVE SMOOTH",
"105 587 OFFCURVE",
"44 517 OFFCURVE",
"44 430 CURVE SMOOTH",
"44 414 OFFCURVE",
"46 401 OFFCURVE",
"50 384 CURVE",
"182 384 LINE",
"179 396 OFFCURVE",
"177 406 OFFCURVE",
"177 418 CURVE SMOOTH",
"177 447 OFFCURVE",
"190 470 OFFCURVE",
"222 470 CURVE SMOOTH",
"249 470 OFFCURVE",
"265 450 OFFCURVE",
"265 423 CURVE SMOOTH",
"265 334 OFFCURVE",
"30 318 OFFCURVE",
"30 154 CURVE SMOOTH",
"30 53 OFFCURVE",
"109 -10 OFFCURVE",
"226 -10 CURVE SMOOTH"
);
},
{
closed = 1;
nodes = (
"1039 -10 OFFCURVE",
"1109 117 OFFCURVE",
"1109 275 CURVE SMOOTH",
"1109 446 OFFCURVE",
"1038 576 OFFCURVE",
"845 576 CURVE",
"845 461 LINE",
"934 461 OFFCURVE",
"968 372 OFFCURVE",
"968 269 CURVE SMOOTH",
"968 183 OFFCURVE",
"946 106 OFFCURVE",
"874 106 CURVE SMOOTH",
"805 106 OFFCURVE",
"781 184 OFFCURVE",
"781 283 CURVE",
"717 224 LINE",
"717 80 OFFCURVE",
"765 -10 OFFCURVE",
"886 -10 CURVE SMOOTH"
);
},
{
closed = 1;
nodes = (
"1366 -10 OFFCURVE",
"1439 121 OFFCURVE",
"1439 275 CURVE SMOOTH",
"1439 439 OFFCURVE",
"1361 576 OFFCURVE",
"1169 576 CURVE",
"1169 461 LINE",
"1256 461 OFFCURVE",
"1298 372 OFFCURVE",
"1298 269 CURVE SMOOTH",
"1298 183 OFFCURVE",
"1273 106 OFFCURVE",
"1202 106 CURVE SMOOTH",
"1133 106 OFFCURVE",
"1109 184 OFFCURVE",
"1109 283 CURVE",
"1045 224 LINE",
"1045 80 OFFCURVE",
"1093 -10 OFFCURVE",
"1221 -10 CURVE SMOOTH"
);
}
);
};
layerId = "62C1AEDA-2B35-4B7D-84F0-C5D6ED04B717";
name = Bold;
paths = (
{
closed = 1;
nodes = (
"320 -10 OFFCURVE",
"391 32 OFFCURVE",
"410 114 CURVE",
"421 39 OFFCURVE",
"483 -10 OFFCURVE",
"568 -10 CURVE SMOOTH",
"714 -10 OFFCURVE",
"781 115 OFFCURVE",
"781 258 CURVE SMOOTH",
"781 437 OFFCURVE",
"684 583 OFFCURVE",
"518 583 CURVE SMOOTH",
"498 583 OFFCURVE",
"477 580 OFFCURVE",
"456 576 CURVE",
"456 461 LINE",
"468 463 OFFCURVE",
"480 465 OFFCURVE",
"492 465 CURVE SMOOTH",
"593 465 OFFCURVE",
"640 379 OFFCURVE",
"640 256 CURVE SMOOTH",
"640 181 OFFCURVE",
"623 106 OFFCURVE",
"557 106 CURVE SMOOTH",
"509 106 OFFCURVE",
"481 147 OFFCURVE",
"481 210 CURVE SMOOTH",
"481 251 LINE",
"339 251 LINE",
"339 210 LINE SMOOTH",
"339 144 OFFCURVE",
"303 106 OFFCURVE",
"240 106 CURVE SMOOTH",
"206 106 OFFCURVE",
"171 120 OFFCURVE",
"171 160 CURVE SMOOTH",
"171 250 OFFCURVE",
"396 276 OFFCURVE",
"396 427 CURVE SMOOTH",
"396 527 OFFCURVE",
"319 587 OFFCURVE",
"222 587 CURVE SMOOTH",
"105 587 OFFCURVE",
"44 517 OFFCURVE",
"44 430 CURVE SMOOTH",
"44 414 OFFCURVE",
"46 401 OFFCURVE",
"50 384 CURVE",
"182 384 LINE",
"179 396 OFFCURVE",
"177 406 OFFCURVE",
"177 418 CURVE SMOOTH",
"177 447 OFFCURVE",
"190 470 OFFCURVE",
"222 470 CURVE SMOOTH",
"249 470 OFFCURVE",
"265 450 OFFCURVE",
"265 423 CURVE SMOOTH",
"265 334 OFFCURVE",
"30 318 OFFCURVE",
"30 154 CURVE SMOOTH",
"30 53 OFFCURVE",
"109 -10 OFFCURVE",
"226 -10 CURVE SMOOTH"
);
},
{
closed = 1;
nodes = (
"1060 -10 OFFCURVE",
"1140 119 OFFCURVE",
"1140 274 CURVE SMOOTH",
"1140 446 OFFCURVE",
"1062 576 OFFCURVE",
"845 576 CURVE",
"845 461 LINE",
"963 461 OFFCURVE",
"999 370 OFFCURVE",
"999 273 CURVE SMOOTH",
"999 172 OFFCURVE",
"964 106 OFFCURVE",
"889 106 CURVE SMOOTH",
"798 106 OFFCURVE",
"781 198 OFFCURVE",
"781 259 CURVE",
"699 224 LINE",
"703 84 OFFCURVE",
"762 -10 OFFCURVE",
"905 -10 CURVE SMOOTH"
);
},
{
closed = 1;
nodes = (
"1418 -10 OFFCURVE",
"1498 119 OFFCURVE",
"1498 274 CURVE SMOOTH",
"1498 446 OFFCURVE",
"1420 576 OFFCURVE",
"1203 576 CURVE",
"1203 461 LINE",
"1321 461 OFFCURVE",
"1357 370 OFFCURVE",
"1357 273 CURVE SMOOTH",
"1357 172 OFFCURVE",
"1322 106 OFFCURVE",
"1247 106 CURVE SMOOTH",
"1156 106 OFFCURVE",
"1139 198 OFFCURVE",
"1139 259 CURVE",
"1057 224 LINE",
"1061 84 OFFCURVE",
"1120 -10 OFFCURVE",
"1263 -10 CURVE SMOOTH"
);
}
);
width = 1538;
},
{
background = {
paths = (
{
closed = 1;
nodes = (
"274 -9 OFFCURVE",
"329 30 OFFCURVE",
"346 99 CURVE",
"357 30 OFFCURVE",
"408 -9 OFFCURVE",
"484 -9 CURVE",
"597 -9 OFFCURVE",
"666 91 OFFCURVE",
"666 254 CURVE SMOOTH",
"666 420 OFFCURVE",
"586 552 OFFCURVE",
"434 552 CURVE SMOOTH",
"424 552 OFFCURVE",
"413 551 OFFCURVE",
"404 549 CURVE",
"404 492 LINE",
"415 494 OFFCURVE",
"426 495 OFFCURVE",
"436 495 CURVE SMOOTH",
"548 495 OFFCURVE",
"604 394 OFFCURVE",
"604 256 CURVE SMOOTH",
"604 141 OFFCURVE",
"567 43 OFFCURVE",
"483 43 CURVE SMOOTH",
"417 43 OFFCURVE",
"377 94 OFFCURVE",
"377 165 CURVE",
"377 209 LINE",
"315 209 LINE",
"315 165 LINE",
"315 96 OFFCURVE",
"269 43 OFFCURVE",
"197 43 CURVE SMOOTH",
"133 43 OFFCURVE",
"98 79 OFFCURVE",
"98 132 CURVE SMOOTH",
"98 260 OFFCURVE",
"322 276 OFFCURVE",
"322 423 CURVE SMOOTH",
"322 492 OFFCURVE",
"276 557 OFFCURVE",
"189 557 CURVE SMOOTH",
"103 557 OFFCURVE",
"52 500 OFFCURVE",
"52 423 CURVE SMOOTH",
"52 409 OFFCURVE",
"54 394 OFFCURVE",
"58 379 CURVE",
"118 379 LINE",
"115 394 OFFCURVE",
"113 407 OFFCURVE",
"113 420 CURVE SMOOTH",
"113 476 OFFCURVE",
"146 504 OFFCURVE",
"189 504 CURVE SMOOTH",
"235 504 OFFCURVE",
"260 471 OFFCURVE",
"260 422 CURVE SMOOTH",
"260 307 OFFCURVE",
"35 293 OFFCURVE",
"35 132 CURVE SMOOTH",
"35 47 OFFCURVE",
"101 -9 OFFCURVE",
"193 -9 CURVE SMOOTH"
);
},
{
closed = 1;
nodes = (
"893 -9 OFFCURVE",
"959 95 OFFCURVE",
"959 261 CURVE SMOOTH",
"959 412 OFFCURVE",
"898 546 OFFCURVE",
"758 546 CURVE",
"758 491 LINE",
"847 491 OFFCURVE",
"896 382 OFFCURVE",
"896 255 CURVE SMOOTH",
"896 124 OFFCURVE",
"856 43 OFFCURVE",
"783 43 CURVE SMOOTH",
"695 43 OFFCURVE",
"666 143 OFFCURVE",
"666 251 CURVE",
"624 213 LINE",
"624 85 OFFCURVE",
"666 -9 OFFCURVE",
"783 -9 CURVE SMOOTH"
);
},
{
closed = 1;
nodes = (
"1184 -9 OFFCURVE",
"1250 95 OFFCURVE",
"1250 261 CURVE SMOOTH",
"1250 411 OFFCURVE",
"1181 546 OFFCURVE",
"1041 546 CURVE",
"1041 491 LINE",
"1130 491 OFFCURVE",
"1187 390 OFFCURVE",
"1187 255 CURVE SMOOTH",
"1187 124 OFFCURVE",
"1147 43 OFFCURVE",
"1075 43 CURVE SMOOTH",
"987 43 OFFCURVE",
"959 143 OFFCURVE",
"959 251 CURVE",
"917 213 LINE",
"917 85 OFFCURVE",
"958 -9 OFFCURVE",
"1075 -9 CURVE SMOOTH"
);
}
);
};
layerId = "D4CB3B6C-5708-466F-BC9B-F67484F28429";
name = Light;
paths = (
{
closed = 1;
nodes = (
"274 -9 OFFCURVE",
"329 30 OFFCURVE",
"346 99 CURVE",
"357 30 OFFCURVE",
"408 -9 OFFCURVE",
"484 -9 CURVE",
"597 -9 OFFCURVE",
"666 91 OFFCURVE",
"666 254 CURVE SMOOTH",
"666 420 OFFCURVE",
"586 552 OFFCURVE",
"434 552 CURVE SMOOTH",
"424 552 OFFCURVE",
"413 551 OFFCURVE",
"404 549 CURVE",
"404 492 LINE",
"415 494 OFFCURVE",
"426 495 OFFCURVE",
"436 495 CURVE SMOOTH",
"548 495 OFFCURVE",
"604 394 OFFCURVE",
"604 256 CURVE SMOOTH",
"604 141 OFFCURVE",
"567 43 OFFCURVE",
"483 43 CURVE SMOOTH",
"417 43 OFFCURVE",
"377 94 OFFCURVE",
"377 165 CURVE",
"377 209 LINE",
"315 209 LINE",
"315 165 LINE",
"315 96 OFFCURVE",
"269 43 OFFCURVE",
"197 43 CURVE SMOOTH",
"133 43 OFFCURVE",
"98 79 OFFCURVE",
"98 132 CURVE SMOOTH",
"98 260 OFFCURVE",
"322 276 OFFCURVE",
"322 423 CURVE SMOOTH",
"322 492 OFFCURVE",
"276 557 OFFCURVE",
"189 557 CURVE SMOOTH",
"103 557 OFFCURVE",
"52 500 OFFCURVE",
"52 423 CURVE SMOOTH",
"52 409 OFFCURVE",
"54 394 OFFCURVE",
"58 379 CURVE",
"118 379 LINE",
"115 394 OFFCURVE",
"113 407 OFFCURVE",
"113 420 CURVE SMOOTH",
"113 476 OFFCURVE",
"146 504 OFFCURVE",
"189 504 CURVE SMOOTH",
"235 504 OFFCURVE",
"260 471 OFFCURVE",
"260 422 CURVE SMOOTH",
"260 307 OFFCURVE",
"35 293 OFFCURVE",
"35 132 CURVE SMOOTH",
"35 47 OFFCURVE",
"101 -9 OFFCURVE",
"193 -9 CURVE SMOOTH"
);
},
{
closed = 1;
nodes = (
"921 -9 OFFCURVE",
"1008 72 OFFCURVE",
"1008 262 CURVE SMOOTH",
"1008 412 OFFCURVE",
"910 547 OFFCURVE",
"743 547 CURVE",
"743 492 LINE",
"862 492 OFFCURVE",
"946 390 OFFCURVE",
"946 256 CURVE SMOOTH",
"946 114 OFFCURVE",
"882 43 OFFCURVE",
"809 43 CURVE SMOOTH",
"724 43 OFFCURVE",
"666 123 OFFCURVE",
"666 270 CURVE",
"619 269 LINE",
"620 100 OFFCURVE",
"686 -9 OFFCURVE",
"809 -9 CURVE SMOOTH"
);
},
{
closed = 1;
nodes = (
"1263 -9 OFFCURVE",
"1350 72 OFFCURVE",
"1350 262 CURVE SMOOTH",
"1350 412 OFFCURVE",
"1252 547 OFFCURVE",
"1084 547 CURVE",
"1084 492 LINE",
"1203 492 OFFCURVE",
"1288 390 OFFCURVE",
"1288 256 CURVE SMOOTH",
"1288 114 OFFCURVE",
"1223 43 OFFCURVE",
"1151 43 CURVE SMOOTH",
"1066 43 OFFCURVE",
"1008 113 OFFCURVE",
"1008 261 CURVE",
"961 259 LINE",
"961 91 OFFCURVE",
"1028 -9 OFFCURVE",
"1151 -9 CURVE SMOOTH"
);
}
);
width = 1395;
}
);
unicode = 0C0B;
},
{
glyphname = tlvRR;
lastChange = "2015-09-08 12:47:02 +0000";
layers = (
{
background = {
paths = (
{
closed = 1;
nodes = (
"320 -10 OFFCURVE",
"391 32 OFFCURVE",
"410 114 CURVE",
"421 39 OFFCURVE",
"483 -10 OFFCURVE",
"568 -10 CURVE SMOOTH",
"714 -10 OFFCURVE",
"781 115 OFFCURVE",
"781 258 CURVE SMOOTH",
"781 437 OFFCURVE",
"684 583 OFFCURVE",
"518 583 CURVE SMOOTH",
"498 583 OFFCURVE",
"477 580 OFFCURVE",
"456 576 CURVE",
"456 461 LINE",
"468 463 OFFCURVE",
"480 465 OFFCURVE",
"492 465 CURVE SMOOTH",
"593 465 OFFCURVE",
"640 379 OFFCURVE",
"640 256 CURVE SMOOTH",
"640 181 OFFCURVE",
"623 106 OFFCURVE",
"557 106 CURVE SMOOTH",
"509 106 OFFCURVE",
"481 147 OFFCURVE",
"481 210 CURVE SMOOTH",
"481 251 LINE",
"339 251 LINE",
"339 210 LINE SMOOTH",
"339 144 OFFCURVE",
"303 106 OFFCURVE",
"240 106 CURVE SMOOTH",
"206 106 OFFCURVE",
"171 120 OFFCURVE",
"171 160 CURVE SMOOTH",
"171 250 OFFCURVE",
"396 276 OFFCURVE",
"396 427 CURVE SMOOTH",
"396 527 OFFCURVE",
"319 587 OFFCURVE",
"222 587 CURVE SMOOTH",
"105 587 OFFCURVE",
"44 517 OFFCURVE",
"44 430 CURVE SMOOTH",
"44 414 OFFCURVE",
"46 401 OFFCURVE",
"50 384 CURVE",
"182 384 LINE",
"179 396 OFFCURVE",
"177 406 OFFCURVE",
"177 418 CURVE SMOOTH",
"177 447 OFFCURVE",
"190 470 OFFCURVE",
"222 470 CURVE SMOOTH",
"249 470 OFFCURVE",
"265 450 OFFCURVE",
"265 423 CURVE SMOOTH",
"265 334 OFFCURVE",
"30 318 OFFCURVE",
"30 154 CURVE SMOOTH",
"30 53 OFFCURVE",
"109 -10 OFFCURVE",
"226 -10 CURVE SMOOTH"
);
},
{
closed = 1;
nodes = (
"1039 -10 OFFCURVE",
"1109 117 OFFCURVE",
"1109 275 CURVE SMOOTH",
"1109 446 OFFCURVE",
"1038 576 OFFCURVE",
"845 576 CURVE",
"845 461 LINE",
"934 461 OFFCURVE",
"968 372 OFFCURVE",
"968 269 CURVE SMOOTH",
"968 183 OFFCURVE",
"946 106 OFFCURVE",
"874 106 CURVE SMOOTH",
"805 106 OFFCURVE",
"781 184 OFFCURVE",
"781 283 CURVE",
"717 224 LINE",
"717 80 OFFCURVE",
"765 -10 OFFCURVE",
"886 -10 CURVE SMOOTH"
);
},
{
closed = 1;
nodes = (
"1366 -10 OFFCURVE",
"1439 121 OFFCURVE",
"1439 275 CURVE SMOOTH",
"1439 429 OFFCURVE",
"1341 526 OFFCURVE",
"1169 526 CURVE",
"1169 461 LINE",
"1256 461 OFFCURVE",
"1298 372 OFFCURVE",
"1298 269 CURVE SMOOTH",
"1298 183 OFFCURVE",
"1273 106 OFFCURVE",
"1202 106 CURVE SMOOTH",
"1133 106 OFFCURVE",
"1109 184 OFFCURVE",
"1109 283 CURVE",
"1045 224 LINE",
"1045 80 OFFCURVE",
"1093 -10 OFFCURVE",
"1221 -10 CURVE SMOOTH"
);
},
{
closed = 1;
nodes = (
"1756 248 OFFCURVE",
"1820 317 OFFCURVE",
"1820 404 CURVE SMOOTH",
"1820 504 OFFCURVE",
"1750 576 OFFCURVE",
"1607 576 CURVE SMOOTH",
"1169 576 LINE",
"1169 464 LINE",
"1565 464 LINE",
"1603 511 LINE",
"1534 506 OFFCURVE",
"1492 456 OFFCURVE",
"1492 388 CURVE SMOOTH",
"1492 307 OFFCURVE",
"1555 248 OFFCURVE",
"1655 248 CURVE SMOOTH"
);
},
{
closed = 1;
nodes = (
"1627 357 OFFCURVE",
"1609 376 OFFCURVE",
"1609 406 CURVE SMOOTH",
"1609 435 OFFCURVE",
"1625 459 OFFCURVE",
"1654 459 CURVE SMOOTH",
"1684 459 OFFCURVE",
"1700 438 OFFCURVE",
"1700 407 CURVE SMOOTH",
"1700 376 OFFCURVE",
"1682 357 OFFCURVE",
"1655 357 CURVE SMOOTH"
);
}
);
};
layerId = "62C1AEDA-2B35-4B7D-84F0-C5D6ED04B717";
name = Bold;
paths = (
{
closed = 1;
nodes = (
"320 -10 OFFCURVE",
"391 32 OFFCURVE",
"410 114 CURVE",
"421 39 OFFCURVE",
"483 -10 OFFCURVE",
"568 -10 CURVE SMOOTH",
"714 -10 OFFCURVE",
"781 115 OFFCURVE",
"781 258 CURVE SMOOTH",
"781 437 OFFCURVE",
"684 583 OFFCURVE",
"518 583 CURVE SMOOTH",
"498 583 OFFCURVE",
"477 580 OFFCURVE",
"456 576 CURVE",
"456 461 LINE",
"468 463 OFFCURVE",
"480 465 OFFCURVE",
"492 465 CURVE SMOOTH",
"593 465 OFFCURVE",
"640 379 OFFCURVE",
"640 256 CURVE SMOOTH",
"640 181 OFFCURVE",
"623 106 OFFCURVE",
"557 106 CURVE SMOOTH",
"509 106 OFFCURVE",
"481 147 OFFCURVE",
"481 210 CURVE SMOOTH",
"481 251 LINE",
"339 251 LINE",
"339 210 LINE SMOOTH",
"339 144 OFFCURVE",
"303 106 OFFCURVE",
"240 106 CURVE SMOOTH",
"206 106 OFFCURVE",
"171 120 OFFCURVE",
"171 160 CURVE SMOOTH",
"171 250 OFFCURVE",
"396 276 OFFCURVE",
"396 427 CURVE SMOOTH",
"396 527 OFFCURVE",
"319 587 OFFCURVE",
"222 587 CURVE SMOOTH",
"105 587 OFFCURVE",
"44 517 OFFCURVE",
"44 430 CURVE SMOOTH",
"44 414 OFFCURVE",
"46 401 OFFCURVE",
"50 384 CURVE",
"182 384 LINE",
"179 396 OFFCURVE",
"177 406 OFFCURVE",
"177 418 CURVE SMOOTH",
"177 447 OFFCURVE",
"190 470 OFFCURVE",
"222 470 CURVE SMOOTH",
"249 470 OFFCURVE",
"265 450 OFFCURVE",
"265 423 CURVE SMOOTH",
"265 334 OFFCURVE",
"30 318 OFFCURVE",
"30 154 CURVE SMOOTH",
"30 53 OFFCURVE",
"109 -10 OFFCURVE",
"226 -10 CURVE SMOOTH"
);
},
{
closed = 1;
nodes = (
"1060 -10 OFFCURVE",
"1140 119 OFFCURVE",
"1140 274 CURVE SMOOTH",
"1140 446 OFFCURVE",
"1062 576 OFFCURVE",
"845 576 CURVE",
"845 461 LINE",
"963 461 OFFCURVE",
"999 370 OFFCURVE",
"999 273 CURVE SMOOTH",
"999 172 OFFCURVE",
"964 106 OFFCURVE",
"889 106 CURVE SMOOTH",
"798 106 OFFCURVE",
"781 198 OFFCURVE",
"781 259 CURVE",
"699 224 LINE",
"703 84 OFFCURVE",
"762 -10 OFFCURVE",
"905 -10 CURVE SMOOTH"
);
},
{
closed = 1;
nodes = (
"1418 -10 OFFCURVE",
"1498 119 OFFCURVE",
"1498 274 CURVE SMOOTH",
"1498 436 OFFCURVE",
"1420 524 OFFCURVE",
"1203 524 CURVE",
"1203 464 LINE",
"1321 464 OFFCURVE",
"1357 370 OFFCURVE",
"1357 273 CURVE SMOOTH",
"1357 172 OFFCURVE",
"1322 106 OFFCURVE",
"1247 106 CURVE SMOOTH",
"1156 106 OFFCURVE",
"1139 198 OFFCURVE",
"1139 259 CURVE",
"1057 224 LINE",
"1061 84 OFFCURVE",
"1120 -10 OFFCURVE",
"1263 -10 CURVE SMOOTH"
);
},
{
closed = 1;
nodes = (
"1790 248 OFFCURVE",
"1854 317 OFFCURVE",
"1854 404 CURVE SMOOTH",
"1854 504 OFFCURVE",
"1784 576 OFFCURVE",
"1641 576 CURVE SMOOTH",
"1203 576 LINE",
"1203 464 LINE",
"1599 464 LINE",
"1637 511 LINE",
"1568 506 OFFCURVE",
"1526 456 OFFCURVE",
"1526 388 CURVE SMOOTH",
"1526 307 OFFCURVE",
"1589 248 OFFCURVE",
"1689 248 CURVE SMOOTH"
);
},
{
closed = 1;
nodes = (
"1661 357 OFFCURVE",
"1643 376 OFFCURVE",
"1643 406 CURVE SMOOTH",
"1643 435 OFFCURVE",
"1659 459 OFFCURVE",
"1688 459 CURVE SMOOTH",
"1718 459 OFFCURVE",
"1734 438 OFFCURVE",
"1734 407 CURVE SMOOTH",
"1734 376 OFFCURVE",
"1716 357 OFFCURVE",
"1689 357 CURVE SMOOTH"
);
}
);
width = 1864;
},
{
background = {
paths = (
{
closed = 1;
nodes = (
"274 -9 OFFCURVE",
"329 30 OFFCURVE",
"346 99 CURVE",
"357 30 OFFCURVE",
"408 -9 OFFCURVE",
"484 -9 CURVE",
"597 -9 OFFCURVE",
"666 91 OFFCURVE",
"666 254 CURVE SMOOTH",
"666 420 OFFCURVE",
"586 552 OFFCURVE",
"434 552 CURVE SMOOTH",
"424 552 OFFCURVE",
"413 551 OFFCURVE",
"404 549 CURVE",
"404 492 LINE",
"415 494 OFFCURVE",
"426 495 OFFCURVE",
"436 495 CURVE SMOOTH",
"548 495 OFFCURVE",
"604 394 OFFCURVE",
"604 256 CURVE SMOOTH",
"604 141 OFFCURVE",
"567 43 OFFCURVE",
"483 43 CURVE SMOOTH",
"417 43 OFFCURVE",
"377 94 OFFCURVE",
"377 165 CURVE",
"377 209 LINE",
"315 209 LINE",
"315 165 LINE",
"315 96 OFFCURVE",
"269 43 OFFCURVE",
"197 43 CURVE SMOOTH",
"133 43 OFFCURVE",
"98 79 OFFCURVE",
"98 132 CURVE SMOOTH",
"98 260 OFFCURVE",
"322 276 OFFCURVE",
"322 423 CURVE SMOOTH",
"322 492 OFFCURVE",
"276 557 OFFCURVE",
"189 557 CURVE SMOOTH",
"103 557 OFFCURVE",
"52 500 OFFCURVE",
"52 423 CURVE SMOOTH",
"52 409 OFFCURVE",
"54 394 OFFCURVE",
"58 379 CURVE",
"118 379 LINE",
"115 394 OFFCURVE",
"113 407 OFFCURVE",
"113 420 CURVE SMOOTH",
"113 476 OFFCURVE",
"146 504 OFFCURVE",
"189 504 CURVE SMOOTH",
"235 504 OFFCURVE",
"260 471 OFFCURVE",
"260 422 CURVE SMOOTH",
"260 307 OFFCURVE",
"35 293 OFFCURVE",
"35 132 CURVE SMOOTH",
"35 47 OFFCURVE",
"101 -9 OFFCURVE",
"193 -9 CURVE SMOOTH"
);
},
{
closed = 1;
nodes = (
"893 -9 OFFCURVE",
"959 95 OFFCURVE",
"959 261 CURVE SMOOTH",
"959 412 OFFCURVE",
"898 546 OFFCURVE",
"758 546 CURVE",
"758 491 LINE",
"847 491 OFFCURVE",
"896 382 OFFCURVE",
"896 255 CURVE SMOOTH",
"896 124 OFFCURVE",
"856 43 OFFCURVE",
"783 43 CURVE SMOOTH",
"695 43 OFFCURVE",
"666 143 OFFCURVE",
"666 251 CURVE",
"624 213 LINE",
"624 85 OFFCURVE",
"666 -9 OFFCURVE",
"783 -9 CURVE SMOOTH"
);
},
{
closed = 1;
nodes = (
"1184 -9 OFFCURVE",
"1250 95 OFFCURVE",
"1250 261 CURVE SMOOTH",
"1250 411 OFFCURVE",
"1180 525 OFFCURVE",
"1041 525 CURVE",
"1041 491 LINE",
"1130 491 OFFCURVE",
"1187 390 OFFCURVE",
"1187 255 CURVE SMOOTH",
"1187 124 OFFCURVE",
"1147 43 OFFCURVE",
"1075 43 CURVE SMOOTH",
"987 43 OFFCURVE",
"959 143 OFFCURVE",
"959 251 CURVE",
"917 213 LINE",
"917 85 OFFCURVE",
"958 -9 OFFCURVE",
"1075 -9 CURVE SMOOTH"
);
},
{
closed = 1;
nodes = (
"1502 276 OFFCURVE",
"1551 334 OFFCURVE",
"1551 401 CURVE SMOOTH",
"1551 477 OFFCURVE",
"1507 546 OFFCURVE",
"1388 546 CURVE SMOOTH",
"1041 546 LINE",
"1041 492 LINE",
"1379 492 LINE",
"1384 510 LINE",
"1320 503 OFFCURVE",
"1294 450 OFFCURVE",
"1294 394 CURVE SMOOTH",
"1294 326 OFFCURVE",
"1345 276 OFFCURVE",
"1425 276 CURVE SMOOTH"
);
},
{
closed = 1;
nodes = (
"1378 328 OFFCURVE",
"1355 360 OFFCURVE",
"1355 404 CURVE SMOOTH",
"1355 441 OFFCURVE",
"1376 482 OFFCURVE",
"1422 482 CURVE SMOOTH",
"1468 482 OFFCURVE",
"1490 444 OFFCURVE",
"1490 402 CURVE SMOOTH",
"1490 362 OFFCURVE",
"1466 328 OFFCURVE",
"1422 328 CURVE SMOOTH"
);
}
);
};
layerId = "D4CB3B6C-5708-466F-BC9B-F67484F28429";
name = Light;
paths = (
{
closed = 1;
nodes = (
"274 -9 OFFCURVE",
"329 30 OFFCURVE",
"346 99 CURVE",
"357 30 OFFCURVE",
"408 -9 OFFCURVE",
"484 -9 CURVE",
"597 -9 OFFCURVE",
"666 91 OFFCURVE",
"666 254 CURVE SMOOTH",
"666 420 OFFCURVE",
"586 552 OFFCURVE",
"434 552 CURVE SMOOTH",
"424 552 OFFCURVE",
"413 551 OFFCURVE",
"404 549 CURVE",
"404 492 LINE",
"415 494 OFFCURVE",
"426 495 OFFCURVE",
"436 495 CURVE SMOOTH",
"548 495 OFFCURVE",
"604 394 OFFCURVE",
"604 256 CURVE SMOOTH",
"604 141 OFFCURVE",
"567 43 OFFCURVE",
"483 43 CURVE SMOOTH",
"417 43 OFFCURVE",
"377 94 OFFCURVE",
"377 165 CURVE",
"377 209 LINE",
"315 209 LINE",
"315 165 LINE",
"315 96 OFFCURVE",
"269 43 OFFCURVE",
"197 43 CURVE SMOOTH",
"133 43 OFFCURVE",
"98 79 OFFCURVE",
"98 132 CURVE SMOOTH",
"98 260 OFFCURVE",
"322 276 OFFCURVE",
"322 423 CURVE SMOOTH",
"322 492 OFFCURVE",
"276 557 OFFCURVE",
"189 557 CURVE SMOOTH",
"103 557 OFFCURVE",
"52 500 OFFCURVE",
"52 423 CURVE SMOOTH",
"52 409 OFFCURVE",
"54 394 OFFCURVE",
"58 379 CURVE",
"118 379 LINE",
"115 394 OFFCURVE",
"113 407 OFFCURVE",
"113 420 CURVE SMOOTH",
"113 476 OFFCURVE",
"146 504 OFFCURVE",
"189 504 CURVE SMOOTH",
"235 504 OFFCURVE",
"260 471 OFFCURVE",
"260 422 CURVE SMOOTH",
"260 307 OFFCURVE",
"35 293 OFFCURVE",
"35 132 CURVE SMOOTH",
"35 47 OFFCURVE",
"101 -9 OFFCURVE",
"193 -9 CURVE SMOOTH"
);
},
{
closed = 1;
nodes = (
"923 -9 OFFCURVE",
"1010 72 OFFCURVE",
"1010 262 CURVE SMOOTH",
"1010 412 OFFCURVE",
"912 547 OFFCURVE",
"745 547 CURVE",
"745 492 LINE",
"864 492 OFFCURVE",
"948 390 OFFCURVE",
"948 256 CURVE SMOOTH",
"948 114 OFFCURVE",
"884 43 OFFCURVE",
"811 43 CURVE SMOOTH",
"726 43 OFFCURVE",
"668 123 OFFCURVE",
"668 270 CURVE",
"621 269 LINE",
"622 100 OFFCURVE",
"688 -9 OFFCURVE",
"811 -9 CURVE SMOOTH"
);
},
{
closed = 1;
nodes = (
"1265 -9 OFFCURVE",
"1352 72 OFFCURVE",
"1352 262 CURVE SMOOTH",
"1352 402 OFFCURVE",
"1274 531 OFFCURVE",
"1086 531 CURVE",
"1086 492 LINE",
"1205 492 OFFCURVE",
"1290 390 OFFCURVE",
"1290 256 CURVE SMOOTH",
"1290 114 OFFCURVE",
"1225 43 OFFCURVE",
"1153 43 CURVE SMOOTH",
"1068 43 OFFCURVE",
"1010 113 OFFCURVE",
"1010 261 CURVE",
"963 259 LINE",
"963 91 OFFCURVE",
"1030 -9 OFFCURVE",
"1153 -9 CURVE SMOOTH"
);
},
{
closed = 1;
nodes = (
"1597 276 OFFCURVE",
"1646 334 OFFCURVE",
"1646 401 CURVE SMOOTH",
"1646 477 OFFCURVE",
"1602 546 OFFCURVE",
"1483 546 CURVE SMOOTH",
"1086 546 LINE",
"1086 492 LINE",
"1474 492 LINE",
"1479 510 LINE",
"1415 503 OFFCURVE",
"1389 450 OFFCURVE",
"1389 394 CURVE SMOOTH",
"1389 326 OFFCURVE",
"1440 276 OFFCURVE",
"1520 276 CURVE SMOOTH"
);
},
{
closed = 1;
nodes = (
"1473 328 OFFCURVE",
"1450 360 OFFCURVE",
"1450 404 CURVE SMOOTH",
"1450 441 OFFCURVE",
"1471 482 OFFCURVE",
"1517 482 CURVE SMOOTH",
"1563 482 OFFCURVE",
"1585 444 OFFCURVE",
"1585 402 CURVE SMOOTH",
"1585 362 OFFCURVE",
"1561 328 OFFCURVE",
"1517 328 CURVE SMOOTH"
);
}
);
width = 1666;
}
);
leftMetricsKey = tlvR;
unicode = 0C60;
},
{
glyphname = tlvL;
lastChange = "2015-09-08 12:47:02 +0000";
layers = (
{
background = {
paths = (
{
closed = 1;
nodes = (
"902 269 CURVE SMOOTH",
"902 93 OFFCURVE",
"783 0 OFFCURVE",
"637 0 CURVE SMOOTH",
"531 0 OFFCURVE",
"503 30 OFFCURVE",
"503 75 CURVE SMOOTH",
"503 166 OFFCURVE",
"752 180 OFFCURVE",
"752 389 CURVE SMOOTH",
"752 510 OFFCURVE",
"659 580 OFFCURVE",
"552 580 CURVE SMOOTH",
"451 580 OFFCURVE",
"405 516 OFFCURVE",
"389 483 CURVE",
"385 483 LINE",
"371 515 OFFCURVE",
"332 580 OFFCURVE",
"227 580 CURVE SMOOTH",
"105 580 OFFCURVE",
"30 489 OFFCURVE",
"30 388 CURVE SMOOTH",
"30 303 OFFCURVE",
"67 244 OFFCURVE",
"98 215 CURVE",
"225 276 LINE",
"198 298 OFFCURVE",
"176 331 OFFCURVE",
"176 380 CURVE SMOOTH",
"176 417 OFFCURVE",
"205 449 OFFCURVE",
"251 449 CURVE SMOOTH",
"301 449 OFFCURVE",
"320 411 OFFCURVE",
"320 359 CURVE SMOOTH",
"320 312 LINE",
"460 312 LINE",
"460 358 LINE SMOOTH",
"460 417 OFFCURVE",
"489 449 OFFCURVE",
"533 449 CURVE SMOOTH",
"576 449 OFFCURVE",
"604 422 OFFCURVE",
"604 377 CURVE SMOOTH",
"604 253 OFFCURVE",
"356 263 OFFCURVE",
"356 74 CURVE SMOOTH",
"356 -36 OFFCURVE",
"439 -131 OFFCURVE",
"635 -131 CURVE SMOOTH",
"876 -131 OFFCURVE",
"1046 23 OFFCURVE",
"1046 269 CURVE SMOOTH",
"1046 460 OFFCURVE",
"924 575 OFFCURVE",
"789 575 CURVE",
"789 441 LINE",
"850 441 OFFCURVE",
"902 381 OFFCURVE"
);
}
);
};
layerId = "62C1AEDA-2B35-4B7D-84F0-C5D6ED04B717";
name = Bold;
paths = (
{
closed = 1;
nodes = (
"861 -152 OFFCURVE",
"1045 -3 OFFCURVE",
"1045 263 CURVE SMOOTH",
"1045 448 OFFCURVE",
"953 580 OFFCURVE",
"788 580 CURVE",
"788 446 LINE",
"869 446 OFFCURVE",
"903 360 OFFCURVE",
"903 256 CURVE SMOOTH",
"903 100 OFFCURVE",
"805 -42 OFFCURVE",
"662 -42 CURVE SMOOTH",
"567 -42 OFFCURVE",
"499 -7 OFFCURVE",
"499 62 CURVE SMOOTH",
"499 185 OFFCURVE",
"752 178 OFFCURVE",
"752 398 CURVE SMOOTH",
"752 497 OFFCURVE",
"691 587 OFFCURVE",
"557 587 CURVE SMOOTH",
"466 587 OFFCURVE",
"400 531 OFFCURVE",
"392 463 CURVE",
"384 531 OFFCURVE",
"326 587 OFFCURVE",
"223 587 CURVE SMOOTH",
"99 587 OFFCURVE",
"30 498 OFFCURVE",
"30 403 CURVE SMOOTH",
"30 366 OFFCURVE",
"34 333 OFFCURVE",
"51 292 CURVE",
"189 292 LINE",
"173 327 OFFCURVE",
"169 355 OFFCURVE",
"169 383 CURVE SMOOTH",
"169 422 OFFCURVE",
"193 471 OFFCURVE",
"242 471 CURVE SMOOTH",
"299 471 OFFCURVE",
"321 427 OFFCURVE",
"321 377 CURVE SMOOTH",
"321 339 LINE",
"463 339 LINE",
"463 377 LINE SMOOTH",
"463 428 OFFCURVE",
"485 471 OFFCURVE",
"536 471 CURVE SMOOTH",
"590 471 OFFCURVE",
"614 438 OFFCURVE",
"614 396 CURVE SMOOTH",
"614 260 OFFCURVE",
"359 263 OFFCURVE",
"359 69 CURVE SMOOTH",
"359 -71 OFFCURVE",
"497 -152 OFFCURVE",
"658 -152 CURVE SMOOTH"
);
}
);
width = 1085;
},
{
layerId = "D4CB3B6C-5708-466F-BC9B-F67484F28429";
name = Light;
paths = (
{
closed = 1;
nodes = (
"738 -115 OFFCURVE",
"894 23 OFFCURVE",
"894 244 CURVE SMOOTH",
"894 425 OFFCURVE",
"812 546 OFFCURVE",
"684 546 CURVE",
"684 485 LINE",
"792 485 OFFCURVE",
"833 358 OFFCURVE",
"833 244 CURVE SMOOTH",
"833 66 OFFCURVE",
"710 -63 OFFCURVE",
"562 -63 CURVE SMOOTH",
"463 -63 OFFCURVE",
"395 -21 OFFCURVE",
"395 57 CURVE SMOOTH",
"395 208 OFFCURVE",
"648 197 OFFCURVE",
"648 393 CURVE SMOOTH",
"648 480 OFFCURVE",
"586 556 OFFCURVE",
"479 556 CURVE SMOOTH",
"388 556 OFFCURVE",
"335 494 OFFCURVE",
"332 436 CURVE",
"327 494 OFFCURVE",
"281 556 OFFCURVE",
"185 556 CURVE SMOOTH",
"81 556 OFFCURVE",
"20 474 OFFCURVE",
"20 389 CURVE SMOOTH",
"20 356 OFFCURVE",
"26 322 OFFCURVE",
"43 289 CURVE",
"106 289 LINE",
"89 324 OFFCURVE",
"82 355 OFFCURVE",
"82 386 CURVE SMOOTH",
"82 442 OFFCURVE",
"117 503 OFFCURVE",
"186 503 CURVE SMOOTH",
"267 503 OFFCURVE",
"301 440 OFFCURVE",
"301 371 CURVE SMOOTH",
"301 331 LINE",
"362 331 LINE",
"362 371 LINE SMOOTH",
"362 434 OFFCURVE",
"395 503 OFFCURVE",
"478 503 CURVE SMOOTH",
"544 503 OFFCURVE",
"586 456 OFFCURVE",
"586 392 CURVE SMOOTH",
"586 235 OFFCURVE",
"332 240 OFFCURVE",
"332 58 CURVE SMOOTH",
"332 -52 OFFCURVE",
"428 -115 OFFCURVE",
"561 -115 CURVE SMOOTH"
);
}
);
width = 939;
}
);
rightMetricsKey = tlvR;
unicode = 0C0C;
},
{
glyphname = tlvLL;
lastChange = "2015-09-08 12:47:02 +0000";
layers = (
{
background = {
paths = (
{
closed = 1;
nodes = (
"900 -12 OFFCURVE",
"997 95 OFFCURVE",
"997 283 CURVE SMOOTH",
"997 444 OFFCURVE",
"916 534 OFFCURVE",
"745 534 CURVE",
"745 464 LINE",
"826 464 OFFCURVE",
"855 363 OFFCURVE",
"855 275 CURVE SMOOTH",
"855 181 OFFCURVE",
"819 98 OFFCURVE",
"737 98 CURVE SMOOTH",
"673 98 OFFCURVE",
"646 132 OFFCURVE",
"646 186 CURVE SMOOTH",
"646 255 OFFCURVE",
"699 318 OFFCURVE",
"699 408 CURVE SMOOTH",
"699 507 OFFCURVE",
"638 587 OFFCURVE",
"524 587 CURVE SMOOTH",
"433 587 OFFCURVE",
"377 531 OFFCURVE",
"369 463 CURVE",
"361 531 OFFCURVE",
"303 587 OFFCURVE",
"210 587 CURVE SMOOTH",
"96 587 OFFCURVE",
"30 507 OFFCURVE",
"30 420 CURVE SMOOTH",
"30 383 OFFCURVE",
"37 343 OFFCURVE",
"51 312 CURVE",
"189 312 LINE",
"176 337 OFFCURVE",
"169 372 OFFCURVE",
"169 400 CURVE SMOOTH",
"169 439 OFFCURVE",
"190 471 OFFCURVE",
"229 471 CURVE SMOOTH",
"280 471 OFFCURVE",
"298 427 OFFCURVE",
"298 377 CURVE SMOOTH",
"298 349 LINE",
"440 349 LINE",
"440 377 LINE SMOOTH",
"440 428 OFFCURVE",
"457 471 OFFCURVE",
"503 471 CURVE SMOOTH",
"540 471 OFFCURVE",
"561 445 OFFCURVE",
"561 401 CURVE SMOOTH",
"561 320 OFFCURVE",
"506 253 OFFCURVE",
"506 169 CURVE SMOOTH",
"506 45 OFFCURVE",
"597 -12 OFFCURVE",
"724 -12 CURVE SMOOTH"
);
},
{
closed = 1;
nodes = (
"1337 248 OFFCURVE",
"1401 317 OFFCURVE",
"1401 404 CURVE SMOOTH",
"1401 504 OFFCURVE",
"1331 576 OFFCURVE",
"1188 576 CURVE SMOOTH",
"745 576 LINE",
"745 464 LINE",
"1146 464 LINE",
"1184 511 LINE",
"1115 506 OFFCURVE",
"1073 456 OFFCURVE",
"1073 388 CURVE SMOOTH",
"1073 307 OFFCURVE",
"1136 248 OFFCURVE",
"1236 248 CURVE SMOOTH"
);
},
{
closed = 1;
nodes = (
"1208 357 OFFCURVE",
"1190 376 OFFCURVE",
"1190 406 CURVE SMOOTH",
"1190 435 OFFCURVE",
"1206 459 OFFCURVE",
"1235 459 CURVE SMOOTH",
"1265 459 OFFCURVE",
"1281 438 OFFCURVE",
"1281 407 CURVE SMOOTH",
"1281 376 OFFCURVE",
"1263 357 OFFCURVE",
"1236 357 CURVE SMOOTH"
);
}
);
};
layerId = "62C1AEDA-2B35-4B7D-84F0-C5D6ED04B717";
name = Bold;
paths = (
{
closed = 1;
nodes = (
"861 -152 OFFCURVE",
"1045 -3 OFFCURVE",
"1045 263 CURVE SMOOTH",
"1045 428 OFFCURVE",
"958 533 OFFCURVE",
"788 533 CURVE",
"788 464 LINE",
"869 464 OFFCURVE",
"903 360 OFFCURVE",
"903 256 CURVE SMOOTH",
"903 100 OFFCURVE",
"805 -42 OFFCURVE",
"662 -42 CURVE SMOOTH",
"567 -42 OFFCURVE",
"499 -7 OFFCURVE",
"499 62 CURVE SMOOTH",
"499 185 OFFCURVE",
"752 178 OFFCURVE",
"752 398 CURVE SMOOTH",
"752 497 OFFCURVE",
"691 587 OFFCURVE",
"557 587 CURVE SMOOTH",
"466 587 OFFCURVE",
"400 531 OFFCURVE",
"392 463 CURVE",
"384 531 OFFCURVE",
"326 587 OFFCURVE",
"223 587 CURVE SMOOTH",
"99 587 OFFCURVE",
"30 498 OFFCURVE",
"30 403 CURVE SMOOTH",
"30 366 OFFCURVE",
"34 333 OFFCURVE",
"51 292 CURVE",
"189 292 LINE",
"173 327 OFFCURVE",
"169 355 OFFCURVE",
"169 383 CURVE SMOOTH",
"169 422 OFFCURVE",
"193 471 OFFCURVE",
"242 471 CURVE SMOOTH",
"299 471 OFFCURVE",
"321 427 OFFCURVE",
"321 377 CURVE SMOOTH",
"321 339 LINE",
"463 339 LINE",
"463 377 LINE SMOOTH",
"463 428 OFFCURVE",
"485 471 OFFCURVE",
"536 471 CURVE SMOOTH",
"590 471 OFFCURVE",
"614 438 OFFCURVE",
"614 396 CURVE SMOOTH",
"614 260 OFFCURVE",
"359 263 OFFCURVE",
"359 69 CURVE SMOOTH",
"359 -71 OFFCURVE",
"497 -152 OFFCURVE",
"658 -152 CURVE SMOOTH"
);
},
{
closed = 1;
nodes = (
"1380 248 OFFCURVE",
"1444 317 OFFCURVE",
"1444 404 CURVE SMOOTH",
"1444 504 OFFCURVE",
"1374 576 OFFCURVE",
"1231 576 CURVE SMOOTH",
"788 576 LINE",
"788 464 LINE",
"1189 464 LINE",
"1227 511 LINE",
"1158 506 OFFCURVE",
"1116 456 OFFCURVE",
"1116 388 CURVE SMOOTH",
"1116 307 OFFCURVE",
"1179 248 OFFCURVE",
"1279 248 CURVE SMOOTH"
);
},
{
closed = 1;
nodes = (
"1251 357 OFFCURVE",
"1233 376 OFFCURVE",
"1233 406 CURVE SMOOTH",
"1233 435 OFFCURVE",
"1249 459 OFFCURVE",
"1278 459 CURVE SMOOTH",
"1308 459 OFFCURVE",
"1324 438 OFFCURVE",
"1324 407 CURVE SMOOTH",
"1324 376 OFFCURVE",
"1306 357 OFFCURVE",
"1279 357 CURVE SMOOTH"
);
}
);
width = 1454;
},
{
layerId = "D4CB3B6C-5708-466F-BC9B-F67484F28429";
name = Light;
paths = (
{
closed = 1;
nodes = (
"738 -115 OFFCURVE",
"894 23 OFFCURVE",
"894 244 CURVE SMOOTH",
"894 424 OFFCURVE",
"822 525 OFFCURVE",
"684 525 CURVE",
"684 492 LINE",
"792 492 OFFCURVE",
"833 340 OFFCURVE",
"833 244 CURVE SMOOTH",
"833 66 OFFCURVE",
"710 -63 OFFCURVE",
"562 -63 CURVE SMOOTH",
"463 -63 OFFCURVE",
"395 -21 OFFCURVE",
"395 57 CURVE SMOOTH",
"395 208 OFFCURVE",
"648 197 OFFCURVE",
"648 393 CURVE SMOOTH",
"648 480 OFFCURVE",
"586 556 OFFCURVE",
"479 556 CURVE SMOOTH",
"388 556 OFFCURVE",
"335 494 OFFCURVE",
"332 436 CURVE",
"327 494 OFFCURVE",
"281 556 OFFCURVE",
"185 556 CURVE SMOOTH",
"81 556 OFFCURVE",
"20 474 OFFCURVE",
"20 389 CURVE SMOOTH",
"20 356 OFFCURVE",
"26 322 OFFCURVE",
"43 289 CURVE",
"106 289 LINE",
"89 324 OFFCURVE",
"82 355 OFFCURVE",
"82 386 CURVE SMOOTH",
"82 442 OFFCURVE",
"117 503 OFFCURVE",
"186 503 CURVE SMOOTH",
"267 503 OFFCURVE",
"301 440 OFFCURVE",
"301 371 CURVE SMOOTH",
"301 331 LINE",
"362 331 LINE",
"362 371 LINE SMOOTH",
"362 434 OFFCURVE",
"395 503 OFFCURVE",
"478 503 CURVE SMOOTH",
"544 503 OFFCURVE",
"586 456 OFFCURVE",
"586 392 CURVE SMOOTH",
"586 235 OFFCURVE",
"332 240 OFFCURVE",
"332 58 CURVE SMOOTH",
"332 -52 OFFCURVE",
"428 -115 OFFCURVE",
"561 -115 CURVE SMOOTH"
);
},
{
closed = 1;
nodes = (
"1146 276 OFFCURVE",
"1195 334 OFFCURVE",
"1195 402 CURVE SMOOTH",
"1195 477 OFFCURVE",
"1152 546 OFFCURVE",
"1032 546 CURVE SMOOTH",
"684 546 LINE",
"684 492 LINE",
"1024 492 LINE",
"1028 510 LINE",
"964 503 OFFCURVE",
"938 450 OFFCURVE",
"938 394 CURVE SMOOTH",
"938 326 OFFCURVE",
"990 276 OFFCURVE",
"1069 276 CURVE SMOOTH"
);
},
{
closed = 1;
nodes = (
"1022 328 OFFCURVE",
"999 360 OFFCURVE",
"999 404 CURVE SMOOTH",
"999 441 OFFCURVE",
"1020 482 OFFCURVE",
"1067 482 CURVE SMOOTH",
"1112 482 OFFCURVE",
"1135 444 OFFCURVE",
"1135 402 CURVE SMOOTH",
"1135 362 OFFCURVE",
"1110 328 OFFCURVE",
"1067 328 CURVE SMOOTH"
);
}
);
width = 1215;
}
);
leftMetricsKey = tlvL;
rightMetricsKey = tlvRR;
unicode = 0C61;
},
{
glyphname = tlE;
lastChange = "2015-09-08 12:47:02 +0000";
layers = (
{
background = {
paths = (
{
closed = 1;
nodes = (
"289 -11 OFFCURVE",
"347 37 OFFCURVE",
"362 111 CURVE",
"308 142 LINE",
"358 55 OFFCURVE",
"417 -10 OFFCURVE",
"516 -10 CURVE SMOOTH",
"677 -10 OFFCURVE",
"747 121 OFFCURVE",
"747 325 CURVE SMOOTH",
"747 531 OFFCURVE",
"632 704 OFFCURVE",
"449 704 CURVE SMOOTH",
"433 704 OFFCURVE",
"416 702 OFFCURVE",
"399 699 CURVE",
"399 573 LINE",
"406 574 OFFCURVE",
"416 574 OFFCURVE",
"422 574 CURVE SMOOTH",
"553 574 OFFCURVE",
"606 459 OFFCURVE",
"606 325 CURVE SMOOTH",
"606 203 OFFCURVE",
"585 105 OFFCURVE",
"513 105 CURVE SMOOTH",
"420 105 OFFCURVE",
"376 317 OFFCURVE",
"202 317 CURVE SMOOTH",
"95 317 OFFCURVE",
"20 245 OFFCURVE",
"20 148 CURVE SMOOTH",
"20 55 OFFCURVE",
"94 -11 OFFCURVE",
"200 -11 CURVE SMOOTH"
);
},
{
closed = 1;
nodes = (
"178 102 OFFCURVE",
"157 125 OFFCURVE",
"157 153 CURVE SMOOTH",
"157 181 OFFCURVE",
"177 206 OFFCURVE",
"212 206 CURVE SMOOTH",
"248 206 OFFCURVE",
"268 180 OFFCURVE",
"268 154 CURVE SMOOTH",
"268 128 OFFCURVE",
"249 102 OFFCURVE",
"212 102 CURVE SMOOTH"
);
}
);
};
layerId = "62C1AEDA-2B35-4B7D-84F0-C5D6ED04B717";
name = Bold;
paths = (
{
closed = 1;
nodes = (
"289 -11 OFFCURVE",
"347 37 OFFCURVE",
"362 111 CURVE",
"308 142 LINE",
"358 55 OFFCURVE",
"417 -10 OFFCURVE",
"516 -10 CURVE SMOOTH",
"667 -10 OFFCURVE",
"748 106 OFFCURVE",
"748 309 CURVE SMOOTH",
"748 491 OFFCURVE",
"662 704 OFFCURVE",
"419 704 CURVE SMOOTH",
"376 704 OFFCURVE",
"336 698 OFFCURVE",
"300 688 CURVE",
"300 562 LINE",
"328 569 OFFCURVE",
"358 574 OFFCURVE",
"389 574 CURVE SMOOTH",
"533 574 OFFCURVE",
"608 464 OFFCURVE",
"608 299 CURVE SMOOTH",
"608 179 OFFCURVE",
"576 105 OFFCURVE",
"513 105 CURVE SMOOTH",
"420 105 OFFCURVE",
"376 317 OFFCURVE",
"202 317 CURVE SMOOTH",
"95 317 OFFCURVE",
"20 245 OFFCURVE",
"20 148 CURVE SMOOTH",
"20 55 OFFCURVE",
"94 -11 OFFCURVE",
"200 -11 CURVE SMOOTH"
);
},
{
closed = 1;
nodes = (
"178 102 OFFCURVE",
"157 125 OFFCURVE",
"157 153 CURVE SMOOTH",
"157 181 OFFCURVE",
"177 206 OFFCURVE",
"212 206 CURVE SMOOTH",
"248 206 OFFCURVE",
"268 180 OFFCURVE",
"268 154 CURVE SMOOTH",
"268 128 OFFCURVE",
"249 102 OFFCURVE",
"212 102 CURVE SMOOTH"
);
}
);
width = 788;
},
{
background = {
paths = (
{
closed = 1;
nodes = (
"243 -10 OFFCURVE",
"298 50 OFFCURVE",
"298 132 CURVE",
"270 157 LINE",
"305 65 OFFCURVE",
"366 -9 OFFCURVE",
"450 -9 CURVE SMOOTH",
"572 -9 OFFCURVE",
"640 106 OFFCURVE",
"640 299 CURVE SMOOTH",
"640 514 OFFCURVE",
"548 663 OFFCURVE",
"386 663 CURVE SMOOTH",
"360 663 OFFCURVE",
"341 660 OFFCURVE",
"323 655 CURVE",
"323 602 LINE",
"338 606 OFFCURVE",
"362 609 OFFCURVE",
"386 609 CURVE SMOOTH",
"507 609 OFFCURVE",
"578 473 OFFCURVE",
"578 299 CURVE SMOOTH",
"578 138 OFFCURVE",
"532 43 OFFCURVE",
"449 43 CURVE SMOOTH",
"341 43 OFFCURVE",
"322 271 OFFCURVE",
"161 271 CURVE SMOOTH",
"84 271 OFFCURVE",
"20 211 OFFCURVE",
"20 130 CURVE SMOOTH",
"20 46 OFFCURVE",
"78 -10 OFFCURVE",
"163 -10 CURVE SMOOTH"
);
},
{
closed = 1;
nodes = (
"109 40 OFFCURVE",
"79 79 OFFCURVE",
"79 131 CURVE SMOOTH",
"79 180 OFFCURVE",
"112 221 OFFCURVE",
"162 221 CURVE SMOOTH",
"219 221 OFFCURVE",
"250 180 OFFCURVE",
"250 131 CURVE SMOOTH",
"250 80 OFFCURVE",
"218 40 OFFCURVE",
"164 40 CURVE SMOOTH"
);
}
);
};
layerId = "D4CB3B6C-5708-466F-BC9B-F67484F28429";
name = Light;
paths = (
{
closed = 1;
nodes = (
"243 -10 OFFCURVE",
"298 50 OFFCURVE",
"298 132 CURVE",
"270 157 LINE",
"305 65 OFFCURVE",
"366 -9 OFFCURVE",
"450 -9 CURVE SMOOTH",
"568 -9 OFFCURVE",
"640 99 OFFCURVE",
"640 281 CURVE SMOOTH",
"640 506 OFFCURVE",
"528 663 OFFCURVE",
"331 663 CURVE SMOOTH",
"300 663 OFFCURVE",
"281 660 OFFCURVE",
"263 655 CURVE",
"263 602 LINE",
"278 606 OFFCURVE",
"302 609 OFFCURVE",
"331 609 CURVE SMOOTH",
"472 609 OFFCURVE",
"578 473 OFFCURVE",
"578 281 CURVE SMOOTH",
"578 138 OFFCURVE",
"532 43 OFFCURVE",
"449 43 CURVE SMOOTH",
"341 43 OFFCURVE",
"322 271 OFFCURVE",
"161 271 CURVE SMOOTH",
"84 271 OFFCURVE",
"20 211 OFFCURVE",
"20 130 CURVE SMOOTH",
"20 46 OFFCURVE",
"78 -10 OFFCURVE",
"163 -10 CURVE SMOOTH"
);
},
{
closed = 1;
nodes = (
"109 40 OFFCURVE",
"79 79 OFFCURVE",
"79 131 CURVE SMOOTH",
"79 180 OFFCURVE",
"112 221 OFFCURVE",
"162 221 CURVE SMOOTH",
"219 221 OFFCURVE",
"250 180 OFFCURVE",
"250 131 CURVE SMOOTH",
"250 80 OFFCURVE",
"218 40 OFFCURVE",
"164 40 CURVE SMOOTH"
);
}
);
width = 685;
}
);
rightMetricsKey = tlvR;
unicode = 0C0E;
},
{
glyphname = tlEE;
lastChange = "2015-09-08 12:47:02 +0000";
layers = (
{
background = {
paths = (
{
closed = 1;
nodes = (
"289 -11 OFFCURVE",
"347 37 OFFCURVE",
"362 111 CURVE",
"308 142 LINE",
"358 55 OFFCURVE",
"417 -10 OFFCURVE",
"516 -10 CURVE SMOOTH",
"677 -10 OFFCURVE",
"747 121 OFFCURVE",
"747 325 CURVE SMOOTH",
"747 531 OFFCURVE",
"632 704 OFFCURVE",
"449 704 CURVE SMOOTH",
"433 704 OFFCURVE",
"416 702 OFFCURVE",
"399 699 CURVE",
"399 573 LINE",
"406 574 OFFCURVE",
"416 574 OFFCURVE",
"422 574 CURVE SMOOTH",
"553 574 OFFCURVE",
"606 459 OFFCURVE",
"606 325 CURVE SMOOTH",
"606 203 OFFCURVE",
"585 105 OFFCURVE",
"513 105 CURVE SMOOTH",
"420 105 OFFCURVE",
"376 317 OFFCURVE",
"202 317 CURVE SMOOTH",
"95 317 OFFCURVE",
"20 245 OFFCURVE",
"20 148 CURVE SMOOTH",
"20 55 OFFCURVE",
"94 -11 OFFCURVE",
"200 -11 CURVE SMOOTH"
);
},
{
closed = 1;
nodes = (
"178 102 OFFCURVE",
"157 125 OFFCURVE",
"157 153 CURVE SMOOTH",
"157 181 OFFCURVE",
"177 206 OFFCURVE",
"212 206 CURVE SMOOTH",
"248 206 OFFCURVE",
"268 180 OFFCURVE",
"268 154 CURVE SMOOTH",
"268 128 OFFCURVE",
"249 102 OFFCURVE",
"212 102 CURVE SMOOTH"
);
},
{
closed = 1;
nodes = (
"402 545 LINE",
"353 552 OFFCURVE",
"329 591 OFFCURVE",
"329 636 CURVE SMOOTH",
"329 684 OFFCURVE",
"354 725 OFFCURVE",
"402 729 CURVE",
"402 841 LINE",
"284 841 OFFCURVE",
"191 751 OFFCURVE",
"191 633 CURVE SMOOTH",
"191 511 OFFCURVE",
"289 434 OFFCURVE",
"402 433 CURVE"
);
}
);
};
guideLines = (
{
angle = 90;
position = "{412, 429}";
}
);
layerId = "62C1AEDA-2B35-4B7D-84F0-C5D6ED04B717";
name = Bold;
paths = (
{
closed = 1;
nodes = (
"289 -11 OFFCURVE",
"347 37 OFFCURVE",
"362 111 CURVE",
"308 142 LINE",
"358 55 OFFCURVE",
"417 -10 OFFCURVE",
"516 -10 CURVE SMOOTH",
"667 -10 OFFCURVE",
"748 106 OFFCURVE",
"748 309 CURVE SMOOTH",
"748 491 OFFCURVE",
"662 704 OFFCURVE",
"419 704 CURVE SMOOTH",
"376 704 OFFCURVE",
"336 698 OFFCURVE",
"300 688 CURVE",
"300 562 LINE",
"328 569 OFFCURVE",
"358 574 OFFCURVE",
"389 574 CURVE SMOOTH",
"533 574 OFFCURVE",
"608 464 OFFCURVE",
"608 299 CURVE SMOOTH",
"608 179 OFFCURVE",
"576 105 OFFCURVE",
"513 105 CURVE SMOOTH",
"420 105 OFFCURVE",
"376 317 OFFCURVE",
"202 317 CURVE SMOOTH",
"95 317 OFFCURVE",
"20 245 OFFCURVE",
"20 148 CURVE SMOOTH",
"20 55 OFFCURVE",
"94 -11 OFFCURVE",
"200 -11 CURVE SMOOTH"
);
},
{
closed = 1;
nodes = (
"178 102 OFFCURVE",
"157 125 OFFCURVE",
"157 153 CURVE SMOOTH",
"157 181 OFFCURVE",
"177 206 OFFCURVE",
"212 206 CURVE SMOOTH",
"248 206 OFFCURVE",
"268 180 OFFCURVE",
"268 154 CURVE SMOOTH",
"268 128 OFFCURVE",
"249 102 OFFCURVE",
"212 102 CURVE SMOOTH"
);
},
{
closed = 1;
nodes = (
"302 535 LINE",
"253 542 OFFCURVE",
"229 581 OFFCURVE",
"229 626 CURVE SMOOTH",
"229 674 OFFCURVE",
"254 715 OFFCURVE",
"302 719 CURVE",
"302 831 LINE",
"184 831 OFFCURVE",
"91 741 OFFCURVE",
"91 623 CURVE SMOOTH",
"91 501 OFFCURVE",
"189 424 OFFCURVE",
"302 423 CURVE"
);
}
);
width = 788;
},
{
background = {
paths = (
{
closed = 1;
nodes = (
"242 -10 OFFCURVE",
"297 50 OFFCURVE",
"297 132 CURVE",
"269 157 LINE",
"304 65 OFFCURVE",
"365 -9 OFFCURVE",
"449 -9 CURVE SMOOTH",
"571 -9 OFFCURVE",
"639 106 OFFCURVE",
"639 299 CURVE SMOOTH",
"639 514 OFFCURVE",
"540 663 OFFCURVE",
"385 663 CURVE SMOOTH",
"369 663 OFFCURVE",
"355 662 OFFCURVE",
"343 660 CURVE",
"343 606 LINE",
"356 608 OFFCURVE",
"370 609 OFFCURVE",
"385 609 CURVE SMOOTH",
"498 609 OFFCURVE",
"577 473 OFFCURVE",
"577 299 CURVE SMOOTH",
"577 138 OFFCURVE",
"531 43 OFFCURVE",
"448 43 CURVE SMOOTH",
"340 43 OFFCURVE",
"321 271 OFFCURVE",
"160 271 CURVE SMOOTH",
"83 271 OFFCURVE",
"19 211 OFFCURVE",
"19 130 CURVE SMOOTH",
"19 46 OFFCURVE",
"77 -10 OFFCURVE",
"162 -10 CURVE SMOOTH"
);
},
{
closed = 1;
nodes = (
"108 40 OFFCURVE",
"78 79 OFFCURVE",
"78 131 CURVE SMOOTH",
"78 180 OFFCURVE",
"111 221 OFFCURVE",
"161 221 CURVE SMOOTH",
"218 221 OFFCURVE",
"249 180 OFFCURVE",
"249 131 CURVE SMOOTH",
"249 80 OFFCURVE",
"217 40 OFFCURVE",
"163 40 CURVE SMOOTH"
);
},
{
closed = 1;
nodes = (
"351 542 LINE",
"307 543 OFFCURVE",
"279 580 OFFCURVE",
"279 633 CURVE SMOOTH",
"279 685 OFFCURVE",
"307 721 OFFCURVE",
"351 721 CURVE",
"351 770 LINE",
"273 773 OFFCURVE",
"220 714 OFFCURVE",
"220 629 CURVE SMOOTH",
"220 551 OFFCURVE",
"273 494 OFFCURVE",
"351 494 CURVE"
);
}
);
};
layerId = "D4CB3B6C-5708-466F-BC9B-F67484F28429";
name = Light;
paths = (
{
closed = 1;
nodes = (
"243 -10 OFFCURVE",
"298 50 OFFCURVE",
"298 132 CURVE",
"270 157 LINE",
"305 65 OFFCURVE",
"366 -9 OFFCURVE",
"450 -9 CURVE SMOOTH",
"568 -9 OFFCURVE",
"640 99 OFFCURVE",
"640 281 CURVE SMOOTH",
"640 506 OFFCURVE",
"528 663 OFFCURVE",
"331 663 CURVE SMOOTH",
"300 663 OFFCURVE",
"281 660 OFFCURVE",
"263 655 CURVE",
"263 602 LINE",
"278 606 OFFCURVE",
"302 609 OFFCURVE",
"331 609 CURVE SMOOTH",
"472 609 OFFCURVE",
"578 473 OFFCURVE",
"578 281 CURVE SMOOTH",
"578 138 OFFCURVE",
"532 43 OFFCURVE",
"449 43 CURVE SMOOTH",
"341 43 OFFCURVE",
"322 271 OFFCURVE",
"161 271 CURVE SMOOTH",
"84 271 OFFCURVE",
"20 211 OFFCURVE",
"20 130 CURVE SMOOTH",
"20 46 OFFCURVE",
"78 -10 OFFCURVE",
"163 -10 CURVE SMOOTH"
);
},
{
closed = 1;
nodes = (
"109 40 OFFCURVE",
"79 79 OFFCURVE",
"79 131 CURVE SMOOTH",
"79 180 OFFCURVE",
"112 221 OFFCURVE",
"162 221 CURVE SMOOTH",
"219 221 OFFCURVE",
"250 180 OFFCURVE",
"250 131 CURVE SMOOTH",
"250 80 OFFCURVE",
"218 40 OFFCURVE",
"164 40 CURVE SMOOTH"
);
},
{
closed = 1;
nodes = (
"271 542 LINE",
"227 543 OFFCURVE",
"199 580 OFFCURVE",
"199 633 CURVE SMOOTH",
"199 685 OFFCURVE",
"227 721 OFFCURVE",
"271 721 CURVE",
"271 770 LINE",
"193 773 OFFCURVE",
"140 714 OFFCURVE",
"140 629 CURVE SMOOTH",
"140 551 OFFCURVE",
"193 494 OFFCURVE",
"271 494 CURVE"
);
}
);
width = 685;
}
);
leftMetricsKey = tlE;
rightMetricsKey = tlvR;
unicode = 0C0F;
},
{
glyphname = tlAI;
lastChange = "2015-09-08 12:47:02 +0000";
layers = (
{
background = {
paths = (
{
closed = 1;
nodes = (
"299 -11 OFFCURVE",
"357 37 OFFCURVE",
"372 111 CURVE",
"318 142 LINE",
"368 55 OFFCURVE",
"427 -10 OFFCURVE",
"526 -10 CURVE SMOOTH",
"677 -10 OFFCURVE",
"751 112 OFFCURVE",
"751 287 CURVE SMOOTH",
"751 438 OFFCURVE",
"686 586 OFFCURVE",
"518 586 CURVE SMOOTH",
"442 586 OFFCURVE",
"380 541 OFFCURVE",
"367 472 CURVE",
"352 543 OFFCURVE",
"285 585 OFFCURVE",
"195 585 CURVE SMOOTH",
"155 585 OFFCURVE",
"112 576 OFFCURVE",
"84 563 CURVE",
"84 442 LINE",
"114 459 OFFCURVE",
"154 469 OFFCURVE",
"192 469 CURVE SMOOTH",
"259 469 OFFCURVE",
"296 434 OFFCURVE",
"296 374 CURVE SMOOTH",
"296 361 LINE",
"438 361 LINE",
"438 373 LINE SMOOTH",
"438 429 OFFCURVE",
"462 470 OFFCURVE",
"514 470 CURVE SMOOTH",
"588 470 OFFCURVE",
"610 373 OFFCURVE",
"610 287 CURVE SMOOTH",
"610 193 OFFCURVE",
"590 105 OFFCURVE",
"523 105 CURVE SMOOTH",
"430 105 OFFCURVE",
"386 317 OFFCURVE",
"212 317 CURVE SMOOTH",
"105 317 OFFCURVE",
"30 245 OFFCURVE",
"30 148 CURVE SMOOTH",
"30 55 OFFCURVE",
"104 -11 OFFCURVE",
"210 -11 CURVE SMOOTH"
);
},
{
closed = 1;
nodes = (
"188 102 OFFCURVE",
"167 125 OFFCURVE",
"167 153 CURVE SMOOTH",
"167 181 OFFCURVE",
"187 206 OFFCURVE",
"222 206 CURVE SMOOTH",
"258 206 OFFCURVE",
"278 180 OFFCURVE",
"278 154 CURVE SMOOTH",
"278 128 OFFCURVE",
"259 102 OFFCURVE",
"222 102 CURVE SMOOTH"
);
}
);
};
layerId = "62C1AEDA-2B35-4B7D-84F0-C5D6ED04B717";
name = Bold;
paths = (
{
closed = 1;
nodes = (
"299 -11 OFFCURVE",
"357 37 OFFCURVE",
"372 111 CURVE",
"318 142 LINE",
"368 55 OFFCURVE",
"427 -10 OFFCURVE",
"526 -10 CURVE SMOOTH",
"677 -10 OFFCURVE",
"751 112 OFFCURVE",
"751 287 CURVE SMOOTH",
"751 438 OFFCURVE",
"686 586 OFFCURVE",
"518 586 CURVE SMOOTH",
"442 586 OFFCURVE",
"384 541 OFFCURVE",
"371 472 CURVE",
"363 540 OFFCURVE",
"292 587 OFFCURVE",
"205 587 CURVE SMOOTH",
"100 587 OFFCURVE",
"24 514 OFFCURVE",
"24 417 CURVE SMOOTH",
"24 396 OFFCURVE",
"27 375 OFFCURVE",
"36 352 CURVE",
"173 352 LINE",
"166 366 OFFCURVE",
"163 383 OFFCURVE",
"163 398 CURVE SMOOTH",
"163 434 OFFCURVE",
"184 471 OFFCURVE",
"224 471 CURVE SMOOTH",
"275 471 OFFCURVE",
"297 427 OFFCURVE",
"297 377 CURVE SMOOTH",
"297 361 LINE",
"442 361 LINE",
"442 373 LINE SMOOTH",
"442 429 OFFCURVE",
"469 470 OFFCURVE",
"517 470 CURVE SMOOTH",
"586 470 OFFCURVE",
"610 373 OFFCURVE",
"610 287 CURVE SMOOTH",
"610 193 OFFCURVE",
"590 105 OFFCURVE",
"523 105 CURVE SMOOTH",
"430 105 OFFCURVE",
"386 317 OFFCURVE",
"212 317 CURVE SMOOTH",
"105 317 OFFCURVE",
"30 245 OFFCURVE",
"30 148 CURVE SMOOTH",
"30 55 OFFCURVE",
"104 -11 OFFCURVE",
"210 -11 CURVE SMOOTH"
);
},
{
closed = 1;
nodes = (
"188 102 OFFCURVE",
"167 125 OFFCURVE",
"167 153 CURVE SMOOTH",
"167 181 OFFCURVE",
"187 206 OFFCURVE",
"222 206 CURVE SMOOTH",
"258 206 OFFCURVE",
"278 180 OFFCURVE",
"278 154 CURVE SMOOTH",
"278 128 OFFCURVE",
"259 102 OFFCURVE",
"222 102 CURVE SMOOTH"
);
}
);
width = 791;
},
{
layerId = "D4CB3B6C-5708-466F-BC9B-F67484F28429";
name = Light;
paths = (
{
closed = 1;
nodes = (
"248 -10 OFFCURVE",
"302 50 OFFCURVE",
"303 132 CURVE",
"279 152 LINE",
"302 67 OFFCURVE",
"363 -9 OFFCURVE",
"454 -9 CURVE SMOOTH",
"569 -9 OFFCURVE",
"632 97 OFFCURVE",
"632 261 CURVE SMOOTH",
"632 444 OFFCURVE",
"564 556 OFFCURVE",
"448 556 CURVE SMOOTH",
"373 556 OFFCURVE",
"323 507 OFFCURVE",
"314 445 CURVE",
"306 509 OFFCURVE",
"251 556 OFFCURVE",
"177 556 CURVE SMOOTH",
"86 556 OFFCURVE",
"28 486 OFFCURVE",
"28 405 CURVE SMOOTH",
"28 384 OFFCURVE",
"31 359 OFFCURVE",
"39 336 CURVE",
"101 336 LINE",
"93 359 OFFCURVE",
"89 385 OFFCURVE",
"89 407 CURVE SMOOTH",
"89 454 OFFCURVE",
"119 503 OFFCURVE",
"179 503 CURVE SMOOTH",
"241 503 OFFCURVE",
"283 454 OFFCURVE",
"283 381 CURVE",
"283 352 LINE",
"344 352 LINE",
"344 381 LINE",
"344 454 OFFCURVE",
"385 503 OFFCURVE",
"448 503 CURVE SMOOTH",
"525 503 OFFCURVE",
"569 412 OFFCURVE",
"569 261 CURVE SMOOTH",
"569 135 OFFCURVE",
"532 43 OFFCURVE",
"454 43 CURVE SMOOTH",
"333 43 OFFCURVE",
"339 271 OFFCURVE",
"165 271 CURVE SMOOTH",
"88 271 OFFCURVE",
"24 211 OFFCURVE",
"24 130 CURVE SMOOTH",
"24 46 OFFCURVE",
"81 -10 OFFCURVE",
"166 -10 CURVE SMOOTH"
);
},
{
closed = 1;
nodes = (
"113 40 OFFCURVE",
"82 79 OFFCURVE",
"82 131 CURVE SMOOTH",
"82 180 OFFCURVE",
"116 221 OFFCURVE",
"166 221 CURVE SMOOTH",
"223 221 OFFCURVE",
"253 180 OFFCURVE",
"253 131 CURVE SMOOTH",
"253 80 OFFCURVE",
"222 40 OFFCURVE",
"167 40 CURVE SMOOTH"
);
}
);
width = 677;
}
);
rightMetricsKey = tlvR;
unicode = 0C10;
},
{
glyphname = tlO;
lastChange = "2015-09-08 12:47:02 +0000";
layers = (
{
background = {
paths = (
{
closed = 1;
nodes = (
"323 -10 OFFCURVE",
"397 33 OFFCURVE",
"410 114 CURVE",
"421 39 OFFCURVE",
"483 -10 OFFCURVE",
"568 -10 CURVE SMOOTH",
"704 -10 OFFCURVE",
"775 95 OFFCURVE",
"775 215 CURVE SMOOTH",
"775 338 OFFCURVE",
"703 433 OFFCURVE",
"576 433 CURVE SMOOTH",
"554 433 OFFCURVE",
"535 430 OFFCURVE",
"518 425 CURVE",
"518 313 LINE",
"529 316 OFFCURVE",
"540 318 OFFCURVE",
"550 318 CURVE SMOOTH",
"609 318 OFFCURVE",
"633 272 OFFCURVE",
"633 216 CURVE SMOOTH",
"633 153 OFFCURVE",
"612 106 OFFCURVE",
"557 106 CURVE SMOOTH",
"509 106 OFFCURVE",
"481 147 OFFCURVE",
"481 210 CURVE SMOOTH",
"481 251 LINE",
"339 251 LINE",
"339 210 LINE SMOOTH",
"339 144 OFFCURVE",
"303 106 OFFCURVE",
"240 106 CURVE SMOOTH",
"206 106 OFFCURVE",
"171 120 OFFCURVE",
"171 160 CURVE SMOOTH",
"171 250 OFFCURVE",
"396 276 OFFCURVE",
"396 427 CURVE SMOOTH",
"396 527 OFFCURVE",
"319 587 OFFCURVE",
"222 587 CURVE SMOOTH",
"105 587 OFFCURVE",
"44 517 OFFCURVE",
"44 430 CURVE SMOOTH",
"44 414 OFFCURVE",
"46 401 OFFCURVE",
"50 384 CURVE",
"182 384 LINE",
"179 396 OFFCURVE",
"177 406 OFFCURVE",
"177 418 CURVE SMOOTH",
"177 447 OFFCURVE",
"190 470 OFFCURVE",
"222 470 CURVE SMOOTH",
"249 470 OFFCURVE",
"265 450 OFFCURVE",
"265 423 CURVE SMOOTH",
"265 334 OFFCURVE",
"30 318 OFFCURVE",
"30 154 CURVE SMOOTH",
"30 53 OFFCURVE",
"109 -10 OFFCURVE",
"226 -10 CURVE SMOOTH"
);
}
);
};
layerId = "62C1AEDA-2B35-4B7D-84F0-C5D6ED04B717";
name = Bold;
paths = (
{
closed = 1;
nodes = (
"323 -10 OFFCURVE",
"397 33 OFFCURVE",
"410 114 CURVE",
"421 39 OFFCURVE",
"483 -10 OFFCURVE",
"568 -10 CURVE SMOOTH",
"704 -10 OFFCURVE",
"775 95 OFFCURVE",
"775 215 CURVE SMOOTH",
"775 328 OFFCURVE",
"703 423 OFFCURVE",
"576 423 CURVE SMOOTH",
"554 423 OFFCURVE",
"535 420 OFFCURVE",
"518 415 CURVE",
"518 303 LINE",
"529 306 OFFCURVE",
"540 308 OFFCURVE",
"550 308 CURVE SMOOTH",
"609 308 OFFCURVE",
"633 262 OFFCURVE",
"633 207 CURVE SMOOTH",
"633 153 OFFCURVE",
"612 106 OFFCURVE",
"557 106 CURVE SMOOTH",
"509 106 OFFCURVE",
"481 147 OFFCURVE",
"481 210 CURVE SMOOTH",
"481 251 LINE",
"339 251 LINE",
"339 210 LINE SMOOTH",
"339 144 OFFCURVE",
"303 106 OFFCURVE",
"240 106 CURVE SMOOTH",
"206 106 OFFCURVE",
"171 120 OFFCURVE",
"171 160 CURVE SMOOTH",
"171 250 OFFCURVE",
"396 276 OFFCURVE",
"396 427 CURVE SMOOTH",
"396 527 OFFCURVE",
"319 587 OFFCURVE",
"222 587 CURVE SMOOTH",
"105 587 OFFCURVE",
"44 517 OFFCURVE",
"44 430 CURVE SMOOTH",
"44 414 OFFCURVE",
"46 401 OFFCURVE",
"50 384 CURVE",
"182 384 LINE",
"179 396 OFFCURVE",
"177 406 OFFCURVE",
"177 418 CURVE SMOOTH",
"177 447 OFFCURVE",
"190 470 OFFCURVE",
"222 470 CURVE SMOOTH",
"249 470 OFFCURVE",
"265 450 OFFCURVE",
"265 423 CURVE SMOOTH",
"265 334 OFFCURVE",
"30 318 OFFCURVE",
"30 154 CURVE SMOOTH",
"30 53 OFFCURVE",
"109 -10 OFFCURVE",
"226 -10 CURVE SMOOTH"
);
}
);
width = 800;
},
{
layerId = "D4CB3B6C-5708-466F-BC9B-F67484F28429";
name = Light;
paths = (
{
closed = 1;
nodes = (
"274 -9 OFFCURVE",
"330 30 OFFCURVE",
"346 99 CURVE",
"357 30 OFFCURVE",
"408 -9 OFFCURVE",
"490 -9 CURVE SMOOTH",
"591 -9 OFFCURVE",
"656 67 OFFCURVE",
"656 166 CURVE SMOOTH",
"656 276 OFFCURVE",
"592 336 OFFCURVE",
"506 336 CURVE SMOOTH",
"495 336 OFFCURVE",
"484 335 OFFCURVE",
"473 332 CURVE",
"473 275 LINE",
"482 278 OFFCURVE",
"490 279 OFFCURVE",
"501 279 CURVE SMOOTH",
"563 279 OFFCURVE",
"595 230 OFFCURVE",
"595 165 CURVE SMOOTH",
"595 101 OFFCURVE",
"557 43 OFFCURVE",
"490 43 CURVE SMOOTH",
"417 43 OFFCURVE",
"377 94 OFFCURVE",
"377 165 CURVE",
"377 209 LINE",
"315 209 LINE",
"315 165 LINE",
"315 96 OFFCURVE",
"269 43 OFFCURVE",
"197 43 CURVE SMOOTH",
"133 43 OFFCURVE",
"98 79 OFFCURVE",
"98 132 CURVE SMOOTH",
"98 260 OFFCURVE",
"322 276 OFFCURVE",
"322 423 CURVE SMOOTH",
"322 492 OFFCURVE",
"276 557 OFFCURVE",
"189 557 CURVE SMOOTH",
"103 557 OFFCURVE",
"52 500 OFFCURVE",
"52 423 CURVE SMOOTH",
"52 409 OFFCURVE",
"54 394 OFFCURVE",
"58 379 CURVE",
"118 379 LINE",
"115 394 OFFCURVE",
"113 407 OFFCURVE",
"113 420 CURVE SMOOTH",
"113 476 OFFCURVE",
"146 504 OFFCURVE",
"189 504 CURVE SMOOTH",
"235 504 OFFCURVE",
"260 471 OFFCURVE",
"260 422 CURVE SMOOTH",
"260 307 OFFCURVE",
"35 293 OFFCURVE",
"35 132 CURVE SMOOTH",
"35 47 OFFCURVE",
"101 -9 OFFCURVE",
"193 -9 CURVE SMOOTH"
);
}
);
width = 689;
}
);
leftMetricsKey = tlvR;
unicode = 0C12;
},
{
glyphname = tlOO;
lastChange = "2015-09-08 12:47:02 +0000";
layers = (
{
background = {
paths = (
{
closed = 1;
nodes = (
"323 -10 OFFCURVE",
"397 33 OFFCURVE",
"410 114 CURVE",
"421 39 OFFCURVE",
"483 -10 OFFCURVE",
"568 -10 CURVE SMOOTH",
"704 -10 OFFCURVE",
"775 95 OFFCURVE",
"775 215 CURVE SMOOTH",
"775 338 OFFCURVE",
"703 433 OFFCURVE",
"576 433 CURVE SMOOTH",
"554 433 OFFCURVE",
"535 430 OFFCURVE",
"518 425 CURVE",
"518 313 LINE",
"529 316 OFFCURVE",
"540 318 OFFCURVE",
"550 318 CURVE SMOOTH",
"609 318 OFFCURVE",
"633 272 OFFCURVE",
"633 216 CURVE SMOOTH",
"633 153 OFFCURVE",
"612 106 OFFCURVE",
"557 106 CURVE SMOOTH",
"509 106 OFFCURVE",
"481 147 OFFCURVE",
"481 210 CURVE SMOOTH",
"481 251 LINE",
"339 251 LINE",
"339 210 LINE SMOOTH",
"339 144 OFFCURVE",
"303 106 OFFCURVE",
"240 106 CURVE SMOOTH",
"206 106 OFFCURVE",
"171 120 OFFCURVE",
"171 160 CURVE SMOOTH",
"171 250 OFFCURVE",
"396 276 OFFCURVE",
"396 427 CURVE SMOOTH",
"396 527 OFFCURVE",
"319 587 OFFCURVE",
"222 587 CURVE SMOOTH",
"105 587 OFFCURVE",
"44 517 OFFCURVE",
"44 430 CURVE SMOOTH",
"44 414 OFFCURVE",
"46 401 OFFCURVE",
"50 384 CURVE",
"182 384 LINE",
"179 396 OFFCURVE",
"177 406 OFFCURVE",
"177 418 CURVE SMOOTH",
"177 447 OFFCURVE",
"190 470 OFFCURVE",
"222 470 CURVE SMOOTH",
"249 470 OFFCURVE",
"265 450 OFFCURVE",
"265 423 CURVE SMOOTH",
"265 334 OFFCURVE",
"30 318 OFFCURVE",
"30 154 CURVE SMOOTH",
"30 53 OFFCURVE",
"109 -10 OFFCURVE",
"226 -10 CURVE SMOOTH"
);
},
{
closed = 1;
nodes = (
"312 572 OFFCURVE",
"290 610 OFFCURVE",
"290 665 CURVE SMOOTH",
"290 683 OFFCURVE",
"295 706 OFFCURVE",
"303 724 CURVE",
"140 724 LINE",
"137 714 OFFCURVE",
"135 702 OFFCURVE",
"135 692 CURVE SMOOTH",
"135 609 OFFCURVE",
"219 572 OFFCURVE",
"280 553 CURVE",
"353 538 LINE"
);
}
);
};
layerId = "62C1AEDA-2B35-4B7D-84F0-C5D6ED04B717";
name = Bold;
paths = (
{
closed = 1;
nodes = (
"323 -10 OFFCURVE",
"397 33 OFFCURVE",
"410 114 CURVE",
"421 39 OFFCURVE",
"483 -10 OFFCURVE",
"568 -10 CURVE SMOOTH",
"704 -10 OFFCURVE",
"775 95 OFFCURVE",
"775 215 CURVE SMOOTH",
"775 328 OFFCURVE",
"703 423 OFFCURVE",
"576 423 CURVE SMOOTH",
"554 423 OFFCURVE",
"535 420 OFFCURVE",
"518 415 CURVE",
"518 303 LINE",
"529 306 OFFCURVE",
"540 308 OFFCURVE",
"550 308 CURVE SMOOTH",
"609 308 OFFCURVE",
"633 262 OFFCURVE",
"633 207 CURVE SMOOTH",
"633 153 OFFCURVE",
"612 106 OFFCURVE",
"557 106 CURVE SMOOTH",
"509 106 OFFCURVE",
"481 147 OFFCURVE",
"481 210 CURVE SMOOTH",
"481 251 LINE",
"339 251 LINE",
"339 210 LINE SMOOTH",
"339 144 OFFCURVE",
"303 106 OFFCURVE",
"240 106 CURVE SMOOTH",
"206 106 OFFCURVE",
"171 120 OFFCURVE",
"171 160 CURVE SMOOTH",
"171 250 OFFCURVE",
"396 276 OFFCURVE",
"396 427 CURVE SMOOTH",
"396 527 OFFCURVE",
"319 587 OFFCURVE",
"222 587 CURVE SMOOTH",
"105 587 OFFCURVE",
"44 517 OFFCURVE",
"44 430 CURVE SMOOTH",
"44 414 OFFCURVE",
"46 401 OFFCURVE",
"50 384 CURVE",
"182 384 LINE",
"179 396 OFFCURVE",
"177 406 OFFCURVE",
"177 418 CURVE SMOOTH",
"177 447 OFFCURVE",
"190 470 OFFCURVE",
"222 470 CURVE SMOOTH",
"249 470 OFFCURVE",
"265 450 OFFCURVE",
"265 423 CURVE SMOOTH",
"265 334 OFFCURVE",
"30 318 OFFCURVE",
"30 154 CURVE SMOOTH",
"30 53 OFFCURVE",
"109 -10 OFFCURVE",
"226 -10 CURVE SMOOTH"
);
},
{
closed = 1;
nodes = (
"312 572 OFFCURVE",
"290 610 OFFCURVE",
"290 665 CURVE SMOOTH",
"290 683 OFFCURVE",
"295 706 OFFCURVE",
"303 724 CURVE",
"140 724 LINE",
"137 714 OFFCURVE",
"135 702 OFFCURVE",
"135 692 CURVE SMOOTH",
"135 609 OFFCURVE",
"219 572 OFFCURVE",
"280 553 CURVE",
"353 538 LINE"
);
}
);
width = 800;
},
{
layerId = "D4CB3B6C-5708-466F-BC9B-F67484F28429";
name = Light;
paths = (
{
closed = 1;
nodes = (
"274 -9 OFFCURVE",
"330 30 OFFCURVE",
"346 99 CURVE",
"357 30 OFFCURVE",
"408 -9 OFFCURVE",
"490 -9 CURVE SMOOTH",
"591 -9 OFFCURVE",
"656 67 OFFCURVE",
"656 166 CURVE SMOOTH",
"656 276 OFFCURVE",
"592 336 OFFCURVE",
"506 336 CURVE SMOOTH",
"495 336 OFFCURVE",
"484 335 OFFCURVE",
"473 332 CURVE",
"473 275 LINE",
"482 278 OFFCURVE",
"490 279 OFFCURVE",
"501 279 CURVE SMOOTH",
"563 279 OFFCURVE",
"595 230 OFFCURVE",
"595 165 CURVE SMOOTH",
"595 101 OFFCURVE",
"557 43 OFFCURVE",
"490 43 CURVE SMOOTH",
"417 43 OFFCURVE",
"377 94 OFFCURVE",
"377 165 CURVE",
"377 209 LINE",
"315 209 LINE",
"315 165 LINE",
"315 96 OFFCURVE",
"269 43 OFFCURVE",
"197 43 CURVE SMOOTH",
"133 43 OFFCURVE",
"98 79 OFFCURVE",
"98 132 CURVE SMOOTH",
"98 260 OFFCURVE",
"322 276 OFFCURVE",
"322 423 CURVE SMOOTH",
"322 492 OFFCURVE",
"276 557 OFFCURVE",
"189 557 CURVE SMOOTH",
"103 557 OFFCURVE",
"52 500 OFFCURVE",
"52 423 CURVE SMOOTH",
"52 409 OFFCURVE",
"54 394 OFFCURVE",
"58 379 CURVE",
"118 379 LINE",
"115 394 OFFCURVE",
"113 407 OFFCURVE",
"113 420 CURVE SMOOTH",
"113 476 OFFCURVE",
"146 504 OFFCURVE",
"189 504 CURVE SMOOTH",
"235 504 OFFCURVE",
"260 471 OFFCURVE",
"260 422 CURVE SMOOTH",
"260 307 OFFCURVE",
"35 293 OFFCURVE",
"35 132 CURVE SMOOTH",
"35 47 OFFCURVE",
"101 -9 OFFCURVE",
"193 -9 CURVE SMOOTH"
);
},
{
closed = 1;
nodes = (
"238 556 OFFCURVE",
"216 594 OFFCURVE",
"216 629 CURVE SMOOTH",
"216 644 OFFCURVE",
"219 661 OFFCURVE",
"225 677 CURVE",
"162 677 LINE",
"156 664 OFFCURVE",
"153 648 OFFCURVE",
"153 636 CURVE SMOOTH",
"153 592 OFFCURVE",
"184 551 OFFCURVE",
"244 529 CURVE",
"280 525 LINE"
);
}
);
width = 689;
}
);
leftMetricsKey = tlvR;
rightMetricsKey = tlO;
unicode = 0C13;
},
{
glyphname = tlAU;
lastChange = "2015-09-08 12:47:02 +0000";
layers = (
{
background = {
paths = (
{
closed = 1;
nodes = (
"318 -10 OFFCURVE",
"382 33 OFFCURVE",
"395 114 CURVE",
"406 39 OFFCURVE",
"468 -10 OFFCURVE",
"560 -10 CURVE SMOOTH",
"670 -10 OFFCURVE",
"760 55 OFFCURVE",
"760 175 CURVE SMOOTH",
"760 257 OFFCURVE",
"708 330 OFFCURVE",
"599 330 CURVE SMOOTH",
"575 330 OFFCURVE",
"557 328 OFFCURVE",
"539 323 CURVE",
"539 211 LINE",
"548 213 OFFCURVE",
"557 214 OFFCURVE",
"565 214 CURVE SMOOTH",
"602 214 OFFCURVE",
"618 194 OFFCURVE",
"618 163 CURVE SMOOTH",
"618 129 OFFCURVE",
"592 106 OFFCURVE",
"554 106 CURVE SMOOTH",
"492 106 OFFCURVE",
"466 148 OFFCURVE",
"466 210 CURVE SMOOTH",
"466 251 LINE",
"324 251 LINE",
"324 210 LINE SMOOTH",
"324 144 OFFCURVE",
"291 106 OFFCURVE",
"235 106 CURVE SMOOTH",
"201 106 OFFCURVE",
"171 120 OFFCURVE",
"171 160 CURVE SMOOTH",
"171 250 OFFCURVE",
"391 276 OFFCURVE",
"391 427 CURVE SMOOTH",
"391 511 OFFCURVE",
"325 557 OFFCURVE",
"217 557 CURVE SMOOTH",
"100 557 OFFCURVE",
"52 517 OFFCURVE",
"52 430 CURVE SMOOTH",
"52 414 OFFCURVE",
"54 401 OFFCURVE",
"58 384 CURVE",
"180 384 LINE",
"177 396 OFFCURVE",
"175 406 OFFCURVE",
"175 418 CURVE SMOOTH",
"175 447 OFFCURVE",
"189 470 OFFCURVE",
"219 470 CURVE SMOOTH",
"245 470 OFFCURVE",
"260 452 OFFCURVE",
"260 425 CURVE SMOOTH",
"260 334 OFFCURVE",
"30 318 OFFCURVE",
"30 154 CURVE SMOOTH",
"30 53 OFFCURVE",
"104 -10 OFFCURVE",
"221 -10 CURVE SMOOTH"
);
},
{
closed = 1;
nodes = (
"273 484 LINE SMOOTH",
"384 484 OFFCURVE",
"442 534 OFFCURVE",
"442 620 CURVE SMOOTH",
"442 664 LINE",
"310 664 LINE",
"310 646 LINE SMOOTH",
"310 619 OFFCURVE",
"310 585 OFFCURVE",
"259 585 CURVE SMOOTH",
"39 585 LINE",
"39 484 LINE"
);
},
{
closed = 1;
nodes = (
"738 360 OFFCURVE",
"809 450 OFFCURVE",
"809 556 CURVE SMOOTH",
"809 712 OFFCURVE",
"683 773 OFFCURVE",
"554 773 CURVE",
"39 773 LINE",
"39 661 LINE",
"547 661 LINE SMOOTH",
"640 661 OFFCURVE",
"682 616 OFFCURVE",
"682 550 CURVE SMOOTH",
"682 503 OFFCURVE",
"660 466 OFFCURVE",
"618 466 CURVE SMOOTH",
"596 466 OFFCURVE",
"581 476 OFFCURVE",
"581 494 CURVE SMOOTH",
"581 513 OFFCURVE",
"595 523 OFFCURVE",
"611 523 CURVE SMOOTH",
"619 523 OFFCURVE",
"624 522 OFFCURVE",
"628 521 CURVE",
"628 614 LINE",
"616 619 OFFCURVE",
"602 620 OFFCURVE",
"589 620 CURVE SMOOTH",
"521 620 OFFCURVE",
"463 574 OFFCURVE",
"463 498 CURVE SMOOTH",
"463 415 OFFCURVE",
"524 360 OFFCURVE",
"621 360 CURVE SMOOTH"
);
}
);
};
layerId = "62C1AEDA-2B35-4B7D-84F0-C5D6ED04B717";
name = Bold;
paths = (
{
closed = 1;
nodes = (
"318 -10 OFFCURVE",
"382 33 OFFCURVE",
"395 114 CURVE SMOOTH",
"406 39 OFFCURVE",
"468 -10 OFFCURVE",
"560 -10 CURVE",
"670 -10 OFFCURVE",
"760 55 OFFCURVE",
"760 175 CURVE",
"760 257 OFFCURVE",
"708 330 OFFCURVE",
"599 330 CURVE",
"575 330 OFFCURVE",
"557 328 OFFCURVE",
"539 323 CURVE SMOOTH",
"539 211 LINE SMOOTH",
"548 213 OFFCURVE",
"557 214 OFFCURVE",
"565 214 CURVE",
"602 214 OFFCURVE",
"618 194 OFFCURVE",
"618 163 CURVE",
"618 129 OFFCURVE",
"592 106 OFFCURVE",
"554 106 CURVE",
"492 106 OFFCURVE",
"466 148 OFFCURVE",
"466 210 CURVE",
"466 251 LINE SMOOTH",
"324 251 LINE SMOOTH",
"324 210 LINE",
"324 144 OFFCURVE",
"291 106 OFFCURVE",
"235 106 CURVE",
"201 106 OFFCURVE",
"171 120 OFFCURVE",
"171 160 CURVE",
"171 250 OFFCURVE",
"391 276 OFFCURVE",
"391 427 CURVE",
"391 511 OFFCURVE",
"325 557 OFFCURVE",
"217 557 CURVE",
"100 557 OFFCURVE",
"52 517 OFFCURVE",
"52 430 CURVE",
"52 414 OFFCURVE",
"54 401 OFFCURVE",
"58 384 CURVE SMOOTH",
"180 384 LINE SMOOTH",
"177 396 OFFCURVE",
"175 406 OFFCURVE",
"175 418 CURVE",
"175 447 OFFCURVE",
"189 470 OFFCURVE",
"219 470 CURVE",
"245 470 OFFCURVE",
"260 452 OFFCURVE",
"260 425 CURVE",
"260 334 OFFCURVE",
"30 318 OFFCURVE",
"30 154 CURVE",
"30 53 OFFCURVE",
"104 -10 OFFCURVE",
"221 -10 CURVE"
);
},
{
closed = 1;
nodes = (
"264 485 LINE",
"344 485 OFFCURVE",
"424 516 OFFCURVE",
"424 592 CURVE",
"424 653 OFFCURVE",
"381 692 OFFCURVE",
"289 692 CURVE",
"202 692 LINE SMOOTH",
"202 663 LINE SMOOTH",
"247 663 LINE",
"278 663 OFFCURVE",
"294 646 OFFCURVE",
"294 624 CURVE",
"294 601 OFFCURVE",
"278 587 OFFCURVE",
"244 587 CURVE",
"39 587 LINE SMOOTH",
"39 485 LINE SMOOTH"
);
},
{
closed = 1;
nodes = (
"745 447 OFFCURVE",
"809 516 OFFCURVE",
"809 603 CURVE",
"809 703 OFFCURVE",
"729 775 OFFCURVE",
"586 775 CURVE",
"39 775 LINE SMOOTH",
"39 663 LINE SMOOTH",
"554 663 LINE SMOOTH",
"592 710 LINE SMOOTH",
"523 705 OFFCURVE",
"481 655 OFFCURVE",
"481 587 CURVE",
"481 506 OFFCURVE",
"544 447 OFFCURVE",
"644 447 CURVE"
);
},
{
closed = 1;
nodes = (
"616 556 OFFCURVE",
"598 575 OFFCURVE",
"598 605 CURVE",
"598 634 OFFCURVE",
"614 658 OFFCURVE",
"643 658 CURVE",
"673 658 OFFCURVE",
"689 637 OFFCURVE",
"689 606 CURVE",
"689 575 OFFCURVE",
"671 556 OFFCURVE",
"644 556 CURVE"
);
}
);
width = 849;
},
{
layerId = "D4CB3B6C-5708-466F-BC9B-F67484F28429";
name = Light;
paths = (
{
closed = 1;
nodes = (
"273 -9 OFFCURVE",
"331 30 OFFCURVE",
"347 99 CURVE",
"357 30 OFFCURVE",
"409 -9 OFFCURVE",
"494 -9 CURVE SMOOTH",
"595 -9 OFFCURVE",
"661 59 OFFCURVE",
"661 154 CURVE SMOOTH",
"661 246 OFFCURVE",
"601 308 OFFCURVE",
"514 308 CURVE SMOOTH",
"493 308 OFFCURVE",
"477 305 OFFCURVE",
"461 300 CURVE",
"461 243 LINE",
"477 249 OFFCURVE",
"493 252 OFFCURVE",
"512 252 CURVE SMOOTH",
"561 252 OFFCURVE",
"599 218 OFFCURVE",
"599 155 CURVE SMOOTH",
"599 90 OFFCURVE",
"560 43 OFFCURVE",
"494 43 CURVE SMOOTH",
"421 43 OFFCURVE",
"378 94 OFFCURVE",
"378 165 CURVE",
"378 209 LINE",
"317 209 LINE",
"317 165 LINE",
"317 96 OFFCURVE",
"268 43 OFFCURVE",
"197 43 CURVE SMOOTH",
"133 43 OFFCURVE",
"98 79 OFFCURVE",
"98 132 CURVE SMOOTH",
"98 263 OFFCURVE",
"322 265 OFFCURVE",
"322 415 CURVE SMOOTH",
"322 484 OFFCURVE",
"268 537 OFFCURVE",
"189 537 CURVE SMOOTH",
"108 537 OFFCURVE",
"54 489 OFFCURVE",
"54 413 CURVE SMOOTH",
"54 401 OFFCURVE",
"55 388 OFFCURVE",
"58 375 CURVE",
"117 375 LINE",
"114 387 OFFCURVE",
"113 398 OFFCURVE",
"113 409 CURVE SMOOTH",
"113 457 OFFCURVE",
"138 488 OFFCURVE",
"189 488 CURVE SMOOTH",
"235 488 OFFCURVE",
"262 455 OFFCURVE",
"262 414 CURVE SMOOTH",
"262 298 OFFCURVE",
"35 293 OFFCURVE",
"35 132 CURVE SMOOTH",
"35 47 OFFCURVE",
"100 -9 OFFCURVE",
"193 -9 CURVE SMOOTH"
);
},
{
closed = 1;
nodes = (
"240 495 LINE",
"310 495 OFFCURVE",
"356 532 OFFCURVE",
"356 590 CURVE SMOOTH",
"356 643 OFFCURVE",
"312 673 OFFCURVE",
"247 673 CURVE SMOOTH",
"202 673 LINE",
"202 652 LINE",
"220 652 LINE SMOOTH",
"269 652 OFFCURVE",
"293 633 OFFCURVE",
"293 596 CURVE SMOOTH",
"293 567 OFFCURVE",
"272 546 OFFCURVE",
"232 546 CURVE SMOOTH",
"45 546 LINE",
"45 495 LINE"
);
},
{
closed = 1;
nodes = (
"638 436 OFFCURVE",
"688 493 OFFCURVE",
"688 560 CURVE SMOOTH",
"688 637 OFFCURVE",
"643 706 OFFCURVE",
"523 706 CURVE SMOOTH",
"44 706 LINE",
"44 652 LINE",
"515 652 LINE",
"520 670 LINE",
"457 663 OFFCURVE",
"430 610 OFFCURVE",
"430 554 CURVE SMOOTH",
"430 486 OFFCURVE",
"481 436 OFFCURVE",
"561 436 CURVE SMOOTH"
);
},
{
closed = 1;
nodes = (
"514 488 OFFCURVE",
"491 520 OFFCURVE",
"491 563 CURVE SMOOTH",
"491 601 OFFCURVE",
"512 642 OFFCURVE",
"559 642 CURVE SMOOTH",
"604 642 OFFCURVE",
"626 604 OFFCURVE",
"626 561 CURVE SMOOTH",
"626 522 OFFCURVE",
"602 488 OFFCURVE",
"559 488 CURVE SMOOTH"
);
}
);
width = 733;
}
);
leftMetricsKey = tlvR;
rightMetricsKey = tlvR;
unicode = 0C14;
},
{
glyphname = tlmAA;
lastChange = "2015-09-08 12:47:02 +0000";
layers = (
{
background = {
paths = (
{
closed = 1;
nodes = (
"421 310 OFFCURVE",
"481 238 OFFCURVE",
"586 238 CURVE SMOOTH",
"683 238 OFFCURVE",
"755 307 OFFCURVE",
"755 407 CURVE SMOOTH",
"755 508 OFFCURVE",
"678 576 OFFCURVE",
"562 576 CURVE SMOOTH",
"134 576 LINE",
"134 461 LINE",
"442 461 LINE",
"430 444 OFFCURVE",
"421 420 OFFCURVE",
"421 386 CURVE SMOOTH"
);
},
{
closed = 1;
nodes = (
"577 461 LINE SMOOTH",
"618 461 OFFCURVE",
"637 438 OFFCURVE",
"637 407 CURVE SMOOTH",
"637 374 OFFCURVE",
"617 353 OFFCURVE",
"586 353 CURVE SMOOTH",
"555 353 OFFCURVE",
"535 375 OFFCURVE",
"535 407 CURVE SMOOTH",
"535 427 OFFCURVE",
"544 446 OFFCURVE",
"560 461 CURVE"
);
}
);
};
layerId = "62C1AEDA-2B35-4B7D-84F0-C5D6ED04B717";
name = Bold;
paths = (
{
closed = 1;
nodes = (
"307 248 OFFCURVE",
"371 317 OFFCURVE",
"371 404 CURVE SMOOTH",
"371 504 OFFCURVE",
"291 576 OFFCURVE",
"148 576 CURVE SMOOTH",
"-249 576 LINE",
"-249 464 LINE",
"116 464 LINE",
"154 511 LINE",
"85 506 OFFCURVE",
"43 456 OFFCURVE",
"43 388 CURVE SMOOTH",
"43 307 OFFCURVE",
"106 248 OFFCURVE",
"206 248 CURVE SMOOTH"
);
},
{
closed = 1;
nodes = (
"178 357 OFFCURVE",
"160 376 OFFCURVE",
"160 406 CURVE SMOOTH",
"160 435 OFFCURVE",
"176 459 OFFCURVE",
"205 459 CURVE SMOOTH",
"235 459 OFFCURVE",
"251 438 OFFCURVE",
"251 407 CURVE SMOOTH",
"251 376 OFFCURVE",
"233 357 OFFCURVE",
"206 357 CURVE SMOOTH"
);
}
);
width = 600;
},
{
layerId = "D4CB3B6C-5708-466F-BC9B-F67484F28429";
name = Light;
paths = (
{
closed = 1;
nodes = (
"620 276 OFFCURVE",
"668 334 OFFCURVE",
"668 401 CURVE SMOOTH",
"668 477 OFFCURVE",
"624 546 OFFCURVE",
"505 546 CURVE SMOOTH",
"138 546 LINE",
"138 492 LINE",
"497 492 LINE",
"502 510 LINE",
"437 503 OFFCURVE",
"412 450 OFFCURVE",
"412 394 CURVE SMOOTH",
"412 326 OFFCURVE",
"463 276 OFFCURVE",
"542 276 CURVE SMOOTH"
);
},
{
closed = 1;
nodes = (
"495 328 OFFCURVE",
"473 360 OFFCURVE",
"473 404 CURVE SMOOTH",
"473 441 OFFCURVE",
"493 482 OFFCURVE",
"540 482 CURVE SMOOTH",
"586 482 OFFCURVE",
"608 444 OFFCURVE",
"608 402 CURVE SMOOTH",
"608 362 OFFCURVE",
"584 328 OFFCURVE",
"540 328 CURVE SMOOTH"
);
}
);
width = 569;
}
);
unicode = 0C3E;
},
{
glyphname = tlmI;
lastChange = "2015-09-08 12:47:02 +0000";
layers = (
{
background = {
paths = (
{
closed = 1;
nodes = (
"359 471 OFFCURVE",
"464 546 OFFCURVE",
"464 685 CURVE SMOOTH",
"464 789 OFFCURVE",
"396 886 OFFCURVE",
"261 886 CURVE SMOOTH",
"162 886 OFFCURVE",
"95 827 OFFCURVE",
"95 751 CURVE SMOOTH",
"95 673 OFFCURVE",
"147 632 OFFCURVE",
"230 632 CURVE SMOOTH",
"250 632 OFFCURVE",
"269 635 OFFCURVE",
"287 642 CURVE",
"287 721 LINE",
"275 718 OFFCURVE",
"267 717 OFFCURVE",
"256 717 CURVE SMOOTH",
"231 717 OFFCURVE",
"214 726 OFFCURVE",
"214 749 CURVE SMOOTH",
"214 770 OFFCURVE",
"234 784 OFFCURVE",
"263 784 CURVE SMOOTH",
"316 784 OFFCURVE",
"344 742 OFFCURVE",
"344 692 CURVE SMOOTH",
"344 615 OFFCURVE",
"289 583 OFFCURVE",
"223 583 CURVE SMOOTH",
"154 583 OFFCURVE",
"104 598 OFFCURVE",
"40 634 CURVE",
"40 516 LINE",
"95 487 OFFCURVE",
"151 471 OFFCURVE",
"222 471 CURVE SMOOTH"
);
}
);
};
layerId = "62C1AEDA-2B35-4B7D-84F0-C5D6ED04B717";
name = Bold;
paths = (
{
closed = 1;
nodes = (
"273 717 CURVE SMOOTH",
"247 717 OFFCURVE",
"228 733 OFFCURVE",
"228 757 CURVE SMOOTH",
"228 782 OFFCURVE",
"247 798 OFFCURVE",
"273 798 CURVE SMOOTH",
"299 798 OFFCURVE",
"318 780 OFFCURVE",
"318 757 CURVE SMOOTH",
"318 734 OFFCURVE",
"299 717 OFFCURVE"
);
},
{
closed = 1;
nodes = (
"76 614 CURVE",
"76 506 LINE",
"115 484 OFFCURVE",
"165 471 OFFCURVE",
"228 471 CURVE SMOOTH",
"363 471 OFFCURVE",
"460 564 OFFCURVE",
"460 691 CURVE SMOOTH",
"460 798 OFFCURVE",
"394 896 OFFCURVE",
"265 896 CURVE SMOOTH",
"171 896 OFFCURVE",
"110 835 OFFCURVE",
"110 762 CURVE SMOOTH",
"110 679 OFFCURVE",
"174 632 OFFCURVE",
"248 632 CURVE SMOOTH",
"305 632 OFFCURVE",
"348 660 OFFCURVE",
"355 708 CURVE",
"345 729 LINE",
"348 720 OFFCURVE",
"350 701 OFFCURVE",
"350 692 CURVE SMOOTH",
"350 615 OFFCURVE",
"297 576 OFFCURVE",
"229 576 CURVE SMOOTH",
"173 576 OFFCURVE",
"119 592 OFFCURVE"
);
}
);
width = 504;
},
{
background = {
paths = (
{
closed = 1;
nodes = (
"407 652 CURVE SMOOTH",
"407 748 OFFCURVE",
"345 820 OFFCURVE",
"244 820 CURVE SMOOTH",
"165 820 OFFCURVE",
"117 770 OFFCURVE",
"117 711 CURVE SMOOTH",
"117 650 OFFCURVE",
"160 613 OFFCURVE",
"225 613 CURVE SMOOTH",
"246 613 OFFCURVE",
"264 618 OFFCURVE",
"281 626 CURVE",
"281 675 LINE",
"264 669 OFFCURVE",
"249 665 OFFCURVE",
"232 665 CURVE SMOOTH",
"199 665 OFFCURVE",
"178 681 OFFCURVE",
"178 713 CURVE SMOOTH",
"178 743 OFFCURVE",
"201 769 OFFCURVE",
"246 769 CURVE SMOOTH",
"311 769 OFFCURVE",
"346 718 OFFCURVE",
"346 652 CURVE SMOOTH",
"346 570 OFFCURVE",
"286 521 OFFCURVE",
"200 521 CURVE SMOOTH",
"134 521 OFFCURVE",
"81 540 OFFCURVE",
"38 562 CURVE",
"38 505 LINE",
"85 480 OFFCURVE",
"132 467 OFFCURVE",
"199 467 CURVE SMOOTH",
"320 467 OFFCURVE",
"407 550 OFFCURVE"
);
}
);
};
layerId = "D4CB3B6C-5708-466F-BC9B-F67484F28429";
name = Light;
paths = (
{
closed = 1;
nodes = (
"251 672 CURVE SMOOTH",
"214 672 OFFCURVE",
"187 694 OFFCURVE",
"187 727 CURVE SMOOTH",
"187 758 OFFCURVE",
"215 781 OFFCURVE",
"252 781 CURVE SMOOTH",
"296 781 OFFCURVE",
"319 755 OFFCURVE",
"319 726 CURVE SMOOTH",
"319 693 OFFCURVE",
"290 672 OFFCURVE"
);
},
{
closed = 1;
nodes = (
"71 550 CURVE",
"71 497 LINE",
"108 478 OFFCURVE",
"152 467 OFFCURVE",
"200 467 CURVE SMOOTH",
"323 467 OFFCURVE",
"395 562 OFFCURVE",
"395 664 CURVE SMOOTH",
"395 760 OFFCURVE",
"337 832 OFFCURVE",
"244 832 CURVE SMOOTH",
"168 832 OFFCURVE",
"126 783 OFFCURVE",
"126 724 CURVE SMOOTH",
"126 661 OFFCURVE",
"186 621 OFFCURVE",
"243 621 CURVE SMOOTH",
"294 621 OFFCURVE",
"339 645 OFFCURVE",
"352 692 CURVE",
"334 701 LINE",
"337 689 OFFCURVE",
"338 676 OFFCURVE",
"338 664 CURVE SMOOTH",
"338 582 OFFCURVE",
"290 522 OFFCURVE",
"193 522 CURVE SMOOTH",
"151 522 OFFCURVE",
"112 531 OFFCURVE"
);
}
);
width = 444;
}
);
unicode = 0C3F;
},
{
glyphname = tlmII;
lastChange = "2015-09-08 12:47:02 +0000";
layers = (
{
background = {
paths = (
{
closed = 1;
nodes = (
"419 471 OFFCURVE",
"524 546 OFFCURVE",
"524 685 CURVE SMOOTH",
"524 789 OFFCURVE",
"456 886 OFFCURVE",
"321 886 CURVE SMOOTH",
"222 886 OFFCURVE",
"155 827 OFFCURVE",
"155 751 CURVE SMOOTH",
"155 673 OFFCURVE",
"207 632 OFFCURVE",
"290 632 CURVE SMOOTH",
"310 632 OFFCURVE",
"329 635 OFFCURVE",
"347 642 CURVE",
"347 721 LINE",
"335 718 OFFCURVE",
"327 717 OFFCURVE",
"316 717 CURVE SMOOTH",
"291 717 OFFCURVE",
"274 726 OFFCURVE",
"274 749 CURVE SMOOTH",
"274 770 OFFCURVE",
"294 784 OFFCURVE",
"323 784 CURVE SMOOTH",
"376 784 OFFCURVE",
"404 742 OFFCURVE",
"404 692 CURVE SMOOTH",
"404 615 OFFCURVE",
"349 583 OFFCURVE",
"283 583 CURVE SMOOTH",
"214 583 OFFCURVE",
"164 598 OFFCURVE",
"100 634 CURVE",
"100 516 LINE",
"155 487 OFFCURVE",
"211 471 OFFCURVE",
"282 471 CURVE SMOOTH"
);
},
{
closed = 1;
nodes = (
"513 1043 LINE",
"408 1043 LINE",
"328 1043 OFFCURVE",
"281 1000 OFFCURVE",
"281 947 CURVE SMOOTH",
"281 918 OFFCURVE",
"292 885 OFFCURVE",
"328 860 CURVE",
"423 863 LINE",
"404 872 OFFCURVE",
"395 885 OFFCURVE",
"395 899 CURVE SMOOTH",
"395 918 OFFCURVE",
"409 931 OFFCURVE",
"447 931 CURVE",
"513 931 LINE"
);
}
);
};
layerId = "62C1AEDA-2B35-4B7D-84F0-C5D6ED04B717";
name = Bold;
paths = (
{
closed = 1;
nodes = (
"513 1053 LINE",
"408 1053 LINE",
"328 1053 OFFCURVE",
"281 1010 OFFCURVE",
"281 957 CURVE SMOOTH",
"281 928 OFFCURVE",
"292 895 OFFCURVE",
"328 870 CURVE",
"423 873 LINE",
"404 882 OFFCURVE",
"395 895 OFFCURVE",
"395 909 CURVE SMOOTH",
"395 928 OFFCURVE",
"409 941 OFFCURVE",
"447 941 CURVE",
"513 941 LINE"
);
},
{
closed = 1;
nodes = (
"334 717 CURVE SMOOTH",
"308 717 OFFCURVE",
"289 733 OFFCURVE",
"289 757 CURVE SMOOTH",
"289 782 OFFCURVE",
"308 798 OFFCURVE",
"334 798 CURVE SMOOTH",
"360 798 OFFCURVE",
"379 780 OFFCURVE",
"379 757 CURVE SMOOTH",
"379 734 OFFCURVE",
"360 717 OFFCURVE"
);
},
{
closed = 1;
nodes = (
"137 614 CURVE",
"137 506 LINE",
"176 484 OFFCURVE",
"226 471 OFFCURVE",
"289 471 CURVE SMOOTH",
"424 471 OFFCURVE",
"521 564 OFFCURVE",
"521 691 CURVE SMOOTH",
"521 798 OFFCURVE",
"455 896 OFFCURVE",
"326 896 CURVE SMOOTH",
"232 896 OFFCURVE",
"171 835 OFFCURVE",
"171 762 CURVE SMOOTH",
"171 679 OFFCURVE",
"235 632 OFFCURVE",
"309 632 CURVE SMOOTH",
"366 632 OFFCURVE",
"409 660 OFFCURVE",
"416 708 CURVE",
"406 729 LINE",
"409 720 OFFCURVE",
"411 701 OFFCURVE",
"411 692 CURVE SMOOTH",
"411 615 OFFCURVE",
"358 576 OFFCURVE",
"290 576 CURVE SMOOTH",
"234 576 OFFCURVE",
"180 592 OFFCURVE"
);
}
);
width = 600;
},
{
background = {
paths = (
{
closed = 1;
nodes = (
"463 652 CURVE SMOOTH",
"463 748 OFFCURVE",
"402 820 OFFCURVE",
"301 820 CURVE SMOOTH",
"222 820 OFFCURVE",
"174 770 OFFCURVE",
"174 711 CURVE SMOOTH",
"174 650 OFFCURVE",
"217 613 OFFCURVE",
"282 613 CURVE SMOOTH",
"302 613 OFFCURVE",
"320 618 OFFCURVE",
"338 626 CURVE",
"338 675 LINE",
"320 669 OFFCURVE",
"305 665 OFFCURVE",
"288 665 CURVE SMOOTH",
"255 665 OFFCURVE",
"234 681 OFFCURVE",
"234 713 CURVE SMOOTH",
"234 743 OFFCURVE",
"258 769 OFFCURVE",
"302 769 CURVE SMOOTH",
"368 769 OFFCURVE",
"403 718 OFFCURVE",
"403 652 CURVE SMOOTH",
"403 570 OFFCURVE",
"343 521 OFFCURVE",
"257 521 CURVE SMOOTH",
"191 521 OFFCURVE",
"138 540 OFFCURVE",
"94 562 CURVE",
"94 505 LINE",
"142 480 OFFCURVE",
"189 467 OFFCURVE",
"255 467 CURVE SMOOTH",
"377 467 OFFCURVE",
"463 550 OFFCURVE"
);
},
{
closed = 1;
nodes = (
"455 961 LINE",
"378 961 LINE",
"319 961 OFFCURVE",
"288 929 OFFCURVE",
"288 888 CURVE SMOOTH",
"288 858 OFFCURVE",
"303 823 OFFCURVE",
"339 802 CURVE",
"400 790 LINE",
"370 811 OFFCURVE",
"349 840 OFFCURVE",
"349 867 CURVE SMOOTH",
"349 891 OFFCURVE",
"364 909 OFFCURVE",
"399 909 CURVE",
"455 909 LINE"
);
}
);
};
layerId = "D4CB3B6C-5708-466F-BC9B-F67484F28429";
name = Light;
paths = (
{
closed = 1;
nodes = (
"455 961 LINE",
"378 961 LINE",
"319 961 OFFCURVE",
"288 929 OFFCURVE",
"288 888 CURVE SMOOTH",
"288 858 OFFCURVE",
"303 823 OFFCURVE",
"339 802 CURVE",
"398 791 LINE",
"368 820 OFFCURVE",
"349 838 OFFCURVE",
"349 867 CURVE SMOOTH",
"349 891 OFFCURVE",
"364 909 OFFCURVE",
"399 909 CURVE",
"455 909 LINE"
);
},
{
closed = 1;
nodes = (
"301 672 CURVE SMOOTH",
"264 672 OFFCURVE",
"237 694 OFFCURVE",
"237 727 CURVE SMOOTH",
"237 758 OFFCURVE",
"265 781 OFFCURVE",
"302 781 CURVE SMOOTH",
"346 781 OFFCURVE",
"369 755 OFFCURVE",
"369 726 CURVE SMOOTH",
"369 693 OFFCURVE",
"340 672 OFFCURVE"
);
},
{
closed = 1;
nodes = (
"121 550 CURVE",
"121 497 LINE",
"158 478 OFFCURVE",
"202 467 OFFCURVE",
"250 467 CURVE SMOOTH",
"373 467 OFFCURVE",
"445 562 OFFCURVE",
"445 664 CURVE SMOOTH",
"445 760 OFFCURVE",
"387 832 OFFCURVE",
"294 832 CURVE SMOOTH",
"218 832 OFFCURVE",
"176 783 OFFCURVE",
"176 724 CURVE SMOOTH",
"176 661 OFFCURVE",
"236 621 OFFCURVE",
"293 621 CURVE SMOOTH",
"344 621 OFFCURVE",
"389 645 OFFCURVE",
"402 692 CURVE",
"384 701 LINE",
"387 689 OFFCURVE",
"388 676 OFFCURVE",
"388 664 CURVE SMOOTH",
"388 582 OFFCURVE",
"340 522 OFFCURVE",
"243 522 CURVE SMOOTH",
"201 522 OFFCURVE",
"162 531 OFFCURVE"
);
}
);
width = 569;
}
);
unicode = 0C40;
},
{
glyphname = tlmU;
lastChange = "2015-09-08 12:47:02 +0000";
layers = (
{
background = {
paths = (
{
closed = 1;
nodes = (
"-109 193 LINE",
"-109 65 OFFCURVE",
"-55 -10 OFFCURVE",
"70 -10 CURVE SMOOTH",
"228 -10 OFFCURVE",
"301 113 OFFCURVE",
"301 275 CURVE SMOOTH",
"301 446 OFFCURVE",
"240 576 OFFCURVE",
"47 576 CURVE",
"47 461 LINE",
"140 461 OFFCURVE",
"160 364 OFFCURVE",
"160 261 CURVE SMOOTH",
"160 163 OFFCURVE",
"132 106 OFFCURVE",
"60 106 CURVE SMOOTH",
"14 106 OFFCURVE",
"-25 138 OFFCURVE",
"-25 193 CURVE"
);
}
);
};
layerId = "62C1AEDA-2B35-4B7D-84F0-C5D6ED04B717";
name = Bold;
paths = (
{
closed = 1;
nodes = (
"-109 193 LINE",
"-109 64 OFFCURVE",
"-50 -11 OFFCURVE",
"85 -11 CURVE SMOOTH",
"254 -11 OFFCURVE",
"342 112 OFFCURVE",
"342 274 CURVE SMOOTH",
"342 446 OFFCURVE",
"264 576 OFFCURVE",
"47 576 CURVE",
"47 461 LINE",
"165 461 OFFCURVE",
"201 370 OFFCURVE",
"201 273 CURVE SMOOTH",
"201 167 OFFCURVE",
"158 105 OFFCURVE",
"75 105 CURVE SMOOTH",
"21 105 OFFCURVE",
"-25 137 OFFCURVE",
"-25 193 CURVE"
);
}
);
width = 382;
},
{
background = {
paths = (
{
closed = 1;
nodes = (
"-79 155 LINE",
"-79 56 OFFCURVE",
"-28 -9 OFFCURVE",
"67 -9 CURVE SMOOTH",
"181 -9 OFFCURVE",
"252 95 OFFCURVE",
"252 261 CURVE SMOOTH",
"252 412 OFFCURVE",
"183 546 OFFCURVE",
"43 546 CURVE",
"43 491 LINE",
"131 491 OFFCURVE",
"189 390 OFFCURVE",
"189 254 CURVE SMOOTH",
"189 123 OFFCURVE",
"139 43 OFFCURVE",
"64 43 CURVE SMOOTH",
"7 43 OFFCURVE",
"-34 82 OFFCURVE",
"-34 155 CURVE"
);
}
);
};
layerId = "D4CB3B6C-5708-466F-BC9B-F67484F28429";
name = Light;
paths = (
{
closed = 1;
nodes = (
"-79 155 LINE",
"-79 55 OFFCURVE",
"-19 -10 OFFCURVE",
"95 -10 CURVE SMOOTH",
"216 -10 OFFCURVE",
"309 76 OFFCURVE",
"309 261 CURVE SMOOTH",
"309 411 OFFCURVE",
"211 546 OFFCURVE",
"43 546 CURVE",
"43 491 LINE",
"162 491 OFFCURVE",
"247 389 OFFCURVE",
"247 255 CURVE SMOOTH",
"247 113 OFFCURVE",
"174 42 OFFCURVE",
"92 42 CURVE SMOOTH",
"19 42 OFFCURVE",
"-34 81 OFFCURVE",
"-34 155 CURVE"
);
}
);
width = 280;
}
);
unicode = 0C41;
},
{
glyphname = tlmUU;
lastChange = "2015-09-08 12:47:02 +0000";
layers = (
{
background = {
paths = (
{
closed = 1;
nodes = (
"618 248 OFFCURVE",
"682 317 OFFCURVE",
"682 404 CURVE SMOOTH",
"682 504 OFFCURVE",
"602 576 OFFCURVE",
"459 576 CURVE SMOOTH",
"47 576 LINE",
"47 464 LINE",
"427 464 LINE",
"465 511 LINE",
"396 506 OFFCURVE",
"354 456 OFFCURVE",
"354 388 CURVE SMOOTH",
"354 307 OFFCURVE",
"417 248 OFFCURVE",
"517 248 CURVE SMOOTH"
);
},
{
closed = 1;
nodes = (
"489 357 OFFCURVE",
"471 376 OFFCURVE",
"471 406 CURVE SMOOTH",
"471 435 OFFCURVE",
"487 459 OFFCURVE",
"516 459 CURVE SMOOTH",
"546 459 OFFCURVE",
"562 438 OFFCURVE",
"562 407 CURVE SMOOTH",
"562 376 OFFCURVE",
"544 357 OFFCURVE",
"517 357 CURVE SMOOTH"
);
},
{
closed = 1;
nodes = (
"-97 223 LINE",
"-97 95 OFFCURVE",
"-51 -10 OFFCURVE",
"84 -10 CURVE SMOOTH",
"228 -10 OFFCURVE",
"301 123 OFFCURVE",
"301 271 CURVE SMOOTH",
"301 436 OFFCURVE",
"220 536 OFFCURVE",
"47 536 CURVE",
"47 464 LINE",
"140 464 OFFCURVE",
"160 364 OFFCURVE",
"160 271 CURVE SMOOTH",
"160 163 OFFCURVE",
"132 106 OFFCURVE",
"70 106 CURVE SMOOTH",
"4 106 OFFCURVE",
"-23 168 OFFCURVE",
"-23 223 CURVE"
);
}
);
};
layerId = "62C1AEDA-2B35-4B7D-84F0-C5D6ED04B717";
name = Bold;
paths = (
{
closed = 1;
nodes = (
"254 -11 OFFCURVE",
"342 112 OFFCURVE",
"342 274 CURVE SMOOTH",
"342 436 OFFCURVE",
"264 536 OFFCURVE",
"47 536 CURVE",
"47 464 LINE",
"165 464 OFFCURVE",
"201 370 OFFCURVE",
"201 273 CURVE SMOOTH",
"201 167 OFFCURVE",
"158 105 OFFCURVE",
"75 105 CURVE SMOOTH",
"21 105 OFFCURVE",
"-25 137 OFFCURVE",
"-25 193 CURVE",
"-109 193 LINE",
"-109 64 OFFCURVE",
"-50 -11 OFFCURVE",
"85 -11 CURVE SMOOTH"
);
},
{
closed = 1;
nodes = (
"668 248 OFFCURVE",
"732 317 OFFCURVE",
"732 404 CURVE SMOOTH",
"732 504 OFFCURVE",
"652 576 OFFCURVE",
"509 576 CURVE SMOOTH",
"47 576 LINE",
"47 464 LINE",
"477 464 LINE",
"515 511 LINE",
"446 506 OFFCURVE",
"404 456 OFFCURVE",
"404 388 CURVE SMOOTH",
"404 307 OFFCURVE",
"467 248 OFFCURVE",
"567 248 CURVE SMOOTH"
);
},
{
closed = 1;
nodes = (
"539 357 OFFCURVE",
"521 376 OFFCURVE",
"521 406 CURVE SMOOTH",
"521 435 OFFCURVE",
"537 459 OFFCURVE",
"566 459 CURVE SMOOTH",
"596 459 OFFCURVE",
"612 438 OFFCURVE",
"612 407 CURVE SMOOTH",
"612 376 OFFCURVE",
"594 357 OFFCURVE",
"567 357 CURVE SMOOTH"
);
}
);
width = 632;
},
{
background = {
paths = (
{
closed = 1;
nodes = (
"194 -9 OFFCURVE",
"260 104 OFFCURVE",
"260 261 CURVE SMOOTH",
"260 411 OFFCURVE",
"191 525 OFFCURVE",
"43 526 CURVE",
"43 492 LINE",
"131 492 OFFCURVE",
"197 390 OFFCURVE",
"197 255 CURVE SMOOTH",
"197 134 OFFCURVE",
"154 43 OFFCURVE",
"76 43 CURVE SMOOTH",
"7 43 OFFCURVE",
"-28 102 OFFCURVE",
"-28 211 CURVE",
"-73 211 LINE",
"-73 75 OFFCURVE",
"-28 -9 OFFCURVE",
"75 -9 CURVE SMOOTH"
);
},
{
closed = 1;
nodes = (
"498 276 OFFCURVE",
"548 334 OFFCURVE",
"548 401 CURVE SMOOTH",
"548 477 OFFCURVE",
"503 546 OFFCURVE",
"384 546 CURVE SMOOTH",
"43 546 LINE",
"43 492 LINE",
"376 492 LINE",
"380 510 LINE",
"317 503 OFFCURVE",
"290 453 OFFCURVE",
"290 397 CURVE SMOOTH",
"290 326 OFFCURVE",
"342 276 OFFCURVE",
"422 276 CURVE SMOOTH"
);
},
{
closed = 1;
nodes = (
"375 328 OFFCURVE",
"351 360 OFFCURVE",
"351 404 CURVE SMOOTH",
"351 441 OFFCURVE",
"373 482 OFFCURVE",
"419 482 CURVE SMOOTH",
"464 482 OFFCURVE",
"487 444 OFFCURVE",
"487 402 CURVE SMOOTH",
"487 362 OFFCURVE",
"462 328 OFFCURVE",
"419 328 CURVE SMOOTH"
);
}
);
};
layerId = "D4CB3B6C-5708-466F-BC9B-F67484F28429";
name = Light;
paths = (
{
closed = 1;
nodes = (
"216 -10 OFFCURVE",
"309 76 OFFCURVE",
"309 261 CURVE SMOOTH",
"309 411 OFFCURVE",
"211 546 OFFCURVE",
"43 546 CURVE",
"43 491 LINE",
"162 491 OFFCURVE",
"247 389 OFFCURVE",
"247 255 CURVE SMOOTH",
"247 113 OFFCURVE",
"174 42 OFFCURVE",
"92 42 CURVE SMOOTH",
"19 42 OFFCURVE",
"-34 81 OFFCURVE",
"-34 155 CURVE",
"-79 155 LINE",
"-79 55 OFFCURVE",
"-19 -10 OFFCURVE",
"95 -10 CURVE SMOOTH"
);
},
{
closed = 1;
nodes = (
"558 276 OFFCURVE",
"608 334 OFFCURVE",
"608 401 CURVE SMOOTH",
"608 477 OFFCURVE",
"563 546 OFFCURVE",
"444 546 CURVE SMOOTH",
"43 546 LINE",
"43 492 LINE",
"436 492 LINE",
"440 510 LINE",
"377 503 OFFCURVE",
"350 453 OFFCURVE",
"350 397 CURVE SMOOTH",
"350 326 OFFCURVE",
"402 276 OFFCURVE",
"482 276 CURVE SMOOTH"
);
},
{
closed = 1;
nodes = (
"435 328 OFFCURVE",
"411 360 OFFCURVE",
"411 404 CURVE SMOOTH",
"411 441 OFFCURVE",
"433 482 OFFCURVE",
"479 482 CURVE SMOOTH",
"524 482 OFFCURVE",
"547 444 OFFCURVE",
"547 402 CURVE SMOOTH",
"547 362 OFFCURVE",
"522 328 OFFCURVE",
"479 328 CURVE SMOOTH"
);
}
);
width = 569;
}
);
unicode = 0C42;
},
{
glyphname = tlmvR;
lastChange = "2015-09-08 12:47:02 +0000";
layers = (
{
background = {
paths = (
{
closed = 1;
nodes = (
"305 -52 OFFCURVE",
"358 1 OFFCURVE",
"358 87 CURVE SMOOTH",
"358 168 OFFCURVE",
"301 238 OFFCURVE",
"198 238 CURVE SMOOTH",
"92 238 OFFCURVE",
"0 150 OFFCURVE",
"0 24 CURVE SMOOTH",
"0 -144 OFFCURVE",
"115 -243 OFFCURVE",
"263 -243 CURVE SMOOTH",
"433 -243 OFFCURVE",
"552 -125 OFFCURVE",
"552 91 CURVE SMOOTH",
"552 338 OFFCURVE",
"398 499 OFFCURVE",
"296 579 CURVE",
"205 479 LINE",
"279 423 OFFCURVE",
"422 288 OFFCURVE",
"422 91 CURVE SMOOTH",
"422 -64 OFFCURVE",
"351 -126 OFFCURVE",
"266 -126 CURVE SMOOTH",
"191 -126 OFFCURVE",
"139 -79 OFFCURVE",
"125 -9 CURVE",
"152 -46 OFFCURVE",
"193 -52 OFFCURVE",
"221 -52 CURVE SMOOTH"
);
},
{
closed = 1;
nodes = (
"218 120 OFFCURVE",
"233 102 OFFCURVE",
"233 80 CURVE SMOOTH",
"233 48 OFFCURVE",
"208 34 OFFCURVE",
"176 34 CURVE SMOOTH",
"158 34 OFFCURVE",
"139 39 OFFCURVE",
"123 47 CURVE",
"129 92 OFFCURVE",
"156 120 OFFCURVE",
"190 120 CURVE SMOOTH"
);
}
);
};
layerId = "62C1AEDA-2B35-4B7D-84F0-C5D6ED04B717";
name = Bold;
paths = (
{
closed = 1;
nodes = (
"423 -243 OFFCURVE",
"563 -144 OFFCURVE",
"563 148 CURVE SMOOTH",
"563 297 OFFCURVE",
"513 440 OFFCURVE",
"414 576 CURVE",
"248 576 LINE",
"375 413 OFFCURVE",
"421 264 OFFCURVE",
"421 122 CURVE SMOOTH",
"421 -30 OFFCURVE",
"368 -128 OFFCURVE",
"261 -128 CURVE SMOOTH",
"183 -128 OFFCURVE",
"123 -82 OFFCURVE",
"123 -4 CURVE",
"104 -20 LINE",
"130 -53 OFFCURVE",
"163 -62 OFFCURVE",
"209 -62 CURVE SMOOTH",
"293 -62 OFFCURVE",
"353 -6 OFFCURVE",
"353 83 CURVE SMOOTH",
"353 171 OFFCURVE",
"282 230 OFFCURVE",
"195 230 CURVE SMOOTH",
"73 230 OFFCURVE",
"6 130 OFFCURVE",
"6 7 CURVE SMOOTH",
"6 -139 OFFCURVE",
"108 -243 OFFCURVE",
"263 -243 CURVE SMOOTH"
);
},
{
closed = 1;
nodes = (
"160 23 OFFCURVE",
"144 42 OFFCURVE",
"144 74 CURVE SMOOTH",
"144 106 OFFCURVE",
"160 125 OFFCURVE",
"188 125 CURVE SMOOTH",
"213 125 OFFCURVE",
"228 106 OFFCURVE",
"228 74 CURVE SMOOTH",
"228 42 OFFCURVE",
"213 23 OFFCURVE",
"187 23 CURVE SMOOTH"
);
}
);
width = 600;
},
{
layerId = "D4CB3B6C-5708-466F-BC9B-F67484F28429";
name = Light;
paths = (
{
closed = 1;
nodes = (
"395 -202 OFFCURVE",
"489 -83 OFFCURVE",
"489 108 CURVE SMOOTH",
"489 271 OFFCURVE",
"434 419 OFFCURVE",
"353 546 CURVE",
"280 546 LINE",
"387 393 OFFCURVE",
"427 235 OFFCURVE",
"427 105 CURVE SMOOTH",
"427 -51 OFFCURVE",
"362 -150 OFFCURVE",
"248 -150 CURVE SMOOTH",
"158 -150 OFFCURVE",
"88 -90 OFFCURVE",
"88 35 CURVE",
"79 44 LINE",
"81 -16 OFFCURVE",
"132 -44 OFFCURVE",
"185 -44 CURVE SMOOTH",
"251 -44 OFFCURVE",
"306 5 OFFCURVE",
"306 77 CURVE SMOOTH",
"306 147 OFFCURVE",
"255 199 OFFCURVE",
"179 199 CURVE SMOOTH",
"92 199 OFFCURVE",
"35 117 OFFCURVE",
"35 18 CURVE SMOOTH",
"35 -112 OFFCURVE",
"121 -202 OFFCURVE",
"249 -202 CURVE SMOOTH"
);
},
{
closed = 1;
nodes = (
"131 8 OFFCURVE",
"110 38 OFFCURVE",
"110 77 CURVE SMOOTH",
"110 116 OFFCURVE",
"135 146 OFFCURVE",
"178 146 CURVE SMOOTH",
"221 146 OFFCURVE",
"245 117 OFFCURVE",
"245 78 CURVE SMOOTH",
"245 33 OFFCURVE",
"219 8 OFFCURVE",
"180 8 CURVE SMOOTH"
);
}
);
width = 569;
}
);
unicode = 0C43;
},
{
glyphname = tlmvRR;
lastChange = "2015-09-08 12:47:02 +0000";
layers = (
{
layerId = "62C1AEDA-2B35-4B7D-84F0-C5D6ED04B717";
name = Bold;
paths = (
{
closed = 1;
nodes = (
"423 -243 OFFCURVE",
"563 -144 OFFCURVE",
"563 148 CURVE SMOOTH",
"563 327 OFFCURVE",
"494 468 OFFCURVE",
"348 520 CURVE",
"267 464 LINE",
"371 398 OFFCURVE",
"421 274 OFFCURVE",
"421 122 CURVE SMOOTH",
"421 -30 OFFCURVE",
"368 -128 OFFCURVE",
"261 -128 CURVE SMOOTH",
"183 -128 OFFCURVE",
"123 -82 OFFCURVE",
"123 -4 CURVE",
"104 -20 LINE",
"130 -53 OFFCURVE",
"163 -62 OFFCURVE",
"209 -62 CURVE SMOOTH",
"293 -62 OFFCURVE",
"353 -6 OFFCURVE",
"353 83 CURVE SMOOTH",
"353 171 OFFCURVE",
"282 230 OFFCURVE",
"195 230 CURVE SMOOTH",
"73 230 OFFCURVE",
"6 130 OFFCURVE",
"6 7 CURVE SMOOTH",
"6 -139 OFFCURVE",
"108 -243 OFFCURVE",
"263 -243 CURVE SMOOTH"
);
},
{
closed = 1;
nodes = (
"160 23 OFFCURVE",
"144 42 OFFCURVE",
"144 74 CURVE SMOOTH",
"144 106 OFFCURVE",
"160 125 OFFCURVE",
"188 125 CURVE SMOOTH",
"213 125 OFFCURVE",
"228 106 OFFCURVE",
"228 74 CURVE SMOOTH",
"228 42 OFFCURVE",
"213 23 OFFCURVE",
"187 23 CURVE SMOOTH"
);
},
{
closed = 1;
nodes = (
"868 248 OFFCURVE",
"932 317 OFFCURVE",
"932 404 CURVE SMOOTH",
"932 504 OFFCURVE",
"852 576 OFFCURVE",
"709 576 CURVE SMOOTH",
"267 576 LINE",
"267 464 LINE",
"677 464 LINE",
"715 511 LINE",
"646 506 OFFCURVE",
"604 456 OFFCURVE",
"604 388 CURVE SMOOTH",
"604 307 OFFCURVE",
"667 248 OFFCURVE",
"767 248 CURVE SMOOTH"
);
},
{
closed = 1;
nodes = (
"739 357 OFFCURVE",
"721 376 OFFCURVE",
"721 406 CURVE SMOOTH",
"721 435 OFFCURVE",
"737 459 OFFCURVE",
"766 459 CURVE SMOOTH",
"796 459 OFFCURVE",
"812 438 OFFCURVE",
"812 407 CURVE SMOOTH",
"812 376 OFFCURVE",
"794 357 OFFCURVE",
"767 357 CURVE SMOOTH"
);
}
);
width = 952;
},
{
layerId = "D4CB3B6C-5708-466F-BC9B-F67484F28429";
name = Light;
paths = (
{
closed = 1;
nodes = (
"395 -202 OFFCURVE",
"489 -83 OFFCURVE",
"489 139 CURVE SMOOTH",
"489 262 OFFCURVE",
"435 468 OFFCURVE",
"304 523 CURVE",
"271 492 LINE",
"374 427 OFFCURVE",
"427 263 OFFCURVE",
"427 135 CURVE SMOOTH",
"427 -51 OFFCURVE",
"362 -150 OFFCURVE",
"248 -150 CURVE SMOOTH",
"158 -150 OFFCURVE",
"88 -90 OFFCURVE",
"88 35 CURVE",
"79 44 LINE",
"81 -16 OFFCURVE",
"132 -44 OFFCURVE",
"185 -44 CURVE SMOOTH",
"251 -44 OFFCURVE",
"306 5 OFFCURVE",
"306 77 CURVE SMOOTH",
"306 147 OFFCURVE",
"255 199 OFFCURVE",
"179 199 CURVE SMOOTH",
"92 199 OFFCURVE",
"35 117 OFFCURVE",
"35 18 CURVE SMOOTH",
"35 -112 OFFCURVE",
"121 -202 OFFCURVE",
"249 -202 CURVE SMOOTH"
);
},
{
closed = 1;
nodes = (
"131 8 OFFCURVE",
"110 38 OFFCURVE",
"110 77 CURVE SMOOTH",
"110 116 OFFCURVE",
"135 146 OFFCURVE",
"178 146 CURVE SMOOTH",
"221 146 OFFCURVE",
"245 117 OFFCURVE",
"245 78 CURVE SMOOTH",
"245 33 OFFCURVE",
"219 8 OFFCURVE",
"180 8 CURVE SMOOTH"
);
},
{
closed = 1;
nodes = (
"737 276 OFFCURVE",
"787 334 OFFCURVE",
"787 401 CURVE SMOOTH",
"787 477 OFFCURVE",
"742 546 OFFCURVE",
"623 546 CURVE SMOOTH",
"271 546 LINE",
"271 492 LINE",
"614 492 LINE",
"619 510 LINE",
"556 503 OFFCURVE",
"529 450 OFFCURVE",
"529 394 CURVE SMOOTH",
"529 326 OFFCURVE",
"581 276 OFFCURVE",
"661 276 CURVE SMOOTH"
);
},
{
closed = 1;
nodes = (
"614 328 OFFCURVE",
"590 360 OFFCURVE",
"590 404 CURVE SMOOTH",
"590 441 OFFCURVE",
"612 482 OFFCURVE",
"658 482 CURVE SMOOTH",
"703 482 OFFCURVE",
"726 445 OFFCURVE",
"726 402 CURVE SMOOTH",
"726 362 OFFCURVE",
"701 328 OFFCURVE",
"658 328 CURVE SMOOTH"
);
}
);
width = 796;
}
);
unicode = 0C44;
},
{
color = 8;
glyphname = tlmvL;
lastChange = "2015-09-17 13:28:11 +0000";
layers = (
{
anchors = (
{
name = _bottom;
position = "{0, 0}";
},
{
name = bottom;
position = "{0, -515}";
}
);
background = {
paths = (
{
closed = 1;
nodes = (
"-284 -94 LINE",
"-297 -63 OFFCURVE",
"-329 -37 OFFCURVE",
"-386 -37 CURVE SMOOTH",
"-470 -37 OFFCURVE",
"-523 -101 OFFCURVE",
"-523 -168 CURVE SMOOTH",
"-523 -225 OFFCURVE",
"-495 -268 OFFCURVE",
"-470 -291 CURVE",
"-371 -241 LINE",
"-392 -224 OFFCURVE",
"-408 -200 OFFCURVE",
"-408 -173 CURVE SMOOTH",
"-408 -154 OFFCURVE",
"-396 -138 OFFCURVE",
"-373 -138 CURVE SMOOTH",
"-349 -138 OFFCURVE",
"-335 -159 OFFCURVE",
"-335 -186 CURVE SMOOTH",
"-335 -218 LINE",
"-226 -218 LINE",
"-226 -187 LINE SMOOTH",
"-226 -156 OFFCURVE",
"-212 -138 OFFCURVE",
"-190 -138 CURVE SMOOTH",
"-169 -138 OFFCURVE",
"-158 -150 OFFCURVE",
"-158 -173 CURVE SMOOTH",
"-158 -241 OFFCURVE",
"-312 -247 OFFCURVE",
"-312 -370 CURVE SMOOTH",
"-312 -446 OFFCURVE",
"-251 -510 OFFCURVE",
"-125 -510 CURVE SMOOTH",
"21 -510 OFFCURVE",
"149 -423 OFFCURVE",
"149 -254 CURVE SMOOTH",
"149 -133 OFFCURVE",
"68 -50 OFFCURVE",
"-23 -41 CURVE",
"-23 -151 LINE",
"6 -158 OFFCURVE",
"34 -184 OFFCURVE",
"34 -254 CURVE SMOOTH",
"34 -348 OFFCURVE",
"-34 -407 OFFCURVE",
"-120 -407 CURVE SMOOTH",
"-173 -407 OFFCURVE",
"-189 -393 OFFCURVE",
"-189 -370 CURVE SMOOTH",
"-189 -312 OFFCURVE",
"-39 -303 OFFCURVE",
"-39 -168 CURVE SMOOTH",
"-39 -86 OFFCURVE",
"-102 -37 OFFCURVE",
"-177 -37 CURVE SMOOTH",
"-230 -37 OFFCURVE",
"-266 -67 OFFCURVE",
"-280 -94 CURVE"
);
}
);
};
layerId = "62C1AEDA-2B35-4B7D-84F0-C5D6ED04B717";
name = Bold;
paths = (
{
closed = 1;
nodes = (
"107 -135 LINE",
"152 -132 OFFCURVE",
"180 -175 OFFCURVE",
"180 -251 CURVE SMOOTH",
"180 -353 OFFCURVE",
"114 -435 OFFCURVE",
"32 -435 CURVE SMOOTH",
"-30 -435 OFFCURVE",
"-67 -412 OFFCURVE",
"-67 -374 CURVE SMOOTH",
"-67 -301 OFFCURVE",
"94 -304 OFFCURVE",
"94 -160 CURVE SMOOTH",
"94 -85 OFFCURVE",
"43 -35 OFFCURVE",
"-35 -35 CURVE SMOOTH",
"-84 -35 OFFCURVE",
"-126 -64 OFFCURVE",
"-140 -103 CURVE",
"-154 -64 OFFCURVE",
"-194 -35 OFFCURVE",
"-247 -35 CURVE SMOOTH",
"-321 -35 OFFCURVE",
"-375 -86 OFFCURVE",
"-375 -157 CURVE SMOOTH",
"-375 -185 OFFCURVE",
"-371 -207 OFFCURVE",
"-360 -233 CURVE",
"-261 -233 LINE",
"-273 -210 OFFCURVE",
"-277 -191 OFFCURVE",
"-277 -170 CURVE SMOOTH",
"-277 -142 OFFCURVE",
"-259 -119 OFFCURVE",
"-235 -119 CURVE SMOOTH",
"-207 -119 OFFCURVE",
"-190 -138 OFFCURVE",
"-190 -174 CURVE SMOOTH",
"-190 -203 LINE",
"-90 -203 LINE",
"-90 -174 LINE SMOOTH",
"-90 -138 OFFCURVE",
"-74 -119 OFFCURVE",
"-48 -119 CURVE SMOOTH",
"-20 -119 OFFCURVE",
"-4 -135 OFFCURVE",
"-4 -162 CURVE SMOOTH",
"-4 -243 OFFCURVE",
"-166 -242 OFFCURVE",
"-166 -370 CURVE SMOOTH",
"-166 -455 OFFCURVE",
"-85 -515 OFFCURVE",
"29 -515 CURVE SMOOTH",
"160 -515 OFFCURVE",
"280 -417 OFFCURVE",
"280 -246 CURVE SMOOTH",
"280 -118 OFFCURVE",
"213 -37 OFFCURVE",
"107 -40 CURVE"
);
}
);
width = 0;
},
{
anchors = (
{
name = _bottom;
position = "{0, 0}";
},
{
name = bottom;
position = "{0, -477}";
}
);
layerId = "D4CB3B6C-5708-466F-BC9B-F67484F28429";
name = Light;
paths = (
{
closed = 1;
nodes = (
"110 -93 LINE",
"179 -89 OFFCURVE",
"206 -167 OFFCURVE",
"206 -242 CURVE SMOOTH",
"206 -351 OFFCURVE",
"132 -435 OFFCURVE",
"38 -435 CURVE SMOOTH",
"-27 -435 OFFCURVE",
"-65 -407 OFFCURVE",
"-65 -363 CURVE SMOOTH",
"-65 -271 OFFCURVE",
"97 -277 OFFCURVE",
"97 -147 CURVE SMOOTH",
"97 -84 OFFCURVE",
"51 -39 OFFCURVE",
"-15 -39 CURVE SMOOTH",
"-61 -39 OFFCURVE",
"-98 -62 OFFCURVE",
"-110 -96 CURVE",
"-123 -61 OFFCURVE",
"-159 -39 OFFCURVE",
"-204 -39 CURVE SMOOTH",
"-269 -39 OFFCURVE",
"-315 -86 OFFCURVE",
"-315 -149 CURVE SMOOTH",
"-315 -175 OFFCURVE",
"-308 -198 OFFCURVE",
"-297 -218 CURVE",
"-248 -218 LINE",
"-261 -191 OFFCURVE",
"-266 -170 OFFCURVE",
"-266 -152 CURVE SMOOTH",
"-266 -112 OFFCURVE",
"-240 -81 OFFCURVE",
"-204 -81 CURVE SMOOTH",
"-161 -81 OFFCURVE",
"-135 -112 OFFCURVE",
"-135 -162 CURVE SMOOTH",
"-135 -192 LINE",
"-86 -192 LINE",
"-86 -162 LINE SMOOTH",
"-86 -113 OFFCURVE",
"-60 -81 OFFCURVE",
"-16 -81 CURVE SMOOTH",
"21 -81 OFFCURVE",
"47 -108 OFFCURVE",
"47 -147 CURVE SMOOTH",
"47 -244 OFFCURVE",
"-116 -241 OFFCURVE",
"-116 -362 CURVE SMOOTH",
"-116 -432 OFFCURVE",
"-55 -477 OFFCURVE",
"37 -477 CURVE SMOOTH",
"160 -477 OFFCURVE",
"255 -378 OFFCURVE",
"255 -242 CURVE SMOOTH",
"255 -121 OFFCURVE",
"198 -43 OFFCURVE",
"110 -45 CURVE"
);
}
);
width = 0;
}
);
unicode = 0C62;
},
{
color = 8;
glyphname = tlmvLL;
lastChange = "2015-09-17 13:28:40 +0000";
layers = (
{
anchors = (
{
name = _bottom;
position = "{0, 0}";
},
{
name = bottom;
position = "{0, -515}";
}
);
layerId = "62C1AEDA-2B35-4B7D-84F0-C5D6ED04B717";
name = Bold;
paths = (
{
closed = 1;
nodes = (
"160 -515 OFFCURVE",
"280 -417 OFFCURVE",
"280 -256 CURVE SMOOTH",
"280 -128 OFFCURVE",
"213 -80 OFFCURVE",
"107 -80 CURVE",
"107 -126 LINE",
"152 -126 OFFCURVE",
"180 -175 OFFCURVE",
"180 -251 CURVE SMOOTH",
"180 -353 OFFCURVE",
"114 -435 OFFCURVE",
"32 -435 CURVE SMOOTH",
"-30 -435 OFFCURVE",
"-67 -412 OFFCURVE",
"-67 -374 CURVE SMOOTH",
"-67 -301 OFFCURVE",
"94 -304 OFFCURVE",
"94 -160 CURVE SMOOTH",
"94 -85 OFFCURVE",
"43 -35 OFFCURVE",
"-35 -35 CURVE SMOOTH",
"-84 -35 OFFCURVE",
"-126 -64 OFFCURVE",
"-140 -103 CURVE",
"-154 -64 OFFCURVE",
"-194 -35 OFFCURVE",
"-247 -35 CURVE SMOOTH",
"-321 -35 OFFCURVE",
"-375 -86 OFFCURVE",
"-375 -157 CURVE SMOOTH",
"-375 -185 OFFCURVE",
"-371 -207 OFFCURVE",
"-360 -233 CURVE",
"-261 -233 LINE",
"-273 -210 OFFCURVE",
"-277 -191 OFFCURVE",
"-277 -170 CURVE SMOOTH",
"-277 -142 OFFCURVE",
"-259 -119 OFFCURVE",
"-235 -119 CURVE SMOOTH",
"-207 -119 OFFCURVE",
"-190 -138 OFFCURVE",
"-190 -174 CURVE SMOOTH",
"-190 -203 LINE",
"-90 -203 LINE",
"-90 -174 LINE SMOOTH",
"-90 -138 OFFCURVE",
"-74 -119 OFFCURVE",
"-48 -119 CURVE SMOOTH",
"-20 -119 OFFCURVE",
"-4 -135 OFFCURVE",
"-4 -162 CURVE SMOOTH",
"-4 -243 OFFCURVE",
"-166 -242 OFFCURVE",
"-166 -370 CURVE SMOOTH",
"-166 -455 OFFCURVE",
"-85 -515 OFFCURVE",
"29 -515 CURVE SMOOTH"
);
},
{
closed = 1;
nodes = (
"544 -293 OFFCURVE",
"593 -240 OFFCURVE",
"593 -173 CURVE SMOOTH",
"593 -96 OFFCURVE",
"539 -40 OFFCURVE",
"429 -40 CURVE SMOOTH",
"107 -40 LINE",
"107 -126 LINE",
"396 -126 LINE",
"426 -90 LINE",
"372 -94 OFFCURVE",
"340 -133 OFFCURVE",
"340 -185 CURVE SMOOTH",
"340 -247 OFFCURVE",
"389 -293 OFFCURVE",
"466 -293 CURVE SMOOTH"
);
},
{
closed = 1;
nodes = (
"444 -209 OFFCURVE",
"430 -194 OFFCURVE",
"430 -171 CURVE SMOOTH",
"430 -149 OFFCURVE",
"443 -130 OFFCURVE",
"465 -130 CURVE SMOOTH",
"488 -130 OFFCURVE",
"500 -146 OFFCURVE",
"500 -170 CURVE SMOOTH",
"500 -194 OFFCURVE",
"487 -209 OFFCURVE",
"466 -209 CURVE SMOOTH"
);
}
);
width = 0;
},
{
anchors = (
{
name = _bottom;
position = "{0, 0}";
},
{
name = bottom;
position = "{0, -477}";
}
);
layerId = "D4CB3B6C-5708-466F-BC9B-F67484F28429";
name = Light;
paths = (
{
closed = 1;
nodes = (
"160 -477 OFFCURVE",
"255 -378 OFFCURVE",
"255 -243 CURVE SMOOTH",
"255 -121 OFFCURVE",
"206 -56 OFFCURVE",
"110 -56 CURVE",
"110 -87 LINE",
"179 -87 OFFCURVE",
"206 -167 OFFCURVE",
"206 -242 CURVE SMOOTH",
"206 -351 OFFCURVE",
"132 -435 OFFCURVE",
"38 -435 CURVE SMOOTH",
"-27 -435 OFFCURVE",
"-65 -407 OFFCURVE",
"-65 -363 CURVE SMOOTH",
"-65 -271 OFFCURVE",
"97 -277 OFFCURVE",
"97 -147 CURVE SMOOTH",
"97 -84 OFFCURVE",
"51 -39 OFFCURVE",
"-15 -39 CURVE SMOOTH",
"-61 -39 OFFCURVE",
"-98 -62 OFFCURVE",
"-110 -96 CURVE",
"-123 -61 OFFCURVE",
"-159 -39 OFFCURVE",
"-204 -39 CURVE SMOOTH",
"-269 -39 OFFCURVE",
"-315 -86 OFFCURVE",
"-315 -149 CURVE SMOOTH",
"-315 -175 OFFCURVE",
"-308 -198 OFFCURVE",
"-297 -218 CURVE",
"-248 -218 LINE",
"-261 -191 OFFCURVE",
"-266 -170 OFFCURVE",
"-266 -152 CURVE SMOOTH",
"-266 -112 OFFCURVE",
"-240 -81 OFFCURVE",
"-204 -81 CURVE SMOOTH",
"-161 -81 OFFCURVE",
"-135 -112 OFFCURVE",
"-135 -162 CURVE SMOOTH",
"-135 -192 LINE",
"-86 -192 LINE",
"-86 -162 LINE SMOOTH",
"-86 -113 OFFCURVE",
"-60 -81 OFFCURVE",
"-16 -81 CURVE SMOOTH",
"21 -81 OFFCURVE",
"47 -108 OFFCURVE",
"47 -147 CURVE SMOOTH",
"47 -244 OFFCURVE",
"-116 -241 OFFCURVE",
"-116 -362 CURVE SMOOTH",
"-116 -432 OFFCURVE",
"-55 -477 OFFCURVE",
"37 -477 CURVE SMOOTH"
);
},
{
closed = 1;
nodes = (
"467 -254 OFFCURVE",
"505 -210 OFFCURVE",
"505 -157 CURVE SMOOTH",
"505 -98 OFFCURVE",
"471 -45 OFFCURVE",
"378 -45 CURVE SMOOTH",
"110 -45 LINE",
"110 -87 LINE",
"371 -87 LINE",
"375 -73 LINE",
"326 -78 OFFCURVE",
"305 -119 OFFCURVE",
"305 -163 CURVE SMOOTH",
"305 -216 OFFCURVE",
"345 -254 OFFCURVE",
"407 -254 CURVE SMOOTH"
);
},
{
closed = 1;
nodes = (
"370 -215 OFFCURVE",
"353 -189 OFFCURVE",
"353 -155 CURVE SMOOTH",
"353 -126 OFFCURVE",
"370 -95 OFFCURVE",
"404 -95 CURVE SMOOTH",
"440 -95 OFFCURVE",
"457 -124 OFFCURVE",
"457 -157 CURVE SMOOTH",
"457 -187 OFFCURVE",
"439 -215 OFFCURVE",
"404 -215 CURVE SMOOTH"
);
}
);
width = 0;
}
);
unicode = 0C63;
},
{
glyphname = tlmE;
lastChange = "2015-09-08 12:47:02 +0000";
layers = (
{
background = {
paths = (
{
closed = 1;
nodes = (
"436 589 OFFCURVE",
"421 576 OFFCURVE",
"382 576 CURVE SMOOTH",
"317 576 LINE",
"317 466 LINE",
"384 466 LINE SMOOTH",
"495 466 OFFCURVE",
"561 524 OFFCURVE",
"561 614 CURVE SMOOTH",
"561 703 OFFCURVE",
"495 761 OFFCURVE",
"384 761 CURVE SMOOTH",
"110 761 LINE",
"110 651 LINE",
"382 651 LINE SMOOTH",
"421 651 OFFCURVE",
"436 638 OFFCURVE",
"436 613 CURVE SMOOTH"
);
}
);
};
layerId = "62C1AEDA-2B35-4B7D-84F0-C5D6ED04B717";
name = Bold;
paths = (
{
closed = 1;
nodes = (
"67 761 LINE",
"67 649 LINE",
"376 649 LINE",
"416 649 OFFCURVE",
"432 637 OFFCURVE",
"432 611 CURVE SMOOTH",
"432 590 OFFCURVE",
"419 576 OFFCURVE",
"387 576 CURVE",
"320 576 LINE",
"320 487 LINE",
"397 487 LINE",
"504 487 OFFCURVE",
"562 533 OFFCURVE",
"562 620 CURVE SMOOTH",
"562 698 OFFCURVE",
"507 761 OFFCURVE",
"389 761 CURVE SMOOTH"
);
}
);
width = 600;
},
{
layerId = "D4CB3B6C-5708-466F-BC9B-F67484F28429";
name = Light;
paths = (
{
closed = 1;
nodes = (
"96 721 LINE",
"96 669 LINE",
"357 669 LINE",
"418 669 OFFCURVE",
"440 644 OFFCURVE",
"440 606 CURVE SMOOTH",
"440 568 OFFCURVE",
"415 546 OFFCURVE",
"370 546 CURVE",
"312 546 LINE",
"312 495 LINE",
"375 495 LINE",
"454 495 OFFCURVE",
"502 539 OFFCURVE",
"502 608 CURVE SMOOTH",
"502 672 OFFCURVE",
"456 721 OFFCURVE",
"354 721 CURVE SMOOTH"
);
}
);
width = 569;
}
);
unicode = 0C46;
},
{
glyphname = tlmEE;
lastChange = "2015-09-08 12:47:02 +0000";
layers = (
{
background = {
paths = (
{
closed = 1;
nodes = (
"437 589 OFFCURVE",
"422 576 OFFCURVE",
"383 576 CURVE SMOOTH",
"318 576 LINE",
"318 466 LINE",
"385 466 LINE SMOOTH",
"496 466 OFFCURVE",
"562 524 OFFCURVE",
"562 614 CURVE SMOOTH",
"562 683 OFFCURVE",
"522 734 OFFCURVE",
"451 753 CURVE",
"439 758 OFFCURVE",
"426 767 OFFCURVE",
"426 785 CURVE SMOOTH",
"426 804 OFFCURVE",
"438 817 OFFCURVE",
"477 817 CURVE SMOOTH",
"545 817 LINE",
"545 927 LINE",
"424 927 LINE SMOOTH",
"352 927 OFFCURVE",
"314 884 OFFCURVE",
"314 832 CURVE SMOOTH",
"314 801 OFFCURVE",
"326 777 OFFCURVE",
"346 761 CURVE",
"111 761 LINE",
"111 651 LINE",
"383 651 LINE SMOOTH",
"422 651 OFFCURVE",
"437 638 OFFCURVE",
"437 613 CURVE SMOOTH"
);
}
);
};
layerId = "62C1AEDA-2B35-4B7D-84F0-C5D6ED04B717";
name = Bold;
paths = (
{
closed = 1;
nodes = (
"397 487 LINE",
"503 487 OFFCURVE",
"562 533 OFFCURVE",
"562 616 CURVE SMOOTH",
"562 708 OFFCURVE",
"474 761 OFFCURVE",
"404 761 CURVE",
"67 761 LINE",
"67 649 LINE",
"376 649 LINE SMOOTH",
"416 649 OFFCURVE",
"432 637 OFFCURVE",
"432 611 CURVE SMOOTH",
"432 590 OFFCURVE",
"419 576 OFFCURVE",
"387 576 CURVE SMOOTH",
"320 576 LINE",
"320 487 LINE"
);
},
{
closed = 1;
nodes = (
"450 754 LINE",
"429 760 OFFCURVE",
"415 772 OFFCURVE",
"415 788 CURVE SMOOTH",
"415 807 OFFCURVE",
"427 815 OFFCURVE",
"455 815 CURVE SMOOTH",
"543 815 LINE",
"543 927 LINE",
"428 927 LINE SMOOTH",
"348 927 OFFCURVE",
"301 884 OFFCURVE",
"301 831 CURVE SMOOTH",
"301 789 OFFCURVE",
"326 759 OFFCURVE",
"363 749 CURVE"
);
}
);
width = 600;
},
{
layerId = "D4CB3B6C-5708-466F-BC9B-F67484F28429";
name = Light;
paths = (
{
closed = 1;
nodes = (
"375 495 LINE SMOOTH",
"453 495 OFFCURVE",
"502 539 OFFCURVE",
"502 607 CURVE SMOOTH",
"502 659 OFFCURVE",
"463 721 OFFCURVE",
"381 721 CURVE",
"96 721 LINE",
"96 669 LINE",
"357 669 LINE SMOOTH",
"421 669 OFFCURVE",
"440 642 OFFCURVE",
"440 605 CURVE SMOOTH",
"440 568 OFFCURVE",
"415 546 OFFCURVE",
"370 546 CURVE SMOOTH",
"312 546 LINE",
"312 495 LINE"
);
},
{
closed = 1;
nodes = (
"441 707 LINE",
"413 722 OFFCURVE",
"387 744 OFFCURVE",
"387 780 CURVE SMOOTH",
"387 805 OFFCURVE",
"401 823 OFFCURVE",
"435 823 CURVE SMOOTH",
"493 823 LINE",
"493 875 LINE",
"419 875 LINE SMOOTH",
"356 875 OFFCURVE",
"325 842 OFFCURVE",
"325 798 CURVE SMOOTH",
"325 756 OFFCURVE",
"349 724 OFFCURVE",
"400 704 CURVE"
);
}
);
width = 569;
}
);
unicode = 0C47;
},
{
glyphname = tlmAI;
lastChange = "2015-09-08 12:47:02 +0000";
layers = (
{
background = {
paths = (
{
closed = 1;
nodes = (
"439 613 CURVE SMOOTH",
"439 589 OFFCURVE",
"424 576 OFFCURVE",
"385 576 CURVE SMOOTH",
"320 576 LINE",
"320 466 LINE",
"387 466 LINE SMOOTH",
"498 466 OFFCURVE",
"564 524 OFFCURVE",
"564 614 CURVE SMOOTH",
"564 703 OFFCURVE",
"498 761 OFFCURVE",
"387 761 CURVE SMOOTH",
"113 761 LINE",
"113 651 LINE",
"385 651 LINE SMOOTH",
"424 651 OFFCURVE",
"439 638 OFFCURVE"
);
},
{
closed = 1;
nodes = (
"135 -222 LINE",
"94 -222 OFFCURVE",
"75 -199 OFFCURVE",
"75 -168 CURVE SMOOTH",
"75 -135 OFFCURVE",
"95 -114 OFFCURVE",
"126 -114 CURVE SMOOTH",
"157 -114 OFFCURVE",
"177 -136 OFFCURVE",
"177 -168 CURVE SMOOTH",
"177 -192 OFFCURVE",
"165 -214 OFFCURVE",
"142 -229 CURVE",
"235 -252 LINE",
"256 -243 OFFCURVE",
"291 -213 OFFCURVE",
"291 -147 CURVE SMOOTH",
"291 -71 OFFCURVE",
"231 1 OFFCURVE",
"126 1 CURVE SMOOTH",
"29 1 OFFCURVE",
"-43 -68 OFFCURVE",
"-43 -168 CURVE SMOOTH",
"-43 -269 OFFCURVE",
"34 -337 OFFCURVE",
"150 -337 CURVE SMOOTH",
"578 -337 LINE",
"578 -222 LINE"
);
}
);
};
layerId = "62C1AEDA-2B35-4B7D-84F0-C5D6ED04B717";
name = Bold;
paths = (
{
closed = 1;
nodes = (
"581 -337 LINE",
"581 -225 LINE",
"218 -225 LINE",
"180 -272 LINE",
"249 -267 OFFCURVE",
"291 -217 OFFCURVE",
"291 -149 CURVE SMOOTH",
"291 -68 OFFCURVE",
"228 -9 OFFCURVE",
"128 -9 CURVE SMOOTH",
"27 -9 OFFCURVE",
"-37 -78 OFFCURVE",
"-37 -165 CURVE SMOOTH",
"-37 -265 OFFCURVE",
"43 -337 OFFCURVE",
"186 -337 CURVE SMOOTH"
);
},
{
closed = 1;
nodes = (
"99 -220 OFFCURVE",
"83 -199 OFFCURVE",
"83 -168 CURVE SMOOTH",
"83 -137 OFFCURVE",
"101 -118 OFFCURVE",
"128 -118 CURVE SMOOTH",
"156 -118 OFFCURVE",
"174 -137 OFFCURVE",
"174 -167 CURVE SMOOTH",
"174 -196 OFFCURVE",
"158 -220 OFFCURVE",
"129 -220 CURVE SMOOTH"
);
},
{
closed = 1;
nodes = (
"397 463 LINE",
"506 463 OFFCURVE",
"562 522 OFFCURVE",
"562 612 CURVE SMOOTH",
"562 697 OFFCURVE",
"507 757 OFFCURVE",
"389 757 CURVE SMOOTH",
"113 757 LINE",
"113 645 LINE",
"376 645 LINE",
"416 645 OFFCURVE",
"432 633 OFFCURVE",
"432 607 CURVE SMOOTH",
"432 586 OFFCURVE",
"419 572 OFFCURVE",
"387 572 CURVE",
"320 572 LINE",
"320 463 LINE"
);
}
);
width = 600;
},
{
layerId = "D4CB3B6C-5708-466F-BC9B-F67484F28429";
name = Light;
paths = (
{
closed = 1;
nodes = (
"518 -310 LINE",
"518 -256 LINE",
"159 -256 LINE",
"154 -275 LINE",
"218 -267 OFFCURVE",
"244 -215 OFFCURVE",
"244 -159 CURVE SMOOTH",
"244 -91 OFFCURVE",
"193 -40 OFFCURVE",
"113 -40 CURVE SMOOTH",
"37 -40 OFFCURVE",
"-12 -98 OFFCURVE",
"-12 -165 CURVE SMOOTH",
"-12 -242 OFFCURVE",
"32 -310 OFFCURVE",
"151 -310 CURVE SMOOTH"
);
},
{
closed = 1;
nodes = (
"71 -247 OFFCURVE",
"48 -209 OFFCURVE",
"48 -166 CURVE SMOOTH",
"48 -127 OFFCURVE",
"73 -92 OFFCURVE",
"116 -92 CURVE SMOOTH",
"161 -92 OFFCURVE",
"184 -125 OFFCURVE",
"184 -168 CURVE SMOOTH",
"184 -206 OFFCURVE",
"163 -247 OFFCURVE",
"116 -247 CURVE SMOOTH"
);
},
{
closed = 1;
nodes = (
"375 493 LINE",
"453 493 OFFCURVE",
"502 538 OFFCURVE",
"502 607 CURVE SMOOTH",
"502 672 OFFCURVE",
"458 717 OFFCURVE",
"354 717 CURVE SMOOTH",
"98 717 LINE",
"98 665 LINE",
"357 665 LINE",
"421 665 OFFCURVE",
"440 642 OFFCURVE",
"440 605 CURVE SMOOTH",
"440 568 OFFCURVE",
"415 545 OFFCURVE",
"370 545 CURVE",
"312 545 LINE",
"312 493 LINE"
);
}
);
width = 569;
}
);
unicode = 0C48;
},
{
glyphname = tlmO;
lastChange = "2015-09-08 12:47:02 +0000";
layers = (
{
background = {
paths = (
{
closed = 1;
nodes = (
"305 555 LINE",
"226 590 OFFCURVE",
"187 646 OFFCURVE",
"187 698 CURVE SMOOTH",
"187 728 OFFCURVE",
"207 745 OFFCURVE",
"231 745 CURVE SMOOTH",
"266 745 OFFCURVE",
"291 721 OFFCURVE",
"302 667 CURVE",
"412 667 LINE",
"416 720 OFFCURVE",
"454 770 OFFCURVE",
"516 770 CURVE SMOOTH",
"580 770 OFFCURVE",
"605 740 OFFCURVE",
"605 715 CURVE SMOOTH",
"605 693 OFFCURVE",
"592 678 OFFCURVE",
"573 678 CURVE SMOOTH",
"551 678 OFFCURVE",
"539 692 OFFCURVE",
"539 717 CURVE SMOOTH",
"539 738 OFFCURVE",
"555 765 OFFCURVE",
"599 765 CURVE SMOOTH",
"608 765 LINE",
"608 770 LINE",
"588 774 OFFCURVE",
"571 776 OFFCURVE",
"555 776 CURVE SMOOTH",
"486 776 OFFCURVE",
"451 740 OFFCURVE",
"451 690 CURVE SMOOTH",
"451 631 OFFCURVE",
"501 585 OFFCURVE",
"576 585 CURVE SMOOTH",
"651 585 OFFCURVE",
"705 635 OFFCURVE",
"705 713 CURVE SMOOTH",
"705 795 OFFCURVE",
"639 863 OFFCURVE",
"527 863 CURVE SMOOTH",
"444 863 OFFCURVE",
"394 845 OFFCURVE",
"355 796 CURVE",
"327 838 OFFCURVE",
"281 862 OFFCURVE",
"220 862 CURVE SMOOTH",
"128 862 OFFCURVE",
"58 799 OFFCURVE",
"58 701 CURVE SMOOTH",
"58 607 OFFCURVE",
"120 512 OFFCURVE",
"235 466 CURVE"
);
}
);
};
layerId = "62C1AEDA-2B35-4B7D-84F0-C5D6ED04B717";
name = Bold;
paths = (
{
closed = 1;
nodes = (
"301 576 LINE",
"221 578 OFFCURVE",
"179 628 OFFCURVE",
"179 698 CURVE SMOOTH",
"179 739 OFFCURVE",
"197 768 OFFCURVE",
"227 768 CURVE SMOOTH",
"265 768 OFFCURVE",
"274 724 OFFCURVE",
"274 674 CURVE SMOOTH",
"274 646 LINE",
"406 646 LINE",
"406 661 LINE SMOOTH",
"406 715 OFFCURVE",
"431 766 OFFCURVE",
"502 766 CURVE",
"496 789 LINE",
"462 771 OFFCURVE",
"447 743 OFFCURVE",
"447 705 CURVE SMOOTH",
"447 631 OFFCURVE",
"506 586 OFFCURVE",
"583 586 CURVE SMOOTH",
"663 586 OFFCURVE",
"720 649 OFFCURVE",
"720 728 CURVE SMOOTH",
"720 819 OFFCURVE",
"641 879 OFFCURVE",
"531 879 CURVE SMOOTH",
"437 879 OFFCURVE",
"359 830 OFFCURVE",
"340 760 CURVE",
"332 828 OFFCURVE",
"284 879 OFFCURVE",
"201 879 CURVE SMOOTH",
"102 879 OFFCURVE",
"41 792 OFFCURVE",
"41 702 CURVE SMOOTH",
"41 572 OFFCURVE",
"130 471 OFFCURVE",
"301 471 CURVE"
);
},
{
closed = 1;
nodes = (
"548 696 OFFCURVE",
"533 711 OFFCURVE",
"533 735 CURVE SMOOTH",
"533 756 OFFCURVE",
"547 771 OFFCURVE",
"569 771 CURVE SMOOTH",
"591 771 OFFCURVE",
"605 757 OFFCURVE",
"605 734 CURVE SMOOTH",
"605 712 OFFCURVE",
"591 696 OFFCURVE",
"571 696 CURVE SMOOTH"
);
}
);
width = 850;
},
{
layerId = "D4CB3B6C-5708-466F-BC9B-F67484F28429";
name = Light;
paths = (
{
closed = 1;
nodes = (
"281 546 LINE",
"193 548 OFFCURVE",
"149 602 OFFCURVE",
"149 684 CURVE SMOOTH",
"149 730 OFFCURVE",
"171 780 OFFCURVE",
"216 780 CURVE SMOOTH",
"266 780 OFFCURVE",
"283 722 OFFCURVE",
"283 668 CURVE SMOOTH",
"283 652 LINE",
"344 652 LINE",
"344 668 LINE",
"344 732 OFFCURVE",
"381 784 OFFCURVE",
"451 784 CURVE",
"466 802 LINE",
"408 789 OFFCURVE",
"392 750 OFFCURVE",
"392 715 CURVE SMOOTH",
"392 661 OFFCURVE",
"439 627 OFFCURVE",
"491 627 CURVE SMOOTH",
"550 627 OFFCURVE",
"593 666 OFFCURVE",
"593 726 CURVE SMOOTH",
"593 796 OFFCURVE",
"531 834 OFFCURVE",
"460 834 CURVE SMOOTH",
"377 834 OFFCURVE",
"332 787 OFFCURVE",
"315 731 CURVE",
"307 790 OFFCURVE",
"275 832 OFFCURVE",
"212 832 CURVE SMOOTH",
"130 832 OFFCURVE",
"87 756 OFFCURVE",
"87 686 CURVE SMOOTH",
"87 573 OFFCURVE",
"161 499 OFFCURVE",
"281 499 CURVE"
);
},
{
closed = 1;
nodes = (
"462 673 OFFCURVE",
"446 696 OFFCURVE",
"446 725 CURVE SMOOTH",
"446 750 OFFCURVE",
"461 780 OFFCURVE",
"492 780 CURVE SMOOTH",
"523 780 OFFCURVE",
"538 753 OFFCURVE",
"538 726 CURVE SMOOTH",
"538 696 OFFCURVE",
"520 673 OFFCURVE",
"491 673 CURVE SMOOTH"
);
}
);
width = 743;
}
);
unicode = 0C4A;
},
{
glyphname = tlmOO;
lastChange = "2015-09-08 12:47:02 +0000";
layers = (
{
background = {
paths = (
{
closed = 1;
nodes = (
"628 674 OFFCURVE",
"613 689 OFFCURVE",
"613 713 CURVE SMOOTH",
"613 734 OFFCURVE",
"627 749 OFFCURVE",
"649 749 CURVE SMOOTH",
"671 749 OFFCURVE",
"685 735 OFFCURVE",
"685 712 CURVE SMOOTH",
"685 690 OFFCURVE",
"671 674 OFFCURVE",
"651 674 CURVE SMOOTH"
);
},
{
closed = 1;
nodes = (
"654 862 OFFCURVE",
"645 868 OFFCURVE",
"645 882 CURVE SMOOTH",
"645 901 OFFCURVE",
"659 908 OFFCURVE",
"697 908 CURVE",
"763 908 LINE",
"763 1020 LINE",
"658 1020 LINE",
"578 1020 OFFCURVE",
"531 977 OFFCURVE",
"531 924 CURVE SMOOTH",
"531 895 OFFCURVE",
"545 869 OFFCURVE",
"578 853 CURVE",
"503 853 OFFCURVE",
"409 810 OFFCURVE",
"390 738 CURVE",
"382 806 OFFCURVE",
"324 862 OFFCURVE",
"231 862 CURVE SMOOTH",
"117 862 OFFCURVE",
"51 772 OFFCURVE",
"51 675 CURVE SMOOTH",
"51 568 OFFCURVE",
"122 461 OFFCURVE",
"291 461 CURVE",
"291 576 LINE",
"226 578 OFFCURVE",
"190 617 OFFCURVE",
"190 675 CURVE SMOOTH",
"190 714 OFFCURVE",
"211 746 OFFCURVE",
"250 746 CURVE SMOOTH",
"301 746 OFFCURVE",
"319 702 OFFCURVE",
"319 652 CURVE SMOOTH",
"319 624 LINE",
"461 624 LINE",
"461 642 LINE SMOOTH",
"461 709 OFFCURVE",
"511 744 OFFCURVE",
"582 744 CURVE",
"571 767 LINE",
"537 749 OFFCURVE",
"522 721 OFFCURVE",
"522 683 CURVE SMOOTH",
"522 604 OFFCURVE",
"583 564 OFFCURVE",
"663 564 CURVE SMOOTH",
"743 564 OFFCURVE",
"810 619 OFFCURVE",
"810 706 CURVE SMOOTH",
"810 805 OFFCURVE",
"763 828 OFFCURVE",
"673 856 CURVE"
);
}
);
};
layerId = "62C1AEDA-2B35-4B7D-84F0-C5D6ED04B717";
name = Bold;
paths = (
{
closed = 1;
nodes = (
"301 576 LINE",
"221 578 OFFCURVE",
"179 628 OFFCURVE",
"179 698 CURVE SMOOTH",
"179 739 OFFCURVE",
"197 768 OFFCURVE",
"227 768 CURVE SMOOTH",
"265 768 OFFCURVE",
"274 724 OFFCURVE",
"274 674 CURVE SMOOTH",
"274 646 LINE",
"406 646 LINE",
"406 661 LINE SMOOTH",
"406 715 OFFCURVE",
"431 766 OFFCURVE",
"502 766 CURVE",
"496 789 LINE",
"462 771 OFFCURVE",
"447 743 OFFCURVE",
"447 705 CURVE SMOOTH",
"447 631 OFFCURVE",
"506 586 OFFCURVE",
"583 586 CURVE SMOOTH",
"663 586 OFFCURVE",
"720 649 OFFCURVE",
"720 728 CURVE SMOOTH",
"720 819 OFFCURVE",
"641 879 OFFCURVE",
"531 879 CURVE SMOOTH",
"437 879 OFFCURVE",
"359 830 OFFCURVE",
"340 760 CURVE",
"332 828 OFFCURVE",
"282 879 OFFCURVE",
"201 879 CURVE SMOOTH",
"102 879 OFFCURVE",
"41 792 OFFCURVE",
"41 702 CURVE SMOOTH",
"41 572 OFFCURVE",
"130 471 OFFCURVE",
"301 471 CURVE"
);
},
{
closed = 1;
nodes = (
"548 696 OFFCURVE",
"533 711 OFFCURVE",
"533 735 CURVE SMOOTH",
"533 756 OFFCURVE",
"547 771 OFFCURVE",
"569 771 CURVE SMOOTH",
"591 771 OFFCURVE",
"605 757 OFFCURVE",
"605 734 CURVE SMOOTH",
"605 712 OFFCURVE",
"591 696 OFFCURVE",
"571 696 CURVE SMOOTH"
);
},
{
closed = 1;
nodes = (
"642 854 LINE",
"626 861 OFFCURVE",
"615 869 OFFCURVE",
"615 883 CURVE SMOOTH",
"615 902 OFFCURVE",
"629 909 OFFCURVE",
"667 909 CURVE",
"723 909 LINE",
"723 1021 LINE",
"628 1021 LINE",
"548 1021 OFFCURVE",
"501 988 OFFCURVE",
"501 935 CURVE SMOOTH",
"501 886 OFFCURVE",
"536 858 OFFCURVE",
"607 842 CURVE"
);
}
);
width = 830;
},
{
layerId = "D4CB3B6C-5708-466F-BC9B-F67484F28429";
name = Light;
paths = (
{
closed = 1;
nodes = (
"281 546 LINE",
"193 548 OFFCURVE",
"149 602 OFFCURVE",
"149 684 CURVE SMOOTH",
"149 730 OFFCURVE",
"171 780 OFFCURVE",
"216 780 CURVE SMOOTH",
"266 780 OFFCURVE",
"283 722 OFFCURVE",
"283 668 CURVE SMOOTH",
"283 652 LINE",
"344 652 LINE",
"344 668 LINE",
"344 732 OFFCURVE",
"381 784 OFFCURVE",
"451 784 CURVE",
"466 802 LINE",
"408 789 OFFCURVE",
"392 750 OFFCURVE",
"392 715 CURVE SMOOTH",
"392 661 OFFCURVE",
"439 627 OFFCURVE",
"491 627 CURVE SMOOTH",
"550 627 OFFCURVE",
"593 666 OFFCURVE",
"593 726 CURVE SMOOTH",
"593 796 OFFCURVE",
"531 834 OFFCURVE",
"460 834 CURVE SMOOTH",
"377 834 OFFCURVE",
"332 787 OFFCURVE",
"315 731 CURVE",
"307 790 OFFCURVE",
"274 832 OFFCURVE",
"212 832 CURVE SMOOTH",
"130 832 OFFCURVE",
"87 756 OFFCURVE",
"87 686 CURVE SMOOTH",
"87 573 OFFCURVE",
"161 499 OFFCURVE",
"281 499 CURVE"
);
},
{
closed = 1;
nodes = (
"462 673 OFFCURVE",
"446 696 OFFCURVE",
"446 725 CURVE SMOOTH",
"446 750 OFFCURVE",
"461 780 OFFCURVE",
"492 780 CURVE SMOOTH",
"523 780 OFFCURVE",
"538 753 OFFCURVE",
"538 726 CURVE SMOOTH",
"538 696 OFFCURVE",
"520 673 OFFCURVE",
"491 673 CURVE SMOOTH"
);
},
{
closed = 1;
nodes = (
"538 816 LINE",
"514 832 OFFCURVE",
"503 848 OFFCURVE",
"503 869 CURVE SMOOTH",
"503 889 OFFCURVE",
"516 902 OFFCURVE",
"542 902 CURVE SMOOTH",
"598 902 LINE",
"598 955 LINE",
"521 955 LINE SMOOTH",
"465 955 OFFCURVE",
"441 924 OFFCURVE",
"441 892 CURVE SMOOTH",
"441 861 OFFCURVE",
"462 833 OFFCURVE",
"503 817 CURVE"
);
}
);
width = 724;
}
);
unicode = 0C4B;
},
{
glyphname = tlmAU;
lastChange = "2015-09-08 12:47:02 +0000";
layers = (
{
background = {
paths = (
{
closed = 1;
nodes = (
"191 644 LINE",
"235 644 OFFCURVE",
"245 626 OFFCURVE",
"245 602 CURVE SMOOTH",
"245 579 OFFCURVE",
"230 566 OFFCURVE",
"185 566 CURVE SMOOTH",
"57 566 LINE",
"57 456 LINE",
"195 456 LINE SMOOTH",
"308 456 OFFCURVE",
"357 499 OFFCURVE",
"357 565 CURVE SMOOTH",
"357 625 OFFCURVE",
"315 651 OFFCURVE",
"257 651 CURVE"
);
},
{
closed = 1;
nodes = (
"576 644 LINE",
"617 644 OFFCURVE",
"636 617 OFFCURVE",
"636 586 CURVE SMOOTH",
"636 553 OFFCURVE",
"616 532 OFFCURVE",
"585 532 CURVE SMOOTH",
"554 532 OFFCURVE",
"534 554 OFFCURVE",
"534 586 CURVE SMOOTH",
"534 610 OFFCURVE",
"546 632 OFFCURVE",
"569 647 CURVE",
"476 670 LINE",
"455 661 OFFCURVE",
"420 631 OFFCURVE",
"420 565 CURVE SMOOTH",
"420 489 OFFCURVE",
"480 417 OFFCURVE",
"585 417 CURVE SMOOTH",
"682 417 OFFCURVE",
"754 486 OFFCURVE",
"754 586 CURVE SMOOTH",
"754 687 OFFCURVE",
"677 755 OFFCURVE",
"561 755 CURVE SMOOTH",
"-42 755 LINE",
"-42 644 LINE"
);
}
);
};
layerId = "62C1AEDA-2B35-4B7D-84F0-C5D6ED04B717";
name = Bold;
paths = (
{
closed = 1;
nodes = (
"687 427 OFFCURVE",
"751 496 OFFCURVE",
"751 583 CURVE SMOOTH",
"751 683 OFFCURVE",
"671 755 OFFCURVE",
"528 755 CURVE SMOOTH",
"-41 755 LINE",
"-41 643 LINE",
"496 643 LINE",
"534 690 LINE",
"465 685 OFFCURVE",
"423 635 OFFCURVE",
"423 567 CURVE SMOOTH",
"423 486 OFFCURVE",
"486 427 OFFCURVE",
"586 427 CURVE SMOOTH"
);
},
{
closed = 1;
nodes = (
"204 455 LINE SMOOTH",
"314 455 OFFCURVE",
"364 496 OFFCURVE",
"364 567 CURVE SMOOTH",
"364 633 OFFCURVE",
"321 672 OFFCURVE",
"229 672 CURVE SMOOTH",
"142 672 LINE",
"142 643 LINE",
"187 643 LINE SMOOTH",
"218 643 OFFCURVE",
"234 626 OFFCURVE",
"234 604 CURVE SMOOTH",
"234 581 OFFCURVE",
"218 567 OFFCURVE",
"184 567 CURVE SMOOTH",
"57 567 LINE",
"57 455 LINE"
);
},
{
closed = 1;
nodes = (
"558 536 OFFCURVE",
"540 555 OFFCURVE",
"540 585 CURVE SMOOTH",
"540 614 OFFCURVE",
"556 638 OFFCURVE",
"585 638 CURVE SMOOTH",
"615 638 OFFCURVE",
"631 617 OFFCURVE",
"631 586 CURVE SMOOTH",
"631 555 OFFCURVE",
"613 536 OFFCURVE",
"586 536 CURVE SMOOTH"
);
}
);
width = 803;
},
{
layerId = "D4CB3B6C-5708-466F-BC9B-F67484F28429";
name = Light;
paths = (
{
closed = 1;
nodes = (
"602 446 OFFCURVE",
"651 505 OFFCURVE",
"651 572 CURVE SMOOTH",
"651 648 OFFCURVE",
"607 716 OFFCURVE",
"488 716 CURVE SMOOTH",
"-5 716 LINE",
"-5 662 LINE",
"480 662 LINE",
"485 681 LINE",
"421 674 OFFCURVE",
"395 621 OFFCURVE",
"395 564 CURVE SMOOTH",
"395 496 OFFCURVE",
"446 446 OFFCURVE",
"526 446 CURVE SMOOTH"
);
},
{
closed = 1;
nodes = (
"209 504 LINE",
"280 504 OFFCURVE",
"323 543 OFFCURVE",
"323 600 CURVE SMOOTH",
"323 653 OFFCURVE",
"280 683 OFFCURVE",
"216 683 CURVE SMOOTH",
"171 683 LINE",
"171 662 LINE",
"188 662 LINE SMOOTH",
"236 662 OFFCURVE",
"262 643 OFFCURVE",
"262 608 CURVE SMOOTH",
"262 577 OFFCURVE",
"241 558 OFFCURVE",
"199 558 CURVE SMOOTH",
"79 558 LINE",
"79 504 LINE"
);
},
{
closed = 1;
nodes = (
"478 498 OFFCURVE",
"455 530 OFFCURVE",
"455 575 CURVE SMOOTH",
"455 611 OFFCURVE",
"476 652 OFFCURVE",
"523 652 CURVE SMOOTH",
"568 652 OFFCURVE",
"591 614 OFFCURVE",
"591 573 CURVE SMOOTH",
"591 532 OFFCURVE",
"566 498 OFFCURVE",
"523 498 CURVE SMOOTH"
);
}
);
width = 668;
}
);
unicode = 0C4C;
},
{
glyphname = tlLengthmark;
lastChange = "2015-09-08 12:47:02 +0000";
layers = (
{
background = {
paths = (
{
closed = 1;
nodes = (
"367 674 LINE",
"313 698 OFFCURVE",
"269 731 OFFCURVE",
"269 778 CURVE SMOOTH",
"269 809 OFFCURVE",
"286 832 OFFCURVE",
"319 832 CURVE SMOOTH",
"345 832 OFFCURVE",
"366 815 OFFCURVE",
"376 788 CURVE",
"469 855 LINE",
"449 901 OFFCURVE",
"400 950 OFFCURVE",
"315 950 CURVE SMOOTH",
"209 950 OFFCURVE",
"142 876 OFFCURVE",
"142 777 CURVE SMOOTH",
"142 682 OFFCURVE",
"217 611 OFFCURVE",
"297 588 CURVE"
);
}
);
};
layerId = "62C1AEDA-2B35-4B7D-84F0-C5D6ED04B717";
name = Bold;
paths = (
{
closed = 1;
nodes = (
"423 928 LINE",
"387 942 OFFCURVE",
"353 948 OFFCURVE",
"318 948 CURVE SMOOTH",
"206 948 OFFCURVE",
"141 874 OFFCURVE",
"141 785 CURVE SMOOTH",
"141 715 OFFCURVE",
"175 658 OFFCURVE",
"220 617 CURVE",
"345 617 LINE",
"300 666 OFFCURVE",
"283 711 OFFCURVE",
"283 752 CURVE SMOOTH",
"283 802 OFFCURVE",
"309 836 OFFCURVE",
"356 836 CURVE SMOOTH",
"380 836 OFFCURVE",
"400 830 OFFCURVE",
"423 819 CURVE"
);
}
);
width = 600;
},
{
layerId = "D4CB3B6C-5708-466F-BC9B-F67484F28429";
name = Light;
paths = (
{
closed = 1;
nodes = (
"383 856 LINE",
"359 868 OFFCURVE",
"333 872 OFFCURVE",
"308 872 CURVE SMOOTH",
"231 872 OFFCURVE",
"170 821 OFFCURVE",
"170 733 CURVE SMOOTH",
"170 669 OFFCURVE",
"207 615 OFFCURVE",
"242 585 CURVE",
"300 585 LINE",
"264 624 OFFCURVE",
"232 671 OFFCURVE",
"232 727 CURVE SMOOTH",
"232 790 OFFCURVE",
"266 821 OFFCURVE",
"316 821 CURVE SMOOTH",
"337 821 OFFCURVE",
"360 816 OFFCURVE",
"383 804 CURVE"
);
}
);
width = 569;
}
);
unicode = 0C55;
},
{
color = 8;
glyphname = tlAIlengthmark;
lastChange = "2015-09-17 13:09:36 +0000";
layers = (
{
anchors = (
{
name = _bottom;
position = "{0, 0}";
},
{
name = bottom;
position = "{0, -333}";
}
);
background = {
paths = (
{
closed = 1;
nodes = (
"22 -71 OFFCURVE",
"-38 1 OFFCURVE",
"-143 1 CURVE SMOOTH",
"-240 1 OFFCURVE",
"-312 -68 OFFCURVE",
"-312 -168 CURVE SMOOTH",
"-312 -269 OFFCURVE",
"-235 -337 OFFCURVE",
"-119 -337 CURVE SMOOTH",
"309 -337 LINE",
"309 -222 LINE",
"1 -222 LINE",
"13 -205 OFFCURVE",
"22 -181 OFFCURVE",
"22 -147 CURVE SMOOTH"
);
},
{
closed = 1;
nodes = (
"-134 -222 LINE SMOOTH",
"-175 -222 OFFCURVE",
"-194 -199 OFFCURVE",
"-194 -168 CURVE SMOOTH",
"-194 -135 OFFCURVE",
"-174 -114 OFFCURVE",
"-143 -114 CURVE SMOOTH",
"-112 -114 OFFCURVE",
"-92 -136 OFFCURVE",
"-92 -168 CURVE SMOOTH",
"-92 -188 OFFCURVE",
"-101 -207 OFFCURVE",
"-117 -222 CURVE"
);
}
);
};
layerId = "62C1AEDA-2B35-4B7D-84F0-C5D6ED04B717";
name = Bold;
paths = (
{
closed = 1;
nodes = (
"309 -333 LINE",
"309 -221 LINE",
"-54 -221 LINE",
"-92 -268 LINE",
"-23 -263 OFFCURVE",
"19 -213 OFFCURVE",
"19 -145 CURVE SMOOTH",
"19 -64 OFFCURVE",
"-44 -5 OFFCURVE",
"-144 -5 CURVE SMOOTH",
"-245 -5 OFFCURVE",
"-309 -74 OFFCURVE",
"-309 -161 CURVE SMOOTH",
"-309 -261 OFFCURVE",
"-229 -333 OFFCURVE",
"-86 -333 CURVE SMOOTH"
);
},
{
closed = 1;
nodes = (
"-173 -216 OFFCURVE",
"-189 -195 OFFCURVE",
"-189 -164 CURVE SMOOTH",
"-189 -133 OFFCURVE",
"-171 -114 OFFCURVE",
"-144 -114 CURVE SMOOTH",
"-116 -114 OFFCURVE",
"-98 -133 OFFCURVE",
"-98 -163 CURVE SMOOTH",
"-98 -192 OFFCURVE",
"-114 -216 OFFCURVE",
"-143 -216 CURVE SMOOTH"
);
}
);
width = 0;
},
{
anchors = (
{
name = _bottom;
position = "{0, 0}";
},
{
name = bottom;
position = "{0, -292}";
}
);
layerId = "D4CB3B6C-5708-466F-BC9B-F67484F28429";
name = Light;
paths = (
{
closed = 1;
nodes = (
"272 -292 LINE",
"272 -238 LINE",
"-101 -238 LINE",
"-105 -257 LINE",
"-42 -250 OFFCURVE",
"-15 -197 OFFCURVE",
"-15 -140 CURVE SMOOTH",
"-15 -73 OFFCURVE",
"-67 -22 OFFCURVE",
"-146 -22 CURVE SMOOTH",
"-223 -22 OFFCURVE",
"-272 -80 OFFCURVE",
"-272 -147 CURVE SMOOTH",
"-272 -224 OFFCURVE",
"-228 -292 OFFCURVE",
"-109 -292 CURVE SMOOTH"
);
},
{
closed = 1;
nodes = (
"-189 -228 OFFCURVE",
"-212 -190 OFFCURVE",
"-212 -148 CURVE SMOOTH",
"-212 -108 OFFCURVE",
"-187 -74 OFFCURVE",
"-144 -74 CURVE SMOOTH",
"-99 -74 OFFCURVE",
"-76 -106 OFFCURVE",
"-76 -150 CURVE SMOOTH",
"-76 -187 OFFCURVE",
"-97 -228 OFFCURVE",
"-144 -228 CURVE SMOOTH"
);
}
);
width = 0;
}
);
unicode = 0C56;
},
{
color = 1;
glyphname = tlKA;
lastChange = "2015-09-17 09:32:46 +0000";
layers = (
{
anchors = (
{
name = bottom;
position = "{265.5, 0}";
},
{
name = bottom.kssa;
position = "{265, 0}";
}
);
layerId = "62C1AEDA-2B35-4B7D-84F0-C5D6ED04B717";
name = Bold;
paths = (
{
closed = 1;
nodes = (
"383 -4 OFFCURVE",
"481 62 OFFCURVE",
"481 178 CURVE SMOOTH",
"481 357 OFFCURVE",
"207 325 OFFCURVE",
"207 411 CURVE SMOOTH",
"207 444 OFFCURVE",
"241 464 OFFCURVE",
"301 464 CURVE SMOOTH",
"338 464 OFFCURVE",
"397 453 OFFCURVE",
"435 434 CURVE",
"435 559 LINE",
"392 572 OFFCURVE",
"342 579 OFFCURVE",
"294 579 CURVE SMOOTH",
"153 579 OFFCURVE",
"58 511 OFFCURVE",
"58 411 CURVE SMOOTH",
"58 214 OFFCURVE",
"331 261 OFFCURVE",
"331 166 CURVE SMOOTH",
"331 127 OFFCURVE",
"298 108 OFFCURVE",
"234 108 CURVE SMOOTH",
"177 108 OFFCURVE",
"112 135 OFFCURVE",
"60 167 CURVE",
"60 37 LINE",
"108 12 OFFCURVE",
"168 -4 OFFCURVE",
"246 -4 CURVE SMOOTH"
);
},
{
closed = 1;
nodes = (
"337 494 LINE",
"571 799 LINE",
"422 799 LINE",
"252 576 LINE",
"172 677 LINE",
"10 677 LINE",
"168 494 LINE"
);
}
);
width = 531;
},
{
anchors = (
{
name = bottom;
position = "{199.5, 0}";
},
{
name = bottom.kssa;
position = "{199, 0}";
}
);
layerId = "D4CB3B6C-5708-466F-BC9B-F67484F28429";
name = Light;
paths = (
{
closed = 1;
nodes = (
"277 -4 OFFCURVE",
"351 60 OFFCURVE",
"351 149 CURVE SMOOTH",
"351 335 OFFCURVE",
"84 281 OFFCURVE",
"84 404 CURVE SMOOTH",
"84 456 OFFCURVE",
"128 493 OFFCURVE",
"203 493 CURVE SMOOTH",
"238 493 OFFCURVE",
"274 487 OFFCURVE",
"312 470 CURVE",
"312 527 LINE",
"277 541 OFFCURVE",
"242 546 OFFCURVE",
"197 546 CURVE SMOOTH",
"87 546 OFFCURVE",
"22 481 OFFCURVE",
"22 404 CURVE SMOOTH",
"22 227 OFFCURVE",
"287 291 OFFCURVE",
"287 148 CURVE SMOOTH",
"287 90 OFFCURVE",
"251 48 OFFCURVE",
"173 48 CURVE SMOOTH",
"128 48 OFFCURVE",
"70 64 OFFCURVE",
"21 90 CURVE",
"21 31 LINE",
"63 9 OFFCURVE",
"114 -4 OFFCURVE",
"175 -4 CURVE SMOOTH"
);
},
{
closed = 1;
nodes = (
"218 495 LINE",
"419 757 LINE",
"346 757 LINE",
"185 546 LINE",
"109 642 LINE",
"32 642 LINE",
"152 495 LINE"
);
}
);
width = 399;
}
);
unicode = 0C15;
},
{
color = 1;
glyphname = tlKHA;
lastChange = "2015-09-17 07:50:24 +0000";
layers = (
{
anchors = (
{
name = bottom;
position = "{470.5, 0}";
}
);
background = {
paths = (
{
closed = 1;
nodes = (
"466 -10 OFFCURVE",
"597 162 OFFCURVE",
"597 331 CURVE SMOOTH",
"597 478 OFFCURVE",
"503 586 OFFCURVE",
"373 586 CURVE SMOOTH",
"263 586 OFFCURVE",
"200 520 OFFCURVE",
"200 442 CURVE SMOOTH",
"200 360 OFFCURVE",
"268 316 OFFCURVE",
"340 316 CURVE SMOOTH",
"371 316 OFFCURVE",
"399 321 OFFCURVE",
"423 335 CURVE",
"423 431 LINE",
"406 419 OFFCURVE",
"389 413 OFFCURVE",
"368 413 CURVE SMOOTH",
"342 413 OFFCURVE",
"324 421 OFFCURVE",
"324 441 CURVE SMOOTH",
"324 462 OFFCURVE",
"340 474 OFFCURVE",
"373 474 CURVE SMOOTH",
"435 474 OFFCURVE",
"467 413 OFFCURVE",
"467 339 CURVE SMOOTH",
"467 207 OFFCURVE",
"393 102 OFFCURVE",
"242 102 CURVE SMOOTH",
"193 102 OFFCURVE",
"152 115 OFFCURVE",
"152 151 CURVE SMOOTH",
"152 174 OFFCURVE",
"170 192 OFFCURVE",
"202 192 CURVE SMOOTH",
"325 192 OFFCURVE",
"437 -9 OFFCURVE",
"626 -9 CURVE SMOOTH",
"782 -9 OFFCURVE",
"901 114 OFFCURVE",
"901 300 CURVE SMOOTH",
"901 448 OFFCURVE",
"819 575 OFFCURVE",
"632 575 CURVE",
"632 460 LINE",
"726 452 OFFCURVE",
"759 377 OFFCURVE",
"759 299 CURVE SMOOTH",
"759 212 OFFCURVE",
"720 117 OFFCURVE",
"618 117 CURVE SMOOTH",
"464 117 OFFCURVE",
"376 308 OFFCURVE",
"185 308 CURVE SMOOTH",
"86 308 OFFCURVE",
"20 245 OFFCURVE",
"20 153 CURVE SMOOTH",
"20 58 OFFCURVE",
"101 -10 OFFCURVE",
"240 -10 CURVE SMOOTH"
);
},
{
closed = 1;
nodes = (
"524 -206 LINE",
"524 -191 LINE",
"480 -6 LINE",
"414 -6 LINE",
"370 -191 LINE",
"370 -206 LINE"
);
}
);
};
layerId = "62C1AEDA-2B35-4B7D-84F0-C5D6ED04B717";
name = Bold;
paths = (
{
closed = 1;
nodes = (
"466 -10 OFFCURVE",
"597 162 OFFCURVE",
"597 331 CURVE SMOOTH",
"597 478 OFFCURVE",
"503 586 OFFCURVE",
"373 586 CURVE SMOOTH",
"263 586 OFFCURVE",
"200 520 OFFCURVE",
"200 442 CURVE SMOOTH",
"200 360 OFFCURVE",
"268 316 OFFCURVE",
"340 316 CURVE SMOOTH",
"371 316 OFFCURVE",
"399 321 OFFCURVE",
"423 335 CURVE",
"423 431 LINE",
"406 419 OFFCURVE",
"389 413 OFFCURVE",
"368 413 CURVE SMOOTH",
"342 413 OFFCURVE",
"324 421 OFFCURVE",
"324 441 CURVE SMOOTH",
"324 462 OFFCURVE",
"340 474 OFFCURVE",
"373 474 CURVE SMOOTH",
"435 474 OFFCURVE",
"467 413 OFFCURVE",
"467 339 CURVE SMOOTH",
"467 207 OFFCURVE",
"393 102 OFFCURVE",
"242 102 CURVE SMOOTH",
"193 102 OFFCURVE",
"152 115 OFFCURVE",
"152 151 CURVE SMOOTH",
"152 174 OFFCURVE",
"170 192 OFFCURVE",
"202 192 CURVE SMOOTH",
"322 192 OFFCURVE",
"434 -9 OFFCURVE",
"626 -9 CURVE SMOOTH",
"791 -9 OFFCURVE",
"901 115 OFFCURVE",
"901 289 CURVE SMOOTH",
"901 439 OFFCURVE",
"822 575 OFFCURVE",
"632 575 CURVE",
"632 460 LINE",
"726 452 OFFCURVE",
"759 371 OFFCURVE",
"759 286 CURVE SMOOTH",
"759 191 OFFCURVE",
"711 117 OFFCURVE",
"618 117 CURVE SMOOTH",
"464 117 OFFCURVE",
"376 308 OFFCURVE",
"185 308 CURVE SMOOTH",
"86 308 OFFCURVE",
"20 245 OFFCURVE",
"20 153 CURVE SMOOTH",
"20 58 OFFCURVE",
"101 -10 OFFCURVE",
"240 -10 CURVE SMOOTH"
);
},
{
closed = 1;
nodes = (
"524 -206 LINE",
"524 -191 LINE",
"480 -6 LINE",
"414 -6 LINE",
"370 -191 LINE",
"370 -206 LINE"
);
}
);
width = 941;
},
{
anchors = (
{
name = bottom;
position = "{415, 0}";
}
);
layerId = "D4CB3B6C-5708-466F-BC9B-F67484F28429";
name = Light;
paths = (
{
closed = 1;
nodes = (
"379 -9 OFFCURVE",
"505 148 OFFCURVE",
"505 330 CURVE SMOOTH",
"505 451 OFFCURVE",
"436 556 OFFCURVE",
"328 556 CURVE SMOOTH",
"251 556 OFFCURVE",
"196 500 OFFCURVE",
"196 432 CURVE SMOOTH",
"196 361 OFFCURVE",
"251 318 OFFCURVE",
"319 318 CURVE SMOOTH",
"346 318 OFFCURVE",
"369 323 OFFCURVE",
"392 335 CURVE",
"392 385 LINE",
"370 374 OFFCURVE",
"351 371 OFFCURVE",
"327 371 CURVE SMOOTH",
"283 371 OFFCURVE",
"258 397 OFFCURVE",
"258 434 CURVE SMOOTH",
"258 470 OFFCURVE",
"281 503 OFFCURVE",
"330 503 CURVE SMOOTH",
"397 503 OFFCURVE",
"442 421 OFFCURVE",
"442 331 CURVE SMOOTH",
"442 179 OFFCURVE",
"343 43 OFFCURVE",
"199 43 CURVE SMOOTH",
"129 43 OFFCURVE",
"82 69 OFFCURVE",
"82 116 CURVE SMOOTH",
"82 153 OFFCURVE",
"110 182 OFFCURVE",
"161 182 CURVE SMOOTH",
"281 182 OFFCURVE",
"379 -9 OFFCURVE",
"554 -9 CURVE SMOOTH",
"693 -9 OFFCURVE",
"785 108 OFFCURVE",
"785 268 CURVE SMOOTH",
"785 422 OFFCURVE",
"700 541 OFFCURVE",
"560 546 CURVE",
"560 490 LINE",
"667 480 OFFCURVE",
"722 388 OFFCURVE",
"722 265 CURVE SMOOTH",
"722 139 OFFCURVE",
"657 45 OFFCURVE",
"553 45 CURVE SMOOTH",
"410 45 OFFCURVE",
"309 235 OFFCURVE",
"151 235 CURVE SMOOTH",
"77 235 OFFCURVE",
"20 183 OFFCURVE",
"20 118 CURVE SMOOTH",
"20 38 OFFCURVE",
"90 -9 OFFCURVE",
"197 -9 CURVE SMOOTH"
);
},
{
closed = 1;
nodes = (
"424 -173 LINE",
"424 -159 LINE",
"399 4 LINE",
"366 4 LINE",
"341 -159 LINE",
"341 -173 LINE"
);
}
);
width = 830;
}
);
leftMetricsKey = tlE;
rightMetricsKey = tlvR;
unicode = 0C16;
},
{
color = 1;
glyphname = tlGA;
lastChange = "2015-09-17 07:50:24 +0000";
layers = (
{
anchors = (
{
name = bottom;
position = "{283.5, 0}";
}
);
layerId = "62C1AEDA-2B35-4B7D-84F0-C5D6ED04B717";
name = Bold;
paths = (
{
closed = 1;
nodes = (
"521 0 LINE",
"535 51 OFFCURVE",
"544 135 OFFCURVE",
"544 201 CURVE SMOOTH",
"544 393 OFFCURVE",
"481 576 OFFCURVE",
"287 576 CURVE SMOOTH",
"93 576 OFFCURVE",
"30 393 OFFCURVE",
"30 201 CURVE SMOOTH",
"30 135 OFFCURVE",
"39 51 OFFCURVE",
"53 0 CURVE",
"202 0 LINE",
"184 58 OFFCURVE",
"173 141 OFFCURVE",
"173 226 CURVE SMOOTH",
"173 342 OFFCURVE",
"204 468 OFFCURVE",
"287 468 CURVE SMOOTH",
"369 468 OFFCURVE",
"401 342 OFFCURVE",
"401 226 CURVE SMOOTH",
"401 141 OFFCURVE",
"390 58 OFFCURVE",
"372 0 CURVE"
);
},
{
closed = 1;
nodes = (
"373 494 LINE",
"607 799 LINE",
"458 799 LINE",
"288 576 LINE",
"208 677 LINE",
"46 677 LINE",
"204 494 LINE"
);
}
);
width = 567;
},
{
anchors = (
{
name = bottom;
position = "{259.5, 0}";
}
);
layerId = "D4CB3B6C-5708-466F-BC9B-F67484F28429";
name = Light;
paths = (
{
closed = 1;
nodes = (
"431 0 LINE",
"450 67 OFFCURVE",
"460 150 OFFCURVE",
"460 223 CURVE SMOOTH",
"460 399 OFFCURVE",
"392 546 OFFCURVE",
"250 546 CURVE SMOOTH",
"108 546 OFFCURVE",
"38 399 OFFCURVE",
"38 223 CURVE SMOOTH",
"38 150 OFFCURVE",
"47 67 OFFCURVE",
"66 0 CURVE",
"132 0 LINE",
"111 66 OFFCURVE",
"100 149 OFFCURVE",
"100 223 CURVE SMOOTH",
"100 368 OFFCURVE",
"147 494 OFFCURVE",
"250 494 CURVE SMOOTH",
"353 494 OFFCURVE",
"398 368 OFFCURVE",
"398 223 CURVE SMOOTH",
"398 149 OFFCURVE",
"387 66 OFFCURVE",
"366 0 CURVE"
);
},
{
closed = 1;
nodes = (
"284 495 LINE",
"484 757 LINE",
"411 757 LINE",
"251 546 LINE",
"175 642 LINE",
"97 642 LINE",
"217 495 LINE"
);
}
);
width = 519;
}
);
unicode = 0C17;
},
{
color = 1;
glyphname = tlGHA;
lastChange = "2015-09-17 07:50:24 +0000";
layers = (
{
anchors = (
{
name = bottom;
position = "{622.5, 0}";
}
);
background = {
paths = (
{
closed = 1;
nodes = (
"386 -11 OFFCURVE",
"444 37 OFFCURVE",
"459 111 CURVE",
"405 142 LINE",
"455 55 OFFCURVE",
"514 -10 OFFCURVE",
"613 -10 CURVE SMOOTH",
"764 -10 OFFCURVE",
"838 102 OFFCURVE",
"838 265 CURVE SMOOTH",
"838 428 OFFCURVE",
"749 579 OFFCURVE",
"576 579 CURVE SMOOTH",
"555 579 OFFCURVE",
"542 577 OFFCURVE",
"519 571 CURVE",
"519 448 LINE",
"533 450 OFFCURVE",
"535 451 OFFCURVE",
"548 451 CURVE SMOOTH",
"667 451 OFFCURVE",
"697 343 OFFCURVE",
"697 265 CURVE SMOOTH",
"697 183 OFFCURVE",
"677 105 OFFCURVE",
"610 105 CURVE SMOOTH",
"517 105 OFFCURVE",
"473 317 OFFCURVE",
"299 317 CURVE SMOOTH",
"192 317 OFFCURVE",
"117 245 OFFCURVE",
"117 148 CURVE SMOOTH",
"117 55 OFFCURVE",
"191 -11 OFFCURVE",
"297 -11 CURVE SMOOTH"
);
},
{
closed = 1;
nodes = (
"530 -211 LINE",
"530 -196 LINE",
"486 -11 LINE",
"420 -11 LINE",
"376 -196 LINE",
"376 -211 LINE"
);
},
{
closed = 1;
nodes = (
"275 102 OFFCURVE",
"254 125 OFFCURVE",
"254 153 CURVE SMOOTH",
"254 181 OFFCURVE",
"274 206 OFFCURVE",
"309 206 CURVE SMOOTH",
"345 206 OFFCURVE",
"365 180 OFFCURVE",
"365 154 CURVE SMOOTH",
"365 128 OFFCURVE",
"346 102 OFFCURVE",
"309 102 CURVE SMOOTH"
);
},
{
closed = 1;
nodes = (
"397 464 LINE",
"641 799 LINE",
"484 799 LINE",
"322 576 LINE",
"245 677 LINE",
"80 677 LINE",
"251 464 LINE"
);
},
{
closed = 1;
nodes = (
"1097 -10 OFFCURVE",
"1167 117 OFFCURVE",
"1167 275 CURVE SMOOTH",
"1167 441 OFFCURVE",
"1091 576 OFFCURVE",
"903 576 CURVE",
"903 461 LINE",
"987 461 OFFCURVE",
"1026 367 OFFCURVE",
"1026 269 CURVE SMOOTH",
"1026 183 OFFCURVE",
"1004 106 OFFCURVE",
"932 106 CURVE SMOOTH",
"876 106 OFFCURVE",
"838 166 OFFCURVE",
"838 265 CURVE",
"767 224 LINE",
"767 80 OFFCURVE",
"827 -10 OFFCURVE",
"944 -10 CURVE SMOOTH"
);
}
);
};
layerId = "62C1AEDA-2B35-4B7D-84F0-C5D6ED04B717";
name = Bold;
paths = (
{
closed = 1;
nodes = (
"386 -11 OFFCURVE",
"444 37 OFFCURVE",
"459 111 CURVE",
"405 142 LINE",
"455 55 OFFCURVE",
"514 -10 OFFCURVE",
"613 -10 CURVE SMOOTH",
"760 -10 OFFCURVE",
"838 97 OFFCURVE",
"838 253 CURVE SMOOTH",
"838 432 OFFCURVE",
"726 579 OFFCURVE",
"526 579 CURVE SMOOTH",
"488 579 OFFCURVE",
"449 572 OFFCURVE",
"414 561 CURVE",
"414 438 LINE",
"448 446 OFFCURVE",
"473 451 OFFCURVE",
"508 451 CURVE SMOOTH",
"634 451 OFFCURVE",
"697 367 OFFCURVE",
"697 248 CURVE SMOOTH",
"697 172 OFFCURVE",
"672 105 OFFCURVE",
"610 105 CURVE SMOOTH",
"517 105 OFFCURVE",
"473 317 OFFCURVE",
"299 317 CURVE SMOOTH",
"192 317 OFFCURVE",
"117 245 OFFCURVE",
"117 148 CURVE SMOOTH",
"117 55 OFFCURVE",
"191 -11 OFFCURVE",
"297 -11 CURVE SMOOTH"
);
},
{
closed = 1;
nodes = (
"530 -211 LINE",
"530 -196 LINE",
"486 -11 LINE",
"420 -11 LINE",
"376 -196 LINE",
"376 -211 LINE"
);
},
{
closed = 1;
nodes = (
"275 102 OFFCURVE",
"254 125 OFFCURVE",
"254 153 CURVE SMOOTH",
"254 181 OFFCURVE",
"274 206 OFFCURVE",
"309 206 CURVE SMOOTH",
"345 206 OFFCURVE",
"365 180 OFFCURVE",
"365 154 CURVE SMOOTH",
"365 128 OFFCURVE",
"346 102 OFFCURVE",
"309 102 CURVE SMOOTH"
);
},
{
closed = 1;
nodes = (
"307 464 LINE",
"551 799 LINE",
"394 799 LINE",
"232 576 LINE",
"155 677 LINE",
"-10 677 LINE",
"161 464 LINE"
);
},
{
closed = 1;
nodes = (
"1117 -11 OFFCURVE",
"1205 112 OFFCURVE",
"1205 274 CURVE SMOOTH",
"1205 446 OFFCURVE",
"1127 576 OFFCURVE",
"910 576 CURVE",
"910 461 LINE",
"1028 461 OFFCURVE",
"1064 370 OFFCURVE",
"1064 273 CURVE SMOOTH",
"1064 167 OFFCURVE",
"1021 105 OFFCURVE",
"938 105 CURVE SMOOTH",
"884 105 OFFCURVE",
"838 157 OFFCURVE",
"838 263 CURVE",
"754 263 LINE",
"754 104 OFFCURVE",
"813 -11 OFFCURVE",
"948 -11 CURVE SMOOTH"
);
}
);
width = 1245;
},
{
anchors = (
{
name = bottom;
position = "{513, 0}";
}
);
background = {
paths = (
{
closed = 1;
nodes = (
"244 -10 OFFCURVE",
"298 50 OFFCURVE",
"299 132 CURVE",
"276 152 LINE",
"299 67 OFFCURVE",
"360 -9 OFFCURVE",
"451 -9 CURVE SMOOTH",
"566 -9 OFFCURVE",
"638 88 OFFCURVE",
"638 251 CURVE SMOOTH",
"638 427 OFFCURVE",
"557 549 OFFCURVE",
"416 549 CURVE SMOOTH",
"396 549 OFFCURVE",
"380 546 OFFCURVE",
"362 542 CURVE",
"362 488 LINE",
"376 492 OFFCURVE",
"397 496 OFFCURVE",
"415 496 CURVE SMOOTH",
"518 496 OFFCURVE",
"575 385 OFFCURVE",
"575 251 CURVE SMOOTH",
"575 126 OFFCURVE",
"529 43 OFFCURVE",
"451 43 CURVE SMOOTH",
"330 43 OFFCURVE",
"330 271 OFFCURVE",
"162 271 CURVE SMOOTH",
"85 271 OFFCURVE",
"20 211 OFFCURVE",
"20 130 CURVE SMOOTH",
"20 46 OFFCURVE",
"78 -10 OFFCURVE",
"163 -10 CURVE SMOOTH"
);
},
{
closed = 1;
nodes = (
"340 -173 LINE",
"340 -159 LINE",
"315 3 LINE",
"282 3 LINE",
"258 -159 LINE",
"258 -173 LINE"
);
},
{
closed = 1;
nodes = (
"109 40 OFFCURVE",
"80 79 OFFCURVE",
"80 131 CURVE SMOOTH",
"80 180 OFFCURVE",
"113 221 OFFCURVE",
"162 221 CURVE SMOOTH",
"220 221 OFFCURVE",
"250 180 OFFCURVE",
"250 131 CURVE SMOOTH",
"250 80 OFFCURVE",
"219 40 OFFCURVE",
"164 40 CURVE SMOOTH"
);
},
{
closed = 1;
nodes = (
"225 493 LINE",
"427 757 LINE",
"353 757 LINE",
"192 546 LINE",
"117 642 LINE",
"40 642 LINE",
"160 493 LINE"
);
},
{
closed = 1;
nodes = (
"863 -9 OFFCURVE",
"929 95 OFFCURVE",
"929 261 CURVE SMOOTH",
"929 412 OFFCURVE",
"860 544 OFFCURVE",
"720 546 CURVE",
"720 491 LINE",
"809 491 OFFCURVE",
"866 390 OFFCURVE",
"866 255 CURVE SMOOTH",
"866 124 OFFCURVE",
"826 43 OFFCURVE",
"754 43 CURVE SMOOTH",
"666 43 OFFCURVE",
"638 142 OFFCURVE",
"638 250 CURVE",
"595 213 LINE",
"595 85 OFFCURVE",
"637 -9 OFFCURVE",
"753 -9 CURVE SMOOTH"
);
}
);
};
layerId = "D4CB3B6C-5708-466F-BC9B-F67484F28429";
name = Light;
paths = (
{
closed = 1;
nodes = (
"244 -10 OFFCURVE",
"298 50 OFFCURVE",
"299 132 CURVE",
"276 152 LINE",
"299 67 OFFCURVE",
"360 -9 OFFCURVE",
"451 -9 CURVE SMOOTH",
"566 -9 OFFCURVE",
"638 88 OFFCURVE",
"638 251 CURVE SMOOTH",
"638 428 OFFCURVE",
"545 549 OFFCURVE",
"370 549 CURVE SMOOTH",
"345 549 OFFCURVE",
"321 546 OFFCURVE",
"297 541 CURVE",
"297 487 LINE",
"319 493 OFFCURVE",
"349 496 OFFCURVE",
"372 496 CURVE SMOOTH",
"500 496 OFFCURVE",
"575 385 OFFCURVE",
"575 251 CURVE SMOOTH",
"575 126 OFFCURVE",
"529 43 OFFCURVE",
"451 43 CURVE SMOOTH",
"330 43 OFFCURVE",
"330 271 OFFCURVE",
"162 271 CURVE SMOOTH",
"85 271 OFFCURVE",
"20 211 OFFCURVE",
"20 130 CURVE SMOOTH",
"20 46 OFFCURVE",
"78 -10 OFFCURVE",
"163 -10 CURVE SMOOTH"
);
},
{
closed = 1;
nodes = (
"340 -173 LINE",
"340 -159 LINE",
"315 3 LINE",
"282 3 LINE",
"258 -159 LINE",
"258 -173 LINE"
);
},
{
closed = 1;
nodes = (
"109 40 OFFCURVE",
"80 79 OFFCURVE",
"80 131 CURVE SMOOTH",
"80 180 OFFCURVE",
"113 221 OFFCURVE",
"162 221 CURVE SMOOTH",
"220 221 OFFCURVE",
"250 180 OFFCURVE",
"250 131 CURVE SMOOTH",
"250 80 OFFCURVE",
"219 40 OFFCURVE",
"164 40 CURVE SMOOTH"
);
},
{
closed = 1;
nodes = (
"185 493 LINE",
"387 757 LINE",
"313 757 LINE",
"152 546 LINE",
"77 642 LINE",
"0 642 LINE",
"120 493 LINE"
);
},
{
closed = 1;
nodes = (
"886 -10 OFFCURVE",
"981 76 OFFCURVE",
"981 261 CURVE SMOOTH",
"981 411 OFFCURVE",
"883 546 OFFCURVE",
"715 546 CURVE",
"715 491 LINE",
"834 491 OFFCURVE",
"919 389 OFFCURVE",
"919 255 CURVE SMOOTH",
"919 113 OFFCURVE",
"846 42 OFFCURVE",
"769 42 CURVE SMOOTH",
"681 42 OFFCURVE",
"638 125 OFFCURVE",
"638 249 CURVE",
"593 239 LINE",
"593 79 OFFCURVE",
"643 -10 OFFCURVE",
"772 -10 CURVE SMOOTH"
);
}
);
width = 1026;
}
);
rightMetricsKey = tlvR;
unicode = 0C18;
},
{
color = 1;
glyphname = tlNGA;
lastChange = "2015-09-17 07:50:24 +0000";
layers = (
{
anchors = (
{
name = bottom;
position = "{405, 0}";
}
);
layerId = "62C1AEDA-2B35-4B7D-84F0-C5D6ED04B717";
name = Bold;
paths = (
{
closed = 1;
nodes = (
"323 -10 OFFCURVE",
"397 33 OFFCURVE",
"410 114 CURVE",
"421 39 OFFCURVE",
"483 -10 OFFCURVE",
"568 -10 CURVE SMOOTH",
"700 -10 OFFCURVE",
"770 78 OFFCURVE",
"770 180 CURVE SMOOTH",
"770 285 OFFCURVE",
"699 348 OFFCURVE",
"599 348 CURVE SMOOTH",
"582 348 OFFCURVE",
"565 346 OFFCURVE",
"548 342 CURVE",
"548 238 LINE",
"555 240 OFFCURVE",
"562 241 OFFCURVE",
"568 241 CURVE SMOOTH",
"609 241 OFFCURVE",
"628 218 OFFCURVE",
"628 178 CURVE SMOOTH",
"628 135 OFFCURVE",
"607 106 OFFCURVE",
"557 106 CURVE SMOOTH",
"506 106 OFFCURVE",
"481 147 OFFCURVE",
"481 210 CURVE SMOOTH",
"481 251 LINE",
"339 251 LINE",
"339 210 LINE SMOOTH",
"339 144 OFFCURVE",
"303 106 OFFCURVE",
"240 106 CURVE SMOOTH",
"206 106 OFFCURVE",
"171 120 OFFCURVE",
"171 160 CURVE SMOOTH",
"171 250 OFFCURVE",
"396 276 OFFCURVE",
"396 427 CURVE SMOOTH",
"396 527 OFFCURVE",
"319 587 OFFCURVE",
"222 587 CURVE SMOOTH",
"105 587 OFFCURVE",
"44 517 OFFCURVE",
"44 430 CURVE SMOOTH",
"44 414 OFFCURVE",
"46 401 OFFCURVE",
"50 384 CURVE",
"182 384 LINE",
"179 396 OFFCURVE",
"177 406 OFFCURVE",
"177 418 CURVE SMOOTH",
"177 447 OFFCURVE",
"190 470 OFFCURVE",
"222 470 CURVE SMOOTH",
"249 470 OFFCURVE",
"265 450 OFFCURVE",
"265 423 CURVE SMOOTH",
"265 334 OFFCURVE",
"30 318 OFFCURVE",
"30 154 CURVE SMOOTH",
"30 53 OFFCURVE",
"109 -10 OFFCURVE",
"226 -10 CURVE SMOOTH"
);
},
{
closed = 1;
nodes = (
"760 382 LINE",
"760 484 LINE",
"339 484 LINE",
"339 382 LINE"
);
},
{
closed = 1;
nodes = (
"628 459 LINE",
"628 587 LINE",
"502 587 LINE",
"502 459 LINE"
);
}
);
width = 810;
},
{
anchors = (
{
name = bottom;
position = "{349, 0}";
}
);
layerId = "D4CB3B6C-5708-466F-BC9B-F67484F28429";
name = Light;
paths = (
{
closed = 1;
nodes = (
"274 -9 OFFCURVE",
"330 30 OFFCURVE",
"346 99 CURVE",
"357 30 OFFCURVE",
"408 -9 OFFCURVE",
"488 -9 CURVE SMOOTH",
"590 -9 OFFCURVE",
"653 69 OFFCURVE",
"653 160 CURVE SMOOTH",
"653 257 OFFCURVE",
"594 327 OFFCURVE",
"489 327 CURVE SMOOTH",
"480 327 OFFCURVE",
"467 326 OFFCURVE",
"457 324 CURVE",
"457 267 LINE",
"467 269 OFFCURVE",
"477 270 OFFCURVE",
"485 270 CURVE SMOOTH",
"558 270 OFFCURVE",
"592 228 OFFCURVE",
"592 162 CURVE SMOOTH",
"592 93 OFFCURVE",
"552 43 OFFCURVE",
"488 43 CURVE SMOOTH",
"417 43 OFFCURVE",
"377 94 OFFCURVE",
"377 165 CURVE",
"377 209 LINE",
"315 209 LINE",
"315 165 LINE",
"315 96 OFFCURVE",
"269 43 OFFCURVE",
"197 43 CURVE SMOOTH",
"133 43 OFFCURVE",
"98 79 OFFCURVE",
"98 132 CURVE SMOOTH",
"98 260 OFFCURVE",
"322 276 OFFCURVE",
"322 423 CURVE SMOOTH",
"322 492 OFFCURVE",
"276 557 OFFCURVE",
"189 557 CURVE SMOOTH",
"103 557 OFFCURVE",
"52 500 OFFCURVE",
"52 423 CURVE SMOOTH",
"52 409 OFFCURVE",
"54 394 OFFCURVE",
"58 379 CURVE",
"118 379 LINE",
"115 394 OFFCURVE",
"113 407 OFFCURVE",
"113 420 CURVE SMOOTH",
"113 476 OFFCURVE",
"146 504 OFFCURVE",
"189 504 CURVE SMOOTH",
"235 504 OFFCURVE",
"260 471 OFFCURVE",
"260 422 CURVE SMOOTH",
"260 307 OFFCURVE",
"35 293 OFFCURVE",
"35 132 CURVE SMOOTH",
"35 47 OFFCURVE",
"101 -9 OFFCURVE",
"193 -9 CURVE SMOOTH"
);
},
{
closed = 1;
nodes = (
"622 415 LINE",
"622 469 LINE",
"306 469 LINE",
"306 415 LINE"
);
},
{
closed = 1;
nodes = (
"491 439 LINE",
"491 559 LINE",
"427 559 LINE",
"427 439 LINE"
);
}
);
width = 698;
}
);
leftMetricsKey = tlvR;
rightMetricsKey = tlvR;
unicode = 0C19;
},
{
color = 1;
glyphname = tlCA;
lastChange = "2015-09-17 07:50:24 +0000";
layers = (
{
anchors = (
{
name = bottom;
position = "{398, 0}";
}
);
layerId = "62C1AEDA-2B35-4B7D-84F0-C5D6ED04B717";
name = Bold;
paths = (
{
closed = 1;
nodes = (
"327 -10 OFFCURVE",
"387 40 OFFCURVE",
"404 114 CURVE",
"416 37 OFFCURVE",
"476 -10 OFFCURVE",
"562 -10 CURVE SMOOTH",
"683 -10 OFFCURVE",
"761 96 OFFCURVE",
"761 225 CURVE SMOOTH",
"761 414 OFFCURVE",
"641 562 OFFCURVE",
"354 562 CURVE",
"358 464 LINE",
"547 464 OFFCURVE",
"619 327 OFFCURVE",
"619 224 CURVE SMOOTH",
"619 162 OFFCURVE",
"602 106 OFFCURVE",
"549 106 CURVE SMOOTH",
"499 106 OFFCURVE",
"475 150 OFFCURVE",
"475 210 CURVE SMOOTH",
"475 246 LINE",
"333 246 LINE",
"333 210 LINE SMOOTH",
"333 147 OFFCURVE",
"305 106 OFFCURVE",
"254 106 CURVE SMOOTH",
"207 106 OFFCURVE",
"183 137 OFFCURVE",
"183 177 CURVE SMOOTH",
"183 221 OFFCURVE",
"208 259 OFFCURVE",
"272 264 CURVE",
"272 292 LINE",
"261 293 OFFCURVE",
"251 295 OFFCURVE",
"241 295 CURVE SMOOTH",
"135 295 OFFCURVE",
"41 254 OFFCURVE",
"41 142 CURVE SMOOTH",
"41 44 OFFCURVE",
"127 -10 OFFCURVE",
"229 -10 CURVE SMOOTH"
);
},
{
closed = 1;
nodes = (
"272 264 LINE",
"272 376 LINE",
"20 376 LINE",
"20 264 LINE"
);
},
{
closed = 1;
nodes = (
"479 464 LINE",
"723 799 LINE",
"566 799 LINE",
"404 576 LINE",
"327 677 LINE",
"162 677 LINE",
"333 464 LINE"
);
}
);
width = 796;
},
{
anchors = (
{
name = bottom;
position = "{351, 0}";
}
);
layerId = "D4CB3B6C-5708-466F-BC9B-F67484F28429";
name = Light;
paths = (
{
closed = 1;
nodes = (
"299 -9 OFFCURVE",
"353 40 OFFCURVE",
"361 99 CURVE",
"365 39 OFFCURVE",
"410 -9 OFFCURVE",
"496 -9 CURVE",
"594 -9 OFFCURVE",
"662 77 OFFCURVE",
"662 210 CURVE SMOOTH",
"662 391 OFFCURVE",
"526 535 OFFCURVE",
"322 535 CURVE",
"315 493 LINE",
"484 493 OFFCURVE",
"601 361 OFFCURVE",
"601 200 CURVE SMOOTH",
"601 113 OFFCURVE",
"561 43 OFFCURVE",
"492 43 CURVE",
"427 43 OFFCURVE",
"391 96 OFFCURVE",
"391 165 CURVE",
"391 209 LINE",
"330 209 LINE",
"330 165 LINE",
"330 94 OFFCURVE",
"287 43 OFFCURVE",
"223 43 CURVE",
"162 43 OFFCURVE",
"123 81 OFFCURVE",
"123 141 CURVE SMOOTH",
"123 202 OFFCURVE",
"160 261 OFFCURVE",
"241 262 CURVE",
"241 283 LINE",
"231 284 OFFCURVE",
"226 285 OFFCURVE",
"216 285 CURVE SMOOTH",
"119 285 OFFCURVE",
"61 219 OFFCURVE",
"61 137 CURVE SMOOTH",
"61 48 OFFCURVE",
"126 -9 OFFCURVE",
"223 -9 CURVE"
);
},
{
closed = 1;
nodes = (
"241 262 LINE",
"241 316 LINE",
"30 316 LINE",
"30 262 LINE"
);
},
{
closed = 1;
nodes = (
"378 493 LINE",
"580 757 LINE",
"507 757 LINE",
"346 546 LINE",
"270 642 LINE",
"193 642 LINE",
"314 493 LINE"
);
}
);
width = 702;
}
);
leftMetricsKey = tlII;
rightMetricsKey = tlA;
unicode = 0C1A;
},
{
color = 1;
glyphname = tlCHA;
lastChange = "2015-09-17 07:50:24 +0000";
layers = (
{
anchors = (
{
name = bottom;
position = "{398, 0}";
}
);
background = {
paths = (
{
closed = 1;
nodes = (
"396 14 LINE",
"360 -48 OFFCURVE",
"332 -90 OFFCURVE",
"332 -133 CURVE SMOOTH",
"332 -176 OFFCURVE",
"366 -202 OFFCURVE",
"403 -202 CURVE SMOOTH",
"440 -202 OFFCURVE",
"474 -176 OFFCURVE",
"474 -133 CURVE SMOOTH",
"474 -90 OFFCURVE",
"445 -48 OFFCURVE",
"412 14 CURVE"
);
},
{
closed = 1;
nodes = (
"358 464 LINE",
"547 464 OFFCURVE",
"619 327 OFFCURVE",
"619 224 CURVE SMOOTH",
"619 162 OFFCURVE",
"602 106 OFFCURVE",
"549 106 CURVE SMOOTH",
"499 106 OFFCURVE",
"475 150 OFFCURVE",
"475 210 CURVE SMOOTH",
"475 246 LINE",
"333 246 LINE",
"333 210 LINE SMOOTH",
"333 147 OFFCURVE",
"305 106 OFFCURVE",
"254 106 CURVE SMOOTH",
"207 106 OFFCURVE",
"183 137 OFFCURVE",
"183 177 CURVE SMOOTH",
"183 221 OFFCURVE",
"208 259 OFFCURVE",
"272 264 CURVE",
"272 292 LINE",
"261 293 OFFCURVE",
"251 295 OFFCURVE",
"241 295 CURVE SMOOTH",
"135 295 OFFCURVE",
"41 254 OFFCURVE",
"41 142 CURVE SMOOTH",
"41 44 OFFCURVE",
"127 -10 OFFCURVE",
"229 -10 CURVE SMOOTH",
"327 -10 OFFCURVE",
"387 40 OFFCURVE",
"404 114 CURVE",
"416 37 OFFCURVE",
"476 -10 OFFCURVE",
"562 -10 CURVE SMOOTH",
"683 -10 OFFCURVE",
"761 96 OFFCURVE",
"761 225 CURVE SMOOTH",
"761 414 OFFCURVE",
"641 562 OFFCURVE",
"354 562 CURVE"
);
},
{
closed = 1;
nodes = (
"272 376 LINE",
"20 376 LINE",
"20 264 LINE",
"272 264 LINE"
);
},
{
closed = 1;
nodes = (
"723 799 LINE",
"566 799 LINE",
"404 576 LINE",
"327 677 LINE",
"162 677 LINE",
"333 464 LINE",
"479 464 LINE"
);
}
);
};
layerId = "62C1AEDA-2B35-4B7D-84F0-C5D6ED04B717";
name = Bold;
paths = (
{
closed = 1;
nodes = (
"327 -10 OFFCURVE",
"387 40 OFFCURVE",
"404 114 CURVE",
"416 37 OFFCURVE",
"476 -10 OFFCURVE",
"562 -10 CURVE SMOOTH",
"683 -10 OFFCURVE",
"761 96 OFFCURVE",
"761 225 CURVE SMOOTH",
"761 414 OFFCURVE",
"641 562 OFFCURVE",
"354 562 CURVE",
"358 464 LINE",
"547 464 OFFCURVE",
"619 327 OFFCURVE",
"619 224 CURVE SMOOTH",
"619 162 OFFCURVE",
"602 106 OFFCURVE",
"549 106 CURVE SMOOTH",
"499 106 OFFCURVE",
"475 150 OFFCURVE",
"475 210 CURVE SMOOTH",
"475 246 LINE",
"333 246 LINE",
"333 210 LINE SMOOTH",
"333 147 OFFCURVE",
"305 106 OFFCURVE",
"254 106 CURVE SMOOTH",
"207 106 OFFCURVE",
"183 137 OFFCURVE",
"183 177 CURVE SMOOTH",
"183 221 OFFCURVE",
"208 259 OFFCURVE",
"272 264 CURVE",
"272 292 LINE",
"261 293 OFFCURVE",
"251 295 OFFCURVE",
"241 295 CURVE SMOOTH",
"135 295 OFFCURVE",
"41 254 OFFCURVE",
"41 142 CURVE SMOOTH",
"41 44 OFFCURVE",
"127 -10 OFFCURVE",
"229 -10 CURVE SMOOTH"
);
},
{
closed = 1;
nodes = (
"480 -196 LINE",
"480 -181 LINE",
"436 4 LINE",
"370 4 LINE",
"326 -181 LINE",
"326 -196 LINE"
);
},
{
closed = 1;
nodes = (
"272 264 LINE",
"272 376 LINE",
"20 376 LINE",
"20 264 LINE"
);
},
{
closed = 1;
nodes = (
"479 464 LINE",
"723 799 LINE",
"566 799 LINE",
"404 576 LINE",
"327 677 LINE",
"162 677 LINE",
"333 464 LINE"
);
}
);
width = 796;
},
{
anchors = (
{
name = bottom;
position = "{351, 0}";
}
);
layerId = "D4CB3B6C-5708-466F-BC9B-F67484F28429";
name = Light;
paths = (
{
closed = 1;
nodes = (
"299 -9 OFFCURVE",
"353 40 OFFCURVE",
"361 99 CURVE",
"365 39 OFFCURVE",
"410 -9 OFFCURVE",
"496 -9 CURVE",
"594 -9 OFFCURVE",
"662 77 OFFCURVE",
"662 210 CURVE SMOOTH",
"662 391 OFFCURVE",
"526 535 OFFCURVE",
"322 535 CURVE",
"315 493 LINE",
"484 493 OFFCURVE",
"601 361 OFFCURVE",
"601 200 CURVE SMOOTH",
"601 113 OFFCURVE",
"561 43 OFFCURVE",
"492 43 CURVE",
"427 43 OFFCURVE",
"391 96 OFFCURVE",
"391 165 CURVE",
"391 209 LINE",
"330 209 LINE",
"330 165 LINE",
"330 94 OFFCURVE",
"287 43 OFFCURVE",
"223 43 CURVE",
"162 43 OFFCURVE",
"123 81 OFFCURVE",
"123 141 CURVE SMOOTH",
"123 202 OFFCURVE",
"160 261 OFFCURVE",
"241 262 CURVE",
"241 283 LINE",
"231 284 OFFCURVE",
"226 285 OFFCURVE",
"216 285 CURVE SMOOTH",
"119 285 OFFCURVE",
"61 219 OFFCURVE",
"61 137 CURVE SMOOTH",
"61 48 OFFCURVE",
"126 -9 OFFCURVE",
"223 -9 CURVE"
);
},
{
closed = 1;
nodes = (
"401 -172 LINE",
"401 -158 LINE",
"376 4 LINE",
"342 4 LINE",
"318 -158 LINE",
"318 -172 LINE"
);
},
{
closed = 1;
nodes = (
"241 262 LINE",
"241 316 LINE",
"30 316 LINE",
"30 262 LINE"
);
},
{
closed = 1;
nodes = (
"378 493 LINE",
"580 757 LINE",
"507 757 LINE",
"346 546 LINE",
"270 642 LINE",
"193 642 LINE",
"314 493 LINE"
);
}
);
width = 702;
}
);
leftMetricsKey = tlCA;
rightMetricsKey = tlCA;
unicode = 0C1B;
},
{
color = 1;
glyphname = tlJA;
lastChange = "2015-09-17 07:50:24 +0000";
layers = (
{
anchors = (
{
name = bottom;
position = "{396.5, 0}";
}
);
layerId = "62C1AEDA-2B35-4B7D-84F0-C5D6ED04B717";
name = Bold;
paths = (
{
closed = 1;
nodes = (
"323 -10 OFFCURVE",
"397 33 OFFCURVE",
"410 114 CURVE",
"420 40 OFFCURVE",
"484 -10 OFFCURVE",
"575 -10 CURVE SMOOTH",
"697 -10 OFFCURVE",
"758 70 OFFCURVE",
"758 164 CURVE SMOOTH",
"758 198 OFFCURVE",
"749 236 OFFCURVE",
"733 270 CURVE",
"595 270 LINE",
"611 240 OFFCURVE",
"619 210 OFFCURVE",
"619 184 CURVE SMOOTH",
"619 143 OFFCURVE",
"604 106 OFFCURVE",
"556 106 CURVE SMOOTH",
"505 106 OFFCURVE",
"481 148 OFFCURVE",
"481 210 CURVE SMOOTH",
"481 231 LINE",
"339 231 LINE",
"339 210 LINE SMOOTH",
"339 142 OFFCURVE",
"298 106 OFFCURVE",
"234 106 CURVE SMOOTH",
"202 106 OFFCURVE",
"172 121 OFFCURVE",
"172 156 CURVE SMOOTH",
"172 240 OFFCURVE",
"387 296 OFFCURVE",
"387 410 CURVE",
"363 412 LINE",
"395 362 OFFCURVE",
"468 333 OFFCURVE",
"538 333 CURVE SMOOTH",
"637 333 OFFCURVE",
"713 392 OFFCURVE",
"713 485 CURVE SMOOTH",
"713 512 OFFCURVE",
"707 547 OFFCURVE",
"692 576 CURVE",
"565 576 LINE",
"575 557 OFFCURVE",
"580 536 OFFCURVE",
"580 515 CURVE SMOOTH",
"580 479 OFFCURVE",
"561 449 OFFCURVE",
"512 449 CURVE SMOOTH",
"395 449 OFFCURVE",
"364 587 OFFCURVE",
"227 587 CURVE SMOOTH",
"117 587 OFFCURVE",
"57 525 OFFCURVE",
"57 443 CURVE SMOOTH",
"57 425 OFFCURVE",
"59 406 OFFCURVE",
"65 389 CURVE",
"197 389 LINE",
"192 400 OFFCURVE",
"189 413 OFFCURVE",
"189 425 CURVE SMOOTH",
"189 449 OFFCURVE",
"200 470 OFFCURVE",
"226 470 CURVE SMOOTH",
"251 470 OFFCURVE",
"261 451 OFFCURVE",
"261 425 CURVE SMOOTH",
"261 343 OFFCURVE",
"30 308 OFFCURVE",
"30 154 CURVE SMOOTH",
"30 53 OFFCURVE",
"109 -10 OFFCURVE",
"226 -10 CURVE SMOOTH"
);
}
);
width = 793;
},
{
anchors = (
{
name = bottom;
position = "{338.5, 0}";
}
);
layerId = "D4CB3B6C-5708-466F-BC9B-F67484F28429";
name = Light;
paths = (
{
closed = 1;
nodes = (
"269 -9 OFFCURVE",
"328 25 OFFCURVE",
"346 99 CURVE",
"356 28 OFFCURVE",
"412 -9 OFFCURVE",
"487 -9 CURVE SMOOTH",
"580 -9 OFFCURVE",
"637 60 OFFCURVE",
"637 147 CURVE SMOOTH",
"637 188 OFFCURVE",
"629 216 OFFCURVE",
"617 248 CURVE",
"554 248 LINE",
"570 212 OFFCURVE",
"577 182 OFFCURVE",
"577 148 CURVE SMOOTH",
"577 88 OFFCURVE",
"546 43 OFFCURVE",
"484 43 CURVE SMOOTH",
"420 43 OFFCURVE",
"377 96 OFFCURVE",
"377 165 CURVE SMOOTH",
"377 208 LINE",
"315 208 LINE",
"315 165 LINE SMOOTH",
"315 90 OFFCURVE",
"264 43 OFFCURVE",
"194 43 CURVE SMOOTH",
"134 43 OFFCURVE",
"98 79 OFFCURVE",
"98 132 CURVE SMOOTH",
"98 262 OFFCURVE",
"319 273 OFFCURVE",
"319 427 CURVE",
"301 441 LINE",
"330 397 OFFCURVE",
"395 352 OFFCURVE",
"467 352 CURVE SMOOTH",
"552 352 OFFCURVE",
"608 403 OFFCURVE",
"608 478 CURVE SMOOTH",
"608 501 OFFCURVE",
"603 525 OFFCURVE",
"593 546 CURVE",
"534 546 LINE",
"543 524 OFFCURVE",
"546 504 OFFCURVE",
"546 486 CURVE SMOOTH",
"546 440 OFFCURVE",
"518 406 OFFCURVE",
"464 406 CURVE SMOOTH",
"349 406 OFFCURVE",
"308 557 OFFCURVE",
"189 557 CURVE SMOOTH",
"104 557 OFFCURVE",
"52 500 OFFCURVE",
"52 424 CURVE SMOOTH",
"52 410 OFFCURVE",
"54 395 OFFCURVE",
"58 380 CURVE",
"118 380 LINE",
"115 394 OFFCURVE",
"113 407 OFFCURVE",
"113 420 CURVE SMOOTH",
"113 476 OFFCURVE",
"147 504 OFFCURVE",
"189 504 CURVE SMOOTH",
"235 504 OFFCURVE",
"261 471 OFFCURVE",
"261 422 CURVE SMOOTH",
"261 310 OFFCURVE",
"35 293 OFFCURVE",
"35 132 CURVE SMOOTH",
"35 47 OFFCURVE",
"98 -9 OFFCURVE",
"190 -9 CURVE SMOOTH"
);
}
);
width = 677;
}
);
leftMetricsKey = tlvR;
rightMetricsKey = tlA;
unicode = 0C1C;
},
{
color = 1;
glyphname = tlJHA;
lastChange = "2015-09-17 07:50:24 +0000";
layers = (
{
anchors = (
{
name = bottom;
position = "{676.5, 0}";
}
);
background = {
paths = (
{
closed = 1;
nodes = (
"497 -8 OFFCURVE",
"597 115 OFFCURVE",
"597 283 CURVE SMOOTH",
"597 432 OFFCURVE",
"510 576 OFFCURVE",
"319 576 CURVE SMOOTH",
"138 576 OFFCURVE",
"40 432 OFFCURVE",
"40 274 CURVE SMOOTH",
"40 112 OFFCURVE",
"137 -8 OFFCURVE",
"319 -8 CURVE SMOOTH"
);
},
{
closed = 1;
nodes = (
"235 105 OFFCURVE",
"192 179 OFFCURVE",
"192 280 CURVE SMOOTH",
"192 371 OFFCURVE",
"231 468 OFFCURVE",
"318 468 CURVE SMOOTH",
"411 468 OFFCURVE",
"445 369 OFFCURVE",
"445 278 CURVE SMOOTH",
"445 177 OFFCURVE",
"405 105 OFFCURVE",
"320 105 CURVE SMOOTH"
);
},
{
closed = 1;
nodes = (
"951 -206 LINE",
"951 -191 LINE",
"907 -6 LINE",
"841 -6 LINE",
"797 -191 LINE",
"797 -206 LINE"
);
},
{
closed = 1;
nodes = (
"855 -10 OFFCURVE",
"915 117 OFFCURVE",
"915 275 CURVE SMOOTH",
"915 446 OFFCURVE",
"854 576 OFFCURVE",
"661 576 CURVE",
"661 461 LINE",
"750 461 OFFCURVE",
"774 372 OFFCURVE",
"774 269 CURVE SMOOTH",
"774 183 OFFCURVE",
"762 106 OFFCURVE",
"690 106 CURVE SMOOTH",
"621 106 OFFCURVE",
"597 184 OFFCURVE",
"597 283 CURVE",
"533 224 LINE",
"533 80 OFFCURVE",
"581 -10 OFFCURVE",
"702 -10 CURVE SMOOTH"
);
},
{
closed = 1;
nodes = (
"406 494 LINE",
"640 799 LINE",
"491 799 LINE",
"321 576 LINE",
"241 677 LINE",
"79 677 LINE",
"237 494 LINE"
);
},
{
closed = 1;
nodes = (
"1172 -10 OFFCURVE",
"1235 121 OFFCURVE",
"1235 275 CURVE SMOOTH",
"1235 439 OFFCURVE",
"1167 576 OFFCURVE",
"975 576 CURVE",
"975 461 LINE",
"1062 461 OFFCURVE",
"1094 372 OFFCURVE",
"1094 269 CURVE SMOOTH",
"1094 183 OFFCURVE",
"1079 106 OFFCURVE",
"1008 106 CURVE SMOOTH",
"939 106 OFFCURVE",
"915 184 OFFCURVE",
"915 283 CURVE",
"851 224 LINE",
"851 80 OFFCURVE",
"899 -10 OFFCURVE",
"1027 -10 CURVE SMOOTH"
);
}
);
};
layerId = "62C1AEDA-2B35-4B7D-84F0-C5D6ED04B717";
name = Bold;
paths = (
{
closed = 1;
nodes = (
"497 -8 OFFCURVE",
"597 115 OFFCURVE",
"597 283 CURVE SMOOTH",
"597 432 OFFCURVE",
"510 576 OFFCURVE",
"319 576 CURVE SMOOTH",
"138 576 OFFCURVE",
"40 432 OFFCURVE",
"40 274 CURVE SMOOTH",
"40 112 OFFCURVE",
"137 -8 OFFCURVE",
"319 -8 CURVE SMOOTH"
);
},
{
closed = 1;
nodes = (
"235 105 OFFCURVE",
"192 179 OFFCURVE",
"192 280 CURVE SMOOTH",
"192 371 OFFCURVE",
"231 468 OFFCURVE",
"318 468 CURVE SMOOTH",
"411 468 OFFCURVE",
"445 369 OFFCURVE",
"445 278 CURVE SMOOTH",
"445 177 OFFCURVE",
"405 105 OFFCURVE",
"320 105 CURVE SMOOTH"
);
},
{
closed = 1;
nodes = (
"982 -206 LINE",
"982 -191 LINE",
"938 -6 LINE",
"872 -6 LINE",
"828 -191 LINE",
"828 -206 LINE"
);
},
{
closed = 1;
nodes = (
"660 461 LINE",
"778 461 OFFCURVE",
"814 370 OFFCURVE",
"814 273 CURVE SMOOTH",
"814 172 OFFCURVE",
"779 106 OFFCURVE",
"704 106 CURVE SMOOTH",
"613 106 OFFCURVE",
"596 198 OFFCURVE",
"596 259 CURVE",
"514 224 LINE",
"518 84 OFFCURVE",
"577 -10 OFFCURVE",
"720 -10 CURVE SMOOTH",
"875 -10 OFFCURVE",
"955 119 OFFCURVE",
"955 274 CURVE SMOOTH",
"955 446 OFFCURVE",
"877 576 OFFCURVE",
"660 576 CURVE"
);
},
{
closed = 1;
nodes = (
"406 494 LINE",
"640 799 LINE",
"491 799 LINE",
"321 576 LINE",
"241 677 LINE",
"79 677 LINE",
"237 494 LINE"
);
},
{
closed = 1;
nodes = (
"1233 -10 OFFCURVE",
"1313 119 OFFCURVE",
"1313 274 CURVE SMOOTH",
"1313 446 OFFCURVE",
"1235 576 OFFCURVE",
"1018 576 CURVE",
"1018 461 LINE",
"1136 461 OFFCURVE",
"1172 370 OFFCURVE",
"1172 273 CURVE SMOOTH",
"1172 172 OFFCURVE",
"1137 106 OFFCURVE",
"1062 106 CURVE SMOOTH",
"971 106 OFFCURVE",
"954 198 OFFCURVE",
"954 259 CURVE",
"872 224 LINE",
"876 84 OFFCURVE",
"935 -10 OFFCURVE",
"1078 -10 CURVE SMOOTH"
);
}
);
width = 1353;
},
{
anchors = (
{
name = bottom;
position = "{622.5, 0}";
}
);
background = {
paths = (
{
closed = 1;
nodes = (
"418 -9 OFFCURVE",
"516 98 OFFCURVE",
"516 272 CURVE SMOOTH",
"516 440 OFFCURVE",
"419 546 OFFCURVE",
"280 546 CURVE SMOOTH",
"141 546 OFFCURVE",
"43 440 OFFCURVE",
"43 271 CURVE SMOOTH",
"43 98 OFFCURVE",
"141 -9 OFFCURVE",
"280 -9 CURVE SMOOTH"
);
},
{
closed = 1;
nodes = (
"181 43 OFFCURVE",
"106 132 OFFCURVE",
"106 271 CURVE SMOOTH",
"106 407 OFFCURVE",
"181 494 OFFCURVE",
"280 494 CURVE SMOOTH",
"379 494 OFFCURVE",
"454 407 OFFCURVE",
"454 270 CURVE SMOOTH",
"454 131 OFFCURVE",
"378 43 OFFCURVE",
"280 43 CURVE SMOOTH"
);
},
{
closed = 1;
nodes = (
"804 -186 LINE",
"804 -172 LINE",
"773 4 LINE",
"747 4 LINE",
"717 -172 LINE",
"717 -186 LINE"
);
},
{
closed = 1;
nodes = (
"729 -9 OFFCURVE",
"790 95 OFFCURVE",
"790 261 CURVE SMOOTH",
"790 412 OFFCURVE",
"731 544 OFFCURVE",
"591 546 CURVE",
"591 491 LINE",
"680 491 OFFCURVE",
"727 390 OFFCURVE",
"727 255 CURVE SMOOTH",
"727 124 OFFCURVE",
"692 43 OFFCURVE",
"621 43 CURVE SMOOTH",
"538 43 OFFCURVE",
"515 143 OFFCURVE",
"515 251 CURVE",
"474 213 LINE",
"474 85 OFFCURVE",
"510 -9 OFFCURVE",
"620 -9 CURVE SMOOTH"
);
},
{
closed = 1;
nodes = (
"314 495 LINE",
"515 757 LINE",
"442 757 LINE",
"281 546 LINE",
"205 642 LINE",
"127 642 LINE",
"248 495 LINE"
);
},
{
closed = 1;
nodes = (
"1002 -9 OFFCURVE",
"1064 95 OFFCURVE",
"1064 261 CURVE SMOOTH",
"1064 411 OFFCURVE",
"1004 544 OFFCURVE",
"864 546 CURVE",
"864 491 LINE",
"953 491 OFFCURVE",
"1001 390 OFFCURVE",
"1001 255 CURVE SMOOTH",
"1001 124 OFFCURVE",
"965 43 OFFCURVE",
"895 43 CURVE SMOOTH",
"813 43 OFFCURVE",
"790 143 OFFCURVE",
"790 251 CURVE",
"748 213 LINE",
"748 85 OFFCURVE",
"784 -9 OFFCURVE",
"895 -9 CURVE SMOOTH"
);
}
);
};
layerId = "D4CB3B6C-5708-466F-BC9B-F67484F28429";
name = Light;
paths = (
{
closed = 1;
nodes = (
"418 -9 OFFCURVE",
"516 98 OFFCURVE",
"516 272 CURVE SMOOTH",
"516 440 OFFCURVE",
"419 546 OFFCURVE",
"280 546 CURVE SMOOTH",
"141 546 OFFCURVE",
"43 440 OFFCURVE",
"43 271 CURVE SMOOTH",
"43 98 OFFCURVE",
"141 -9 OFFCURVE",
"280 -9 CURVE SMOOTH"
);
},
{
closed = 1;
nodes = (
"181 43 OFFCURVE",
"106 132 OFFCURVE",
"106 271 CURVE SMOOTH",
"106 407 OFFCURVE",
"181 494 OFFCURVE",
"280 494 CURVE SMOOTH",
"379 494 OFFCURVE",
"454 407 OFFCURVE",
"454 270 CURVE SMOOTH",
"454 131 OFFCURVE",
"378 43 OFFCURVE",
"280 43 CURVE SMOOTH"
);
},
{
closed = 1;
nodes = (
"877 -186 LINE",
"877 -172 LINE",
"847 4 LINE",
"820 4 LINE",
"790 -172 LINE",
"790 -186 LINE"
);
},
{
closed = 1;
nodes = (
"593 492 LINE",
"712 492 OFFCURVE",
"796 390 OFFCURVE",
"796 256 CURVE SMOOTH",
"796 114 OFFCURVE",
"732 43 OFFCURVE",
"659 43 CURVE SMOOTH",
"574 43 OFFCURVE",
"516 123 OFFCURVE",
"516 270 CURVE",
"469 269 LINE",
"470 100 OFFCURVE",
"536 -9 OFFCURVE",
"659 -9 CURVE SMOOTH",
"771 -9 OFFCURVE",
"858 72 OFFCURVE",
"858 262 CURVE SMOOTH",
"858 412 OFFCURVE",
"760 547 OFFCURVE",
"593 547 CURVE"
);
},
{
closed = 1;
nodes = (
"314 495 LINE",
"515 757 LINE",
"442 757 LINE",
"281 546 LINE",
"205 642 LINE",
"127 642 LINE",
"248 495 LINE"
);
},
{
closed = 1;
nodes = (
"1113 -9 OFFCURVE",
"1200 72 OFFCURVE",
"1200 262 CURVE SMOOTH",
"1200 412 OFFCURVE",
"1102 547 OFFCURVE",
"934 547 CURVE",
"934 492 LINE",
"1053 492 OFFCURVE",
"1138 390 OFFCURVE",
"1138 256 CURVE SMOOTH",
"1138 114 OFFCURVE",
"1073 43 OFFCURVE",
"1001 43 CURVE SMOOTH",
"916 43 OFFCURVE",
"858 113 OFFCURVE",
"858 261 CURVE",
"811 259 LINE",
"811 91 OFFCURVE",
"878 -9 OFFCURVE",
"1001 -9 CURVE SMOOTH"
);
}
);
width = 1245;
}
);
rightMetricsKey = tlvR;
unicode = 0C1D;
},
{
color = 1;
glyphname = tlNYA;
lastChange = "2015-09-17 07:54:02 +0000";
layers = (
{
anchors = (
{
name = bottom;
position = "{380, 0}";
}
);
background = {
paths = (
{
closed = 1;
nodes = (
"953 341 LINE",
"953 443 LINE",
"599 443 LINE",
"599 341 LINE"
);
},
{
closed = 1;
nodes = (
"863 418 LINE",
"863 576 LINE",
"737 576 LINE",
"737 418 LINE"
);
},
{
closed = 1;
nodes = (
"698 -70 LINE",
"680 123 OFFCURVE",
"540 308 OFFCURVE",
"333 308 CURVE SMOOTH",
"201 308 OFFCURVE",
"119 237 OFFCURVE",
"119 146 CURVE SMOOTH",
"119 44 OFFCURVE",
"204 -11 OFFCURVE",
"339 -11 CURVE SMOOTH",
"528 -11 OFFCURVE",
"697 155 OFFCURVE",
"697 355 CURVE SMOOTH",
"697 475 OFFCURVE",
"639 587 OFFCURVE",
"503 587 CURVE SMOOTH",
"425 587 OFFCURVE",
"372 531 OFFCURVE",
"364 463 CURVE",
"356 531 OFFCURVE",
"298 587 OFFCURVE",
"205 587 CURVE SMOOTH",
"91 587 OFFCURVE",
"25 507 OFFCURVE",
"25 420 CURVE SMOOTH",
"25 383 OFFCURVE",
"32 353 OFFCURVE",
"46 322 CURVE",
"184 322 LINE",
"171 347 OFFCURVE",
"164 372 OFFCURVE",
"164 400 CURVE SMOOTH",
"164 439 OFFCURVE",
"185 471 OFFCURVE",
"224 471 CURVE SMOOTH",
"275 471 OFFCURVE",
"293 427 OFFCURVE",
"293 377 CURVE SMOOTH",
"293 349 LINE",
"435 349 LINE",
"435 377 LINE SMOOTH",
"435 427 OFFCURVE",
"449 471 OFFCURVE",
"495 471 CURVE SMOOTH",
"544 471 OFFCURVE",
"559 414 OFFCURVE",
"559 357 CURVE SMOOTH",
"559 229 OFFCURVE",
"481 102 OFFCURVE",
"339 102 CURVE SMOOTH",
"288 102 OFFCURVE",
"261 118 OFFCURVE",
"261 149 CURVE SMOOTH",
"261 178 OFFCURVE",
"287 197 OFFCURVE",
"337 197 CURVE SMOOTH",
"473 197 OFFCURVE",
"543 53 OFFCURVE",
"553 -70 CURVE"
);
}
);
};
layerId = "62C1AEDA-2B35-4B7D-84F0-C5D6ED04B717";
name = Bold;
paths = (
{
closed = 1;
nodes = (
"953 341 LINE",
"953 443 LINE",
"599 443 LINE",
"599 341 LINE"
);
},
{
closed = 1;
nodes = (
"863 418 LINE",
"863 576 LINE",
"737 576 LINE",
"737 418 LINE"
);
},
{
closed = 1;
nodes = (
"608 -70 LINE",
"608 143 OFFCURVE",
"500 308 OFFCURVE",
"323 308 CURVE SMOOTH",
"201 308 OFFCURVE",
"119 237 OFFCURVE",
"119 146 CURVE SMOOTH",
"119 44 OFFCURVE",
"214 -11 OFFCURVE",
"339 -11 CURVE SMOOTH",
"510 -11 OFFCURVE",
"697 159 OFFCURVE",
"697 363 CURVE SMOOTH",
"697 480 OFFCURVE",
"636 587 OFFCURVE",
"503 587 CURVE SMOOTH",
"425 587 OFFCURVE",
"372 531 OFFCURVE",
"364 463 CURVE",
"356 531 OFFCURVE",
"298 587 OFFCURVE",
"205 587 CURVE SMOOTH",
"91 587 OFFCURVE",
"25 507 OFFCURVE",
"25 420 CURVE SMOOTH",
"25 383 OFFCURVE",
"32 353 OFFCURVE",
"46 322 CURVE",
"184 322 LINE",
"171 347 OFFCURVE",
"164 372 OFFCURVE",
"164 400 CURVE SMOOTH",
"164 439 OFFCURVE",
"185 471 OFFCURVE",
"224 471 CURVE SMOOTH",
"275 471 OFFCURVE",
"293 427 OFFCURVE",
"293 377 CURVE SMOOTH",
"293 349 LINE",
"435 349 LINE",
"435 377 LINE SMOOTH",
"435 427 OFFCURVE",
"449 471 OFFCURVE",
"495 471 CURVE SMOOTH",
"541 471 OFFCURVE",
"559 420 OFFCURVE",
"559 366 CURVE SMOOTH",
"559 235 OFFCURVE",
"464 102 OFFCURVE",
"339 102 CURVE SMOOTH",
"290 102 OFFCURVE",
"261 118 OFFCURVE",
"261 149 CURVE SMOOTH",
"261 178 OFFCURVE",
"282 197 OFFCURVE",
"317 197 CURVE SMOOTH",
"423 197 OFFCURVE",
"463 84 OFFCURVE",
"463 -70 CURVE"
);
}
);
width = 973;
},
{
anchors = (
{
name = bottom;
position = "{300, 0}";
}
);
background = {
paths = (
{
closed = 1;
nodes = (
"757 359 LINE",
"757 413 LINE",
"532 413 LINE",
"532 359 LINE"
);
},
{
closed = 1;
nodes = (
"680 397 LINE",
"680 546 LINE",
"616 546 LINE",
"616 397 LINE"
);
},
{
closed = 1;
nodes = (
"572 -48 LINE",
"557 113 OFFCURVE",
"444 261 OFFCURVE",
"270 261 CURVE SMOOTH",
"162 261 OFFCURVE",
"91 198 OFFCURVE",
"91 126 CURVE SMOOTH",
"91 35 OFFCURVE",
"173 -9 OFFCURVE",
"270 -9 CURVE SMOOTH",
"466 -9 OFFCURVE",
"569 194 OFFCURVE",
"569 347 CURVE SMOOTH",
"569 454 OFFCURVE",
"520 556 OFFCURVE",
"412 556 CURVE SMOOTH",
"342 556 OFFCURVE",
"290 509 OFFCURVE",
"283 445 CURVE",
"275 508 OFFCURVE",
"231 556 OFFCURVE",
"155 556 CURVE SMOOTH",
"64 556 OFFCURVE",
"10 483 OFFCURVE",
"10 399 CURVE SMOOTH",
"10 374 OFFCURVE",
"13 349 OFFCURVE",
"21 326 CURVE",
"83 326 LINE",
"75 350 OFFCURVE",
"71 375 OFFCURVE",
"71 398 CURVE SMOOTH",
"71 454 OFFCURVE",
"99 503 OFFCURVE",
"159 503 CURVE SMOOTH",
"218 503 OFFCURVE",
"252 450 OFFCURVE",
"252 389 CURVE SMOOTH",
"252 352 LINE",
"314 352 LINE",
"314 387 LINE SMOOTH",
"314 452 OFFCURVE",
"346 503 OFFCURVE",
"407 503 CURVE SMOOTH",
"480 503 OFFCURVE",
"509 424 OFFCURVE",
"509 341 CURVE SMOOTH",
"509 205 OFFCURVE",
"427 43 OFFCURVE",
"270 43 CURVE SMOOTH",
"198 43 OFFCURVE",
"154 72 OFFCURVE",
"154 123 CURVE SMOOTH",
"154 169 OFFCURVE",
"191 208 OFFCURVE",
"271 208 CURVE SMOOTH",
"407 208 OFFCURVE",
"495 99 OFFCURVE",
"512 -48 CURVE"
);
}
);
};
layerId = "D4CB3B6C-5708-466F-BC9B-F67484F28429";
name = Light;
paths = (
{
closed = 1;
nodes = (
"752 359 LINE",
"752 413 LINE",
"527 413 LINE",
"527 359 LINE"
);
},
{
closed = 1;
nodes = (
"675 397 LINE",
"675 546 LINE",
"611 546 LINE",
"611 397 LINE"
);
},
{
closed = 1;
nodes = (
"482 -48 LINE",
"482 123 OFFCURVE",
"394 251 OFFCURVE",
"254 251 CURVE SMOOTH",
"165 251 OFFCURVE",
"91 196 OFFCURVE",
"91 119 CURVE SMOOTH",
"91 33 OFFCURVE",
"165 -9 OFFCURVE",
"260 -9 CURVE SMOOTH",
"450 -9 OFFCURVE",
"559 193 OFFCURVE",
"559 347 CURVE SMOOTH",
"559 459 OFFCURVE",
"511 556 OFFCURVE",
"408 556 CURVE SMOOTH",
"337 556 OFFCURVE",
"290 509 OFFCURVE",
"283 445 CURVE",
"275 508 OFFCURVE",
"231 556 OFFCURVE",
"155 556 CURVE SMOOTH",
"64 556 OFFCURVE",
"10 483 OFFCURVE",
"10 399 CURVE SMOOTH",
"10 374 OFFCURVE",
"13 349 OFFCURVE",
"21 326 CURVE",
"83 326 LINE",
"75 350 OFFCURVE",
"71 375 OFFCURVE",
"71 398 CURVE SMOOTH",
"71 454 OFFCURVE",
"99 503 OFFCURVE",
"159 503 CURVE SMOOTH",
"218 503 OFFCURVE",
"252 450 OFFCURVE",
"252 389 CURVE SMOOTH",
"252 352 LINE",
"314 352 LINE",
"314 387 LINE SMOOTH",
"314 452 OFFCURVE",
"341 503 OFFCURVE",
"403 503 CURVE SMOOTH",
"471 503 OFFCURVE",
"499 431 OFFCURVE",
"499 348 CURVE SMOOTH",
"499 214 OFFCURVE",
"411 43 OFFCURVE",
"260 43 CURVE SMOOTH",
"191 43 OFFCURVE",
"154 70 OFFCURVE",
"154 116 CURVE SMOOTH",
"154 165 OFFCURVE",
"196 198 OFFCURVE",
"255 198 CURVE SMOOTH",
"357 198 OFFCURVE",
"422 109 OFFCURVE",
"422 -48 CURVE"
);
}
);
width = 767;
}
);
leftMetricsKey = tlI;
rightMetricsKey = tlU;
unicode = 0C1E;
},
